<svg width="199" height="62" viewBox="0 0 199 62" fill="none" xmlns="http://www.w3.org/2000/svg">
<path d="M66 31C66 48.1208 52.1208 62 35 62C17.8792 62 4 48.1208 4 31C4 23.0618 6.98374 15.8204 11.8909 10.3363V31.5636H11.8976C12.1969 44.066 22.4256 54.1091 35 54.1091C47.7628 54.1091 58.1091 43.7628 58.1091 31C58.1091 18.2372 47.7628 7.89091 35 7.89091C29.6959 7.89091 24.8092 9.67785 20.9091 12.6825V3.38017C25.1367 1.21901 29.926 0 35 0C52.1208 0 66 13.8792 66 31Z" fill="#39027A"/>
<path d="M50.2186 30.9999C50.2186 39.4047 43.4052 46.2181 35.0004 46.2181C26.5956 46.2181 19.7822 39.4047 19.7822 30.9999C19.7822 22.5952 26.5956 15.7817 35.0004 15.7817C43.4052 15.7817 50.2186 22.5952 50.2186 30.9999Z" fill="#03C2A7"/>
<path d="M93.732 46.6C89.5395 46.6 86.3369 45.1363 84.1242 42.2089V44.6933C84.1242 45.0785 83.9883 45.4059 83.7166 45.6756C83.4836 45.9067 83.1731 46.0222 82.7849 46.0222H80.3393C79.9511 46.0222 79.6211 45.9067 79.3494 45.6756C79.1165 45.4059 79 45.0785 79 44.6933V6.32889C79 5.90519 79.1165 5.57778 79.3494 5.34667C79.6211 5.11556 79.9511 5 80.3393 5H82.9596C83.3478 5 83.6583 5.13482 83.8912 5.40445C84.163 5.63556 84.2988 5.9437 84.2988 6.32889V19.6756C86.4727 16.8252 89.6171 15.4 93.732 15.4C97.808 15.4 100.855 16.7289 102.874 19.3867C104.931 22.0059 106.018 25.2993 106.135 29.2667C106.174 29.6904 106.193 30.2681 106.193 31C106.193 31.7319 106.174 32.3096 106.135 32.7333C106.018 36.7007 104.931 40.0133 102.874 42.6711C100.855 45.2904 97.808 46.6 93.732 46.6ZM92.6256 42.0933C95.4206 42.0933 97.4586 41.2267 98.7397 39.4933C100.021 37.76 100.719 35.4874 100.836 32.6756C100.875 32.2904 100.894 31.7319 100.894 31C100.894 23.6044 98.138 19.9067 92.6256 19.9067C89.9859 19.9067 87.9479 20.7733 86.5116 22.5067C85.1141 24.2015 84.3765 26.2237 84.2988 28.5733C84.26 28.997 84.2406 29.7481 84.2406 30.8267C84.2406 31.8667 84.26 32.5985 84.2988 33.0222C84.3765 35.4874 85.0946 37.6252 86.4533 39.4356C87.8508 41.2074 89.9083 42.0933 92.6256 42.0933Z" fill="#39027A"/>
<path d="M118.115 46.6C116.213 46.6 114.447 46.2148 112.817 45.4444C111.225 44.6741 109.944 43.6341 108.973 42.3244C108.042 40.9763 107.576 39.4933 107.576 37.8756C107.576 35.3333 108.624 33.2533 110.72 31.6356C112.817 30.0178 115.67 28.9393 119.28 28.4L128.014 27.1867V25.5111C128.014 21.5437 125.705 19.56 121.085 19.56C119.299 19.56 117.863 19.9259 116.776 20.6578C115.689 21.3511 114.893 22.1793 114.389 23.1422C114.233 23.5274 114.059 23.797 113.865 23.9511C113.709 24.0667 113.476 24.1244 113.166 24.1244H110.895C110.546 24.1244 110.235 24.0089 109.963 23.7778C109.73 23.5081 109.614 23.2 109.614 22.8533C109.614 21.9674 110.022 20.9467 110.837 19.7911C111.691 18.597 112.991 17.5763 114.738 16.7289C116.485 15.843 118.62 15.4 121.143 15.4C125.491 15.4 128.597 16.4015 130.46 18.4044C132.362 20.4074 133.313 22.9111 133.313 25.9156V44.6933C133.313 45.0785 133.177 45.4059 132.906 45.6756C132.673 45.9067 132.362 46.0222 131.974 46.0222H129.412C129.024 46.0222 128.713 45.9067 128.48 45.6756C128.247 45.4059 128.131 45.0785 128.131 44.6933V42.1511C127.277 43.4222 126.035 44.4815 124.404 45.3289C122.774 46.1763 120.677 46.6 118.115 46.6ZM119.28 42.3822C121.842 42.3822 123.938 41.5541 125.569 39.8978C127.199 38.2415 128.014 35.8341 128.014 32.6756V31.0578L121.202 32.04C118.407 32.4252 116.291 33.08 114.855 34.0044C113.418 34.9289 112.7 36.0844 112.7 37.4711C112.7 39.0504 113.341 40.2637 114.622 41.1111C115.942 41.9585 117.494 42.3822 119.28 42.3822Z" fill="#39027A"/>
<path d="M139.358 57C138.969 57 138.639 56.8844 138.368 56.6533C138.135 56.4222 138.018 56.0948 138.018 55.6711V17.3067C138.018 16.883 138.135 16.5556 138.368 16.3244C138.639 16.0933 138.969 15.9778 139.358 15.9778H141.803C142.23 15.9778 142.56 16.0933 142.793 16.3244C143.026 16.5556 143.143 16.883 143.143 17.3067V19.8489C145.394 16.883 148.597 15.4 152.75 15.4C156.826 15.4 159.874 16.6904 161.892 19.2711C163.95 21.8133 165.037 25.0681 165.153 29.0356C165.192 29.4593 165.211 30.1141 165.211 31C165.211 31.8859 165.192 32.5407 165.153 32.9644C165.037 36.8933 163.95 40.1481 161.892 42.7289C159.874 45.3096 156.826 46.6 152.75 46.6C148.597 46.6 145.452 45.1363 143.317 42.2089V55.6711C143.317 56.0563 143.181 56.3644 142.91 56.5956C142.677 56.8652 142.366 57 141.978 57H139.358ZM151.644 42.0933C154.439 42.0933 156.477 41.2267 157.758 39.4933C159.039 37.76 159.738 35.4874 159.854 32.6756C159.893 32.2904 159.913 31.7319 159.913 31C159.913 23.6044 157.156 19.9067 151.644 19.9067C148.927 19.9067 146.869 20.8119 145.472 22.6222C144.113 24.3941 143.395 26.4933 143.317 28.92C143.278 29.3437 143.259 30.0948 143.259 31.1733C143.259 32.2519 143.278 33.003 143.317 33.4267C143.395 35.7763 144.132 37.8178 145.53 39.5511C146.966 41.2459 149.004 42.0933 151.644 42.0933Z" fill="#39027A"/>
<path d="M170.146 57C169.758 57 169.428 56.8844 169.156 56.6533C168.923 56.4222 168.807 56.0948 168.807 55.6711V17.3067C168.807 16.883 168.923 16.5556 169.156 16.3244C169.428 16.0933 169.758 15.9778 170.146 15.9778H172.592C173.019 15.9778 173.349 16.0933 173.582 16.3244C173.815 16.5556 173.931 16.883 173.931 17.3067V19.8489C176.183 16.883 179.385 15.4 183.539 15.4C187.615 15.4 190.662 16.6904 192.681 19.2711C194.738 21.8133 195.825 25.0681 195.942 29.0356C195.981 29.4593 196 30.1141 196 31C196 31.8859 195.981 32.5407 195.942 32.9644C195.825 36.8933 194.738 40.1481 192.681 42.7289C190.662 45.3096 187.615 46.6 183.539 46.6C179.385 46.6 176.241 45.1363 174.106 42.2089V55.6711C174.106 56.0563 173.97 56.3644 173.698 56.5956C173.465 56.8652 173.155 57 172.767 57H170.146ZM182.433 42.0933C185.228 42.0933 187.266 41.2267 188.547 39.4933C189.828 37.76 190.526 35.4874 190.643 32.6756C190.682 32.2904 190.701 31.7319 190.701 31C190.701 23.6044 187.945 19.9067 182.433 19.9067C179.715 19.9067 177.658 20.8119 176.26 22.6222C174.902 24.3941 174.183 26.4933 174.106 28.92C174.067 29.3437 174.048 30.0948 174.048 31.1733C174.048 32.2519 174.067 33.003 174.106 33.4267C174.183 35.7763 174.921 37.8178 176.319 39.5511C177.755 41.2459 179.793 42.0933 182.433 42.0933Z" fill="#39027A"/>
</svg>
