<svg width="251" height="80" viewBox="0 0 251 80" fill="none" xmlns="http://www.w3.org/2000/svg">
<path d="M68 35C68 53.7777 52.7777 69 34 69C15.2223 69 0 53.7777 0 35C0 26.2936 3.27249 18.3514 8.65455 12.3366V35.6182H8.66194C8.99017 49.3305 20.2087 60.3455 34 60.3455C47.9979 60.3455 59.3455 48.9979 59.3455 35C59.3455 21.0021 47.9979 9.65455 34 9.65455C28.1826 9.65455 22.823 11.6144 18.5455 14.9099V4.70728C23.1822 2.33698 28.435 1 34 1C52.7777 1 68 16.2223 68 35Z" fill="#39027A"/>
<path d="M50.6909 35C50.6909 44.2181 43.2181 51.6909 34 51.6909C24.7819 51.6909 17.3091 44.2181 17.3091 35C17.3091 25.7819 24.7819 18.3091 34 18.3091C43.2181 18.3091 50.6909 25.7819 50.6909 35Z" fill="#03C2A7"/>
<path d="M95.9525 63.88C89.6165 63.88 84.7765 61.6507 81.4325 57.192V60.976C81.4325 61.5627 81.2271 62.0614 80.8165 62.472C80.4645 62.824 79.9951 63 79.4085 63H75.7125C75.1258 63 74.6271 62.824 74.2165 62.472C73.8645 62.0614 73.6885 61.5627 73.6885 60.976V2.54402C73.6885 1.89869 73.8645 1.40002 74.2165 1.04802C74.6271 0.696019 75.1258 0.52002 75.7125 0.52002H79.6725C80.2591 0.52002 80.7285 0.725354 81.0805 1.13602C81.4911 1.48802 81.6965 1.95735 81.6965 2.54402V22.872C84.9818 18.5307 89.7338 16.36 95.9525 16.36C102.112 16.36 106.718 18.384 109.768 22.432C112.878 26.4214 114.52 31.4374 114.696 37.48C114.755 38.1254 114.784 39.0054 114.784 40.12C114.784 41.2347 114.755 42.1147 114.696 42.76C114.52 48.8027 112.878 53.848 109.768 57.896C106.718 61.8854 102.112 63.88 95.9525 63.88ZM94.2805 57.016C98.5045 57.016 101.584 55.696 103.52 53.056C105.456 50.416 106.512 46.9547 106.688 42.672C106.747 42.0854 106.776 41.2347 106.776 40.12C106.776 28.856 102.611 23.224 94.2805 23.224C90.2911 23.224 87.2111 24.544 85.0405 27.184C82.9285 29.7654 81.8138 32.8454 81.6965 36.424C81.6378 37.0694 81.6085 38.2134 81.6085 39.856C81.6085 41.44 81.6378 42.5547 81.6965 43.2C81.8138 46.9547 82.8991 50.2107 84.9525 52.968C87.0645 55.6667 90.1738 57.016 94.2805 57.016Z" fill="#39027A"/>
<path d="M132.802 63.88C129.928 63.88 127.258 63.2934 124.794 62.12C122.389 60.9467 120.453 59.3627 118.986 57.368C117.578 55.3147 116.874 53.056 116.874 50.592C116.874 46.72 118.458 43.552 121.626 41.088C124.794 38.624 129.106 36.9814 134.562 36.16L147.762 34.312V31.76C147.762 25.7174 144.272 22.696 137.29 22.696C134.592 22.696 132.421 23.2534 130.778 24.368C129.136 25.424 127.933 26.6854 127.17 28.152C126.936 28.7387 126.672 29.1494 126.378 29.384C126.144 29.56 125.792 29.648 125.322 29.648H121.89C121.362 29.648 120.893 29.472 120.482 29.12C120.13 28.7094 119.954 28.24 119.954 27.712C119.954 26.3627 120.57 24.808 121.802 23.048C123.093 21.2294 125.058 19.6747 127.698 18.384C130.338 17.0347 133.565 16.36 137.378 16.36C143.949 16.36 148.642 17.8854 151.458 20.936C154.333 23.9867 155.77 27.8 155.77 32.376V60.976C155.77 61.5627 155.565 62.0614 155.154 62.472C154.802 62.824 154.333 63 153.746 63H149.874C149.288 63 148.818 62.824 148.466 62.472C148.114 62.0614 147.938 61.5627 147.938 60.976V57.104C146.648 59.04 144.77 60.6534 142.306 61.944C139.842 63.2347 136.674 63.88 132.802 63.88ZM134.562 57.456C138.434 57.456 141.602 56.1947 144.066 53.672C146.53 51.1494 147.762 47.4827 147.762 42.672V40.208L137.466 41.704C133.242 42.2907 130.045 43.288 127.874 44.696C125.704 46.104 124.618 47.864 124.618 49.976C124.618 52.3814 125.586 54.2294 127.522 55.52C129.517 56.8107 131.864 57.456 134.562 57.456Z" fill="#39027A"/>
<path d="M164.905 79.72C164.319 79.72 163.82 79.544 163.409 79.192C163.057 78.84 162.881 78.3414 162.881 77.696V19.264C162.881 18.6187 163.057 18.12 163.409 17.768C163.82 17.416 164.319 17.24 164.905 17.24H168.601C169.247 17.24 169.745 17.416 170.097 17.768C170.449 18.12 170.625 18.6187 170.625 19.264V23.136C174.028 18.6187 178.868 16.36 185.145 16.36C191.305 16.36 195.911 18.3254 198.961 22.256C202.071 26.128 203.713 31.0854 203.889 37.128C203.948 37.7734 203.977 38.7707 203.977 40.12C203.977 41.4694 203.948 42.4667 203.889 43.112C203.713 49.096 202.071 54.0534 198.961 57.984C195.911 61.9147 191.305 63.88 185.145 63.88C178.868 63.88 174.116 61.6507 170.889 57.192V77.696C170.889 78.2827 170.684 78.752 170.273 79.104C169.921 79.5147 169.452 79.72 168.865 79.72H164.905ZM183.473 57.016C187.697 57.016 190.777 55.696 192.713 53.056C194.649 50.416 195.705 46.9547 195.881 42.672C195.94 42.0854 195.969 41.2347 195.969 40.12C195.969 28.856 191.804 23.224 183.473 23.224C179.367 23.224 176.257 24.6027 174.145 27.36C172.092 30.0587 171.007 33.256 170.889 36.952C170.831 37.5974 170.801 38.7414 170.801 40.384C170.801 42.0267 170.831 43.1707 170.889 43.816C171.007 47.3947 172.121 50.504 174.233 53.144C176.404 55.7254 179.484 57.016 183.473 57.016Z" fill="#39027A"/>
<path d="M211.435 79.72C210.849 79.72 210.35 79.544 209.939 79.192C209.587 78.84 209.411 78.3414 209.411 77.696V19.264C209.411 18.6187 209.587 18.12 209.939 17.768C210.35 17.416 210.849 17.24 211.435 17.24H215.131C215.777 17.24 216.275 17.416 216.627 17.768C216.979 18.12 217.155 18.6187 217.155 19.264V23.136C220.558 18.6187 225.398 16.36 231.675 16.36C237.835 16.36 242.441 18.3254 245.491 22.256C248.601 26.128 250.243 31.0854 250.419 37.128C250.478 37.7734 250.507 38.7707 250.507 40.12C250.507 41.4694 250.478 42.4667 250.419 43.112C250.243 49.096 248.601 54.0534 245.491 57.984C242.441 61.9147 237.835 63.88 231.675 63.88C225.398 63.88 220.646 61.6507 217.419 57.192V77.696C217.419 78.2827 217.214 78.752 216.803 79.104C216.451 79.5147 215.982 79.72 215.395 79.72H211.435ZM230.003 57.016C234.227 57.016 237.307 55.696 239.243 53.056C241.179 50.416 242.235 46.9547 242.411 42.672C242.47 42.0854 242.499 41.2347 242.499 40.12C242.499 28.856 238.334 23.224 230.003 23.224C225.897 23.224 222.787 24.6027 220.675 27.36C218.622 30.0587 217.537 33.256 217.419 36.952C217.361 37.5974 217.331 38.7414 217.331 40.384C217.331 42.0267 217.361 43.1707 217.419 43.816C217.537 47.3947 218.651 50.504 220.763 53.144C222.934 55.7254 226.014 57.016 230.003 57.016Z" fill="#39027A"/>
</svg>
