<svg width="256" height="79" viewBox="0 0 256 79" fill="none" xmlns="http://www.w3.org/2000/svg">
<path d="M66 34C66 51.1208 52.1208 65 35 65C17.8792 65 4 51.1208 4 34C4 26.0618 6.98374 18.8204 11.8909 13.3363V34.5636H11.8976C12.1969 47.066 22.4256 57.1091 35 57.1091C47.7628 57.1091 58.1091 46.7628 58.1091 34C58.1091 21.2372 47.7628 10.8909 35 10.8909C29.6959 10.8909 24.8092 12.6778 20.9091 15.6825V6.38017C25.1367 4.21901 29.926 3 35 3C52.1208 3 66 16.8792 66 34Z" fill="#39027A"/>
<path d="M50.2186 33.9999C50.2186 42.4047 43.4052 49.2181 35.0004 49.2181C26.5956 49.2181 19.7822 42.4047 19.7822 33.9999C19.7822 25.5952 26.5956 18.7817 35.0004 18.7817C43.4052 18.7817 50.2186 25.5952 50.2186 33.9999Z" fill="#03C2A7"/>
<path d="M97.2868 62.9333C90.9443 62.9333 86.0994 60.719 82.7519 56.2903V60.0489C82.7519 60.6316 82.5464 61.1269 82.1353 61.5348C81.7829 61.8844 81.3131 62.0592 80.7259 62.0592H77.0261C76.4388 62.0592 75.9396 61.8844 75.5285 61.5348C75.1762 61.1269 75 60.6316 75 60.0489V2.01037C75 1.36938 75.1762 0.874074 75.5285 0.524443C75.9396 0.174814 76.4388 0 77.0261 0H80.9901C81.5774 0 82.0472 0.203951 82.3996 0.611854C82.8107 0.961482 83.0162 1.42765 83.0162 2.01037V22.2015C86.3049 17.8894 91.0618 15.7333 97.2868 15.7333C103.453 15.7333 108.063 17.7437 111.117 21.7644C114.229 25.7269 115.874 30.7091 116.05 36.7111C116.109 37.3521 116.138 38.2262 116.138 39.3333C116.138 40.4405 116.109 41.3145 116.05 41.9555C115.874 47.9575 114.229 52.9689 111.117 56.9896C108.063 60.9521 103.453 62.9333 97.2868 62.9333ZM95.6131 56.1155C99.8414 56.1155 102.925 54.8044 104.863 52.1822C106.801 49.56 107.858 46.1219 108.034 41.8681C108.093 41.2854 108.122 40.4405 108.122 39.3333C108.122 28.1452 103.952 22.5511 95.6131 22.5511C91.6197 22.5511 88.5365 23.8622 86.3636 26.4844C84.2495 29.0484 83.1337 32.1076 83.0162 35.6622C82.9575 36.3032 82.9281 37.4395 82.9281 39.0711C82.9281 40.6444 82.9575 41.7516 83.0162 42.3926C83.1337 46.122 84.2201 49.356 86.2755 52.0948C88.3897 54.7753 91.5022 56.1155 95.6131 56.1155Z" fill="#39027A"/>
<path d="M134.175 62.9333C131.297 62.9333 128.625 62.3506 126.158 61.1852C123.751 60.0197 121.813 58.4464 120.344 56.4652C118.935 54.4256 118.23 52.1822 118.23 49.7348C118.23 45.8889 119.816 42.7422 122.987 40.2948C126.158 37.8474 130.475 36.2158 135.936 35.4L149.15 33.5644V31.0296C149.15 25.0276 145.656 22.0267 138.667 22.0267C135.966 22.0267 133.793 22.5802 132.149 23.6874C130.504 24.7363 129.3 25.9891 128.537 27.4459C128.302 28.0286 128.038 28.4365 127.744 28.6696C127.509 28.8444 127.157 28.9318 126.687 28.9318H123.251C122.723 28.9318 122.253 28.757 121.842 28.4074C121.49 27.9995 121.313 27.5333 121.313 27.0089C121.313 25.6686 121.93 24.1244 123.163 22.3763C124.455 20.5699 126.423 19.0257 129.065 17.7437C131.708 16.4034 134.938 15.7333 138.755 15.7333C145.333 15.7333 150.031 17.2484 152.85 20.2785C155.727 23.3086 157.166 27.0963 157.166 31.6415V60.0489C157.166 60.6316 156.961 61.1269 156.549 61.5348C156.197 61.8844 155.727 62.0592 155.14 62.0592H151.264C150.677 62.0592 150.207 61.8844 149.855 61.5348C149.502 61.1269 149.326 60.6316 149.326 60.0489V56.2029C148.034 58.1259 146.155 59.7284 143.688 61.0103C141.222 62.2923 138.051 62.9333 134.175 62.9333ZM135.936 56.5526C139.812 56.5526 142.984 55.2997 145.45 52.794C147.917 50.2884 149.15 46.6464 149.15 41.8681V39.4207L138.843 40.9066C134.615 41.4894 131.414 42.48 129.242 43.8785C127.069 45.277 125.982 47.0252 125.982 49.1229C125.982 51.5121 126.951 53.3476 128.889 54.6296C130.886 55.9116 133.235 56.5526 135.936 56.5526Z" fill="#39027A"/>
<path d="M166.31 78.6666C165.723 78.6666 165.224 78.4918 164.813 78.1422C164.46 77.7925 164.284 77.2972 164.284 76.6563V18.6178C164.284 17.9768 164.46 17.4815 164.813 17.1318C165.224 16.7822 165.723 16.6074 166.31 16.6074H170.01C170.656 16.6074 171.155 16.7822 171.508 17.1318C171.86 17.4815 172.036 17.9768 172.036 18.6178V22.4637C175.442 17.9768 180.287 15.7333 186.571 15.7333C192.737 15.7333 197.347 17.6854 200.401 21.5896C203.514 25.4355 205.158 30.3595 205.334 36.3615C205.393 37.0024 205.422 37.9931 205.422 39.3333C205.422 40.6736 205.393 41.6642 205.334 42.3052C205.158 48.2489 203.514 53.1728 200.401 57.077C197.347 60.9812 192.737 62.9333 186.571 62.9333C180.287 62.9333 175.53 60.719 172.3 56.2903V76.6563C172.3 77.239 172.095 77.7051 171.684 78.0548C171.331 78.4627 170.862 78.6666 170.274 78.6666H166.31ZM184.897 56.1155C189.126 56.1155 192.209 54.8044 194.147 52.1822C196.085 49.56 197.142 46.1219 197.318 41.8681C197.377 41.2854 197.406 40.4405 197.406 39.3333C197.406 28.1452 193.237 22.5511 184.897 22.5511C180.786 22.5511 177.674 23.9205 175.56 26.6592C173.504 29.3397 172.418 32.5155 172.3 36.1866C172.242 36.8276 172.212 37.9639 172.212 39.5955C172.212 41.2271 172.242 42.3634 172.3 43.0044C172.418 46.559 173.534 49.6474 175.648 52.2696C177.821 54.8335 180.904 56.1155 184.897 56.1155Z" fill="#39027A"/>
<path d="M212.888 78.6666C212.301 78.6666 211.802 78.4918 211.39 78.1422C211.038 77.7925 210.862 77.2972 210.862 76.6563V18.6178C210.862 17.9768 211.038 17.4815 211.39 17.1318C211.802 16.7822 212.301 16.6074 212.888 16.6074H216.588C217.234 16.6074 217.733 16.7822 218.085 17.1318C218.438 17.4815 218.614 17.9768 218.614 18.6178V22.4637C222.02 17.9768 226.865 15.7333 233.149 15.7333C239.315 15.7333 243.925 17.6854 246.979 21.5896C250.091 25.4355 251.736 30.3595 251.912 36.3615C251.971 37.0024 252 37.9931 252 39.3333C252 40.6736 251.971 41.6642 251.912 42.3052C251.736 48.2489 250.091 53.1728 246.979 57.077C243.925 60.9812 239.315 62.9333 233.149 62.9333C226.865 62.9333 222.108 60.719 218.878 56.2903V76.6563C218.878 77.239 218.673 77.7051 218.261 78.0548C217.909 78.4627 217.439 78.6666 216.852 78.6666H212.888ZM231.475 56.1155C235.703 56.1155 238.786 54.8044 240.724 52.1822C242.662 49.56 243.72 46.1219 243.896 41.8681C243.954 41.2854 243.984 40.4405 243.984 39.3333C243.984 28.1452 239.814 22.5511 231.475 22.5511C227.364 22.5511 224.252 23.9205 222.137 26.6592C220.082 29.3397 218.996 32.5155 218.878 36.1866C218.819 36.8276 218.79 37.9639 218.79 39.5955C218.79 41.2271 218.819 42.3634 218.878 43.0044C218.996 46.559 220.111 49.6474 222.226 52.2696C224.398 54.8335 227.482 56.1155 231.475 56.1155Z" fill="#39027A"/>
</svg>
