<svg width="449" height="140" viewBox="0 0 449 140" fill="none" xmlns="http://www.w3.org/2000/svg">
<path d="M143.855 70C143.855 108.66 113.603 140 76.2867 140C38.97 140 8.71875 108.66 8.71875 70C8.71875 52.075 15.2222 35.7235 25.9179 23.34V71.2727H25.9326C26.5848 99.5039 48.8794 122.182 76.2867 122.182C104.105 122.182 126.656 98.8192 126.656 70C126.656 41.1808 104.105 17.8182 76.2867 17.8182C64.7259 17.8182 54.0748 21.8532 45.574 28.638V7.63263C54.7886 2.75261 65.2274 0 76.2867 0C113.603 0 143.855 31.3401 143.855 70Z" fill="#39027A"/>
<path d="M109.457 69.9999C109.457 88.9784 94.606 104.363 76.2869 104.363C57.9678 104.363 43.1172 88.9784 43.1172 69.9999C43.1172 51.0214 57.9678 35.6362 76.2869 35.6362C94.606 35.6362 109.457 51.0214 109.457 69.9999Z" fill="#03C2A7"/>
<path d="M219.251 69.7192C219.251 74.2109 218.339 78.7401 216.516 83.3066C214.008 89.5951 210.285 94.4985 205.346 98.017C200.406 101.461 194.556 103.183 187.793 103.183C183.234 103.183 179.282 102.434 175.939 100.937C172.672 99.4394 169.518 97.0064 166.479 93.6376V101.161H152.573V18.0645H167.732V44.4533C172.976 39.2878 179.548 36.7051 187.451 36.7051C196.493 36.7051 204.054 39.999 210.133 46.5869C216.212 53.0998 219.251 60.8106 219.251 69.7192ZM204.092 69.8315C204.092 64.4414 202.344 59.8749 198.849 56.1318C195.429 52.3138 191.022 50.4048 185.627 50.4048C180.384 50.4048 175.939 52.2389 172.292 55.9072C168.644 59.5754 166.821 63.9923 166.821 69.1577C166.821 74.8472 168.568 79.6758 172.064 83.6435C175.559 87.5363 180.156 89.4828 185.855 89.4828C191.326 89.4828 195.733 87.6112 199.077 83.8681C202.42 80.0502 204.092 75.3713 204.092 69.8315Z" fill="#39027A"/>
<path d="M292.329 101.161H278.424V93.413C275.916 96.3326 272.573 98.6908 268.394 100.487C264.291 102.284 260.263 103.183 256.312 103.183C247.118 103.183 239.671 99.8886 233.972 93.3007C228.349 86.7129 225.538 78.8149 225.538 69.6069C225.538 60.4738 228.501 52.7255 234.428 46.3623C240.431 39.9241 248.03 36.7051 257.224 36.7051C264.215 36.7051 270.445 39.1755 275.916 44.1164C277.056 45.2393 277.816 46.1003 278.196 46.6992H278.424V38.8386H292.329V101.161ZM272.839 83.7558C276.258 79.9379 277.968 75.2964 277.968 69.8315C277.968 64.3666 276.258 59.7626 272.839 56.0195C269.42 52.2764 264.974 50.4048 259.503 50.4048C254.032 50.4048 249.511 52.3512 245.94 56.2441C242.445 60.1369 240.697 64.8157 240.697 70.2807C240.697 75.5959 242.483 80.125 246.054 83.8681C249.701 87.6112 254.184 89.4828 259.503 89.4828C264.974 89.4828 269.42 87.5738 272.839 83.7558Z" fill="#39027A"/>
<path d="M360.393 46.4746C366.396 52.9127 369.397 60.6609 369.397 69.7192C369.397 78.7775 366.358 86.638 360.279 93.3007C354.276 99.8886 346.753 103.183 337.711 103.183C333.608 103.183 330.074 102.546 327.111 101.274C324.223 100.076 321.26 98.0545 318.221 95.2097V121.935H303.061V38.8386H316.967V46.1377H317.195C322.286 39.8493 329.125 36.7051 337.711 36.7051C346.829 36.7051 354.39 39.9616 360.393 46.4746ZM348.881 83.6435C352.452 79.6758 354.238 75.1093 354.238 69.9438C354.238 64.7783 352.49 60.2492 348.995 56.3563C345.5 52.3887 341.168 50.4048 336.001 50.4048C330.606 50.4048 326.123 52.3512 322.552 56.2441C319.056 60.062 317.309 64.6286 317.309 69.9438C317.309 73.9115 318.259 77.4674 320.158 80.6116C322.058 83.7558 324.793 86.114 328.365 87.6861C330.796 88.8839 333.266 89.4828 335.773 89.4828C341.016 89.4828 345.386 87.5363 348.881 83.6435Z" fill="#39027A"/>
<path d="M435.637 46.4746C441.64 52.9127 444.641 60.6609 444.641 69.7192C444.641 78.7775 441.602 86.638 435.523 93.3007C429.52 99.8886 421.997 103.183 412.955 103.183C408.852 103.183 405.318 102.546 402.355 101.274C399.467 100.076 396.504 98.0545 393.465 95.2097V121.935H378.305V38.8386H392.211V46.1377H392.439C397.53 39.8493 404.369 36.7051 412.955 36.7051C422.073 36.7051 429.634 39.9616 435.637 46.4746ZM424.125 83.6435C427.696 79.6758 429.482 75.1093 429.482 69.9438C429.482 64.7783 427.734 60.2492 424.239 56.3563C420.744 52.3887 416.412 50.4048 411.245 50.4048C405.85 50.4048 401.367 52.3512 397.796 56.2441C394.3 60.062 392.553 64.6286 392.553 69.9438C392.553 73.9115 393.503 77.4674 395.402 80.6116C397.302 83.7558 400.037 86.114 403.609 87.6861C406.04 88.8839 408.51 89.4828 411.017 89.4828C416.26 89.4828 420.63 87.5363 424.125 83.6435Z" fill="#39027A"/>
</svg>
