<svg width="375" height="121" viewBox="0 0 375 121" fill="none" xmlns="http://www.w3.org/2000/svg">
<circle cx="45" cy="60" r="18.75" fill="#03C2A7"/>
<path d="M90 60C90 84.8528 69.8528 105 45 105C20.1472 105 0 84.8528 0 60C0 46.6725 5.79376 34.6982 15 26.4584V60C15 76.5685 28.4315 90 45 90C61.5685 90 75 76.5685 75 60C75 43.4315 61.5685 30 45 30C39.5357 30 34.4126 31.4609 30 34.0135V17.5606C34.6917 15.9023 39.7405 15 45 15C69.8528 15 90 35.1472 90 60Z" fill="#39027A"/>
<path d="M0 0H15V60H0V0Z" fill="#39027A"/>
<path d="M95 60C95 35.1472 115.147 15 140 15C164.853 15 185 35.1472 185 60C185 73.3275 179.206 85.3018 170 93.5416L170 60C170 43.4315 156.569 30 140 30C123.431 30 110 43.4314 110 60C110 76.5685 123.431 90 140 90C145.464 90 150.587 88.5391 155 85.9865L155 102.439C150.308 104.098 145.26 105 140 105C115.147 105 95 84.8528 95 60Z" fill="#39027A"/>
<path d="M185 105L170 105L170 60L185 60L185 105Z" fill="#39027A"/>
<path d="M280 61C280 36.1472 259.853 16 235 16C210.147 16 190 36.1472 190 61C190 74.3275 195.794 86.3018 205 94.5416L205 61C205 44.4315 218.431 31 235 31C251.569 31 265 44.4314 265 61C265 77.5685 251.569 91 235 91C229.536 91 224.413 89.5391 220 86.9865L220 103.439C224.692 105.098 229.74 106 235 106C259.853 106 280 85.8528 280 61Z" fill="#39027A"/>
<path d="M190 121L205 121L205 61L190 61L190 121Z" fill="#39027A"/>
<path d="M375 61C375 36.1472 354.853 16 330 16C305.147 16 285 36.1472 285 61C285 74.3275 290.794 86.3018 300 94.5416L300 61C300 44.4315 313.431 31 330 31C346.569 31 360 44.4314 360 61C360 77.5685 346.569 91 330 91C324.536 91 319.413 89.5391 315 86.9865L315 103.439C319.692 105.098 324.74 106 330 106C354.853 106 375 85.8528 375 61Z" fill="#39027A"/>
<path d="M285 121L300 121L300 61L285 61L285 121Z" fill="#39027A"/>
</svg>
