<svg width="759" height="289" viewBox="0 0 759 289" fill="none" xmlns="http://www.w3.org/2000/svg">
<g clip-path="url(#clip0_2125_4758)">
<path fill-rule="evenodd" clip-rule="evenodd" d="M91 235C140.706 235 181 194.706 181 145C181 95.2944 140.706 55 91 55C41.2944 55 1 95.2944 1 145C1 194.706 41.2944 235 91 235ZM91 210C126.899 210 156 180.899 156 145C156 109.101 126.899 80 91 80C55.1015 80 26 109.101 26 145C26 180.899 55.1015 210 91 210Z" fill="#39027A"/>
<path fill-rule="evenodd" clip-rule="evenodd" d="M279 235C328.706 235 369 194.706 369 145C369 95.2944 328.706 55 279 55C229.294 55 189 95.2944 189 145C189 194.706 229.294 235 279 235ZM279 210C314.899 210 344 180.899 344 145C344 109.101 314.899 80 279 80C243.101 80 214 109.101 214 145C214 180.899 243.101 210 279 210Z" fill="#39027A"/>
<path fill-rule="evenodd" clip-rule="evenodd" d="M476 235C525.706 235 566 194.706 566 145C566 95.2944 525.706 55 476 55C426.294 55 386 95.2944 386 145C386 194.706 426.294 235 476 235ZM476 210C511.899 210 541 180.899 541 145C541 109.101 511.899 80 476 80C440.101 80 411 109.101 411 145C411 180.899 440.101 210 476 210Z" fill="#39027A"/>
<path fill-rule="evenodd" clip-rule="evenodd" d="M669 235C718.706 235 759 194.706 759 145C759 95.2944 718.706 55 669 55C619.294 55 579 95.2944 579 145C579 194.706 619.294 235 669 235ZM669 210C704.899 210 734 180.899 734 145C734 109.101 704.899 80 669 80C633.101 80 604 109.101 604 145C604 180.899 633.101 210 669 210Z" fill="#39027A"/>
<rect width="24" height="234" fill="#39027A"/>
<rect x="345" y="55" width="24" height="179" fill="#39027A"/>
<rect x="386" y="55" width="24" height="234" fill="#39027A"/>
<rect x="579" y="55" width="24" height="234" fill="#39027A"/>
<circle cx="91" cy="145" r="45" fill="#03C2A7"/>
</g>
<defs>
<clipPath id="clip0_2125_4758">
<rect width="759" height="289" fill="white"/>
</clipPath>
</defs>
</svg>
