<svg width="215" height="68" viewBox="0 0 215 68" fill="none" xmlns="http://www.w3.org/2000/svg">
<path d="M68 34C68 52.7777 52.7777 68 34 68C15.2223 68 0 52.7777 0 34C0 25.2936 3.27249 17.3514 8.65455 11.3366V34.6182H8.66194C8.99017 48.3305 20.2087 59.3455 34 59.3455C47.9979 59.3455 59.3455 47.9979 59.3455 34C59.3455 20.0021 47.9979 8.65455 34 8.65455C28.1826 8.65455 22.823 10.6144 18.5455 13.9099V3.70728C23.1822 1.33698 28.435 0 34 0C52.7777 0 68 15.2223 68 34Z" fill="#39027A"/>
<path d="M50.6914 34C50.6914 43.2181 43.2186 50.6909 34.0005 50.6909C24.7823 50.6909 17.3096 43.2181 17.3096 34C17.3096 24.7819 24.7823 17.3091 34.0005 17.3091C43.2186 17.3091 50.6914 24.7819 50.6914 34Z" fill="#03C2A7"/>
<path d="M101.243 55.4C96.6204 55.4 93.0894 53.7674 90.6497 50.5022V53.2733C90.6497 53.703 90.4999 54.0681 90.2003 54.3689C89.9435 54.6267 89.6011 54.7556 89.1731 54.7556H86.4766C86.0486 54.7556 85.6848 54.6267 85.3852 54.3689C85.1284 54.0681 85 53.703 85 53.2733V10.4822C85 10.0096 85.1284 9.64445 85.3852 9.38667C85.6848 9.12889 86.0486 9 86.4766 9H89.3657C89.7937 9 90.1361 9.15037 90.3929 9.45111C90.6925 9.70889 90.8423 10.0526 90.8423 10.4822V25.3689C93.2392 22.1896 96.706 20.6 101.243 20.6C105.737 20.6 109.097 22.0822 111.323 25.0467C113.591 27.9681 114.789 31.6415 114.918 36.0667C114.961 36.5393 114.982 37.1837 114.982 38C114.982 38.8163 114.961 39.4607 114.918 39.9333C114.789 44.3585 113.591 48.0533 111.323 51.0178C109.097 53.9393 105.737 55.4 101.243 55.4ZM100.023 50.3733C103.105 50.3733 105.352 49.4067 106.764 47.4733C108.177 45.54 108.947 43.0052 109.075 39.8689C109.118 39.4393 109.14 38.8163 109.14 38C109.14 29.7511 106.101 25.6267 100.023 25.6267C97.1126 25.6267 94.8656 26.5933 93.282 28.5267C91.7411 30.417 90.9279 32.6726 90.8423 35.2933C90.7995 35.7659 90.7781 36.6037 90.7781 37.8067C90.7781 38.9667 90.7995 39.783 90.8423 40.2556C90.9279 43.0052 91.7197 45.3896 93.2178 47.4089C94.7586 49.3852 97.027 50.3733 100.023 50.3733Z" fill="#39027A"/>
<path d="M128.127 55.4C126.03 55.4 124.083 54.9704 122.285 54.1111C120.53 53.2519 119.118 52.0919 118.048 50.6311C117.02 49.1274 116.507 47.4733 116.507 45.6689C116.507 42.8333 117.662 40.5133 119.974 38.7089C122.285 36.9044 125.431 35.7015 129.411 35.1L139.041 33.7467V31.8778C139.041 27.4526 136.495 25.24 131.401 25.24C129.433 25.24 127.849 25.6481 126.651 26.4644C125.452 27.2378 124.575 28.1615 124.018 29.2356C123.847 29.6652 123.655 29.9659 123.441 30.1378C123.269 30.2667 123.013 30.3311 122.67 30.3311H120.166C119.781 30.3311 119.439 30.2022 119.139 29.9444C118.882 29.6437 118.754 29.3 118.754 28.9133C118.754 27.9252 119.203 26.7867 120.102 25.4978C121.044 24.1659 122.478 23.0274 124.404 22.0822C126.33 21.0941 128.684 20.6 131.466 20.6C136.259 20.6 139.683 21.717 141.738 23.9511C143.835 26.1852 144.884 28.9778 144.884 32.3289V53.2733C144.884 53.703 144.734 54.0681 144.434 54.3689C144.178 54.6267 143.835 54.7556 143.407 54.7556H140.582C140.154 54.7556 139.812 54.6267 139.555 54.3689C139.298 54.0681 139.17 53.703 139.17 53.2733V50.4378C138.228 51.8556 136.859 53.037 135.061 53.9822C133.263 54.9274 130.952 55.4 128.127 55.4ZM129.411 50.6956C132.236 50.6956 134.547 49.7719 136.345 47.9244C138.143 46.077 139.041 43.3919 139.041 39.8689V38.0644L131.53 39.16C128.448 39.5896 126.116 40.32 124.532 41.3511C122.948 42.3822 122.157 43.6711 122.157 45.2178C122.157 46.9793 122.863 48.3326 124.275 49.2778C125.73 50.223 127.442 50.6956 129.411 50.6956Z" fill="#39027A"/>
<path d="M151.548 67C151.12 67 150.756 66.8711 150.457 66.6133C150.2 66.3556 150.072 65.9904 150.072 65.5178V22.7267C150.072 22.2541 150.2 21.8889 150.457 21.6311C150.756 21.3733 151.12 21.2444 151.548 21.2444H154.245C154.715 21.2444 155.079 21.3733 155.336 21.6311C155.593 21.8889 155.721 22.2541 155.721 22.7267V25.5622C158.204 22.2541 161.735 20.6 166.314 20.6C170.809 20.6 174.168 22.0393 176.394 24.9178C178.663 27.7533 179.861 31.3837 179.989 35.8089C180.032 36.2815 180.054 37.0119 180.054 38C180.054 38.9881 180.032 39.7185 179.989 40.1911C179.861 44.5733 178.663 48.2037 176.394 51.0822C174.168 53.9607 170.809 55.4 166.314 55.4C161.735 55.4 158.268 53.7674 155.914 50.5022V65.5178C155.914 65.9474 155.764 66.2911 155.464 66.5489C155.208 66.8496 154.865 67 154.437 67H151.548ZM165.095 50.3733C168.176 50.3733 170.423 49.4067 171.836 47.4733C173.248 45.54 174.019 43.0052 174.147 39.8689C174.19 39.4393 174.211 38.8163 174.211 38C174.211 29.7511 171.172 25.6267 165.095 25.6267C162.099 25.6267 159.83 26.6363 158.289 28.6556C156.791 30.6319 155.999 32.9733 155.914 35.68C155.871 36.1526 155.85 36.9904 155.85 38.1933C155.85 39.3963 155.871 40.2341 155.914 40.7067C155.999 43.3274 156.813 45.6044 158.354 47.5378C159.937 49.4281 162.184 50.3733 165.095 50.3733Z" fill="#39027A"/>
<path d="M185.495 67C185.067 67 184.703 66.8711 184.403 66.6133C184.146 66.3556 184.018 65.9904 184.018 65.5178V22.7267C184.018 22.2541 184.146 21.8889 184.403 21.6311C184.703 21.3733 185.067 21.2444 185.495 21.2444H188.191C188.662 21.2444 189.026 21.3733 189.282 21.6311C189.539 21.8889 189.668 22.2541 189.668 22.7267V25.5622C192.15 22.2541 195.681 20.6 200.261 20.6C204.755 20.6 208.115 22.0393 210.341 24.9178C212.609 27.7533 213.807 31.3837 213.936 35.8089C213.979 36.2815 214 37.0119 214 38C214 38.9881 213.979 39.7185 213.936 40.1911C213.807 44.5733 212.609 48.2037 210.341 51.0822C208.115 53.9607 204.755 55.4 200.261 55.4C195.681 55.4 192.214 53.7674 189.86 50.5022V65.5178C189.86 65.9474 189.71 66.2911 189.411 66.5489C189.154 66.8496 188.812 67 188.384 67H185.495ZM199.041 50.3733C202.123 50.3733 204.37 49.4067 205.782 47.4733C207.195 45.54 207.965 43.0052 208.093 39.8689C208.136 39.4393 208.158 38.8163 208.158 38C208.158 29.7511 205.119 25.6267 199.041 25.6267C196.045 25.6267 193.777 26.6363 192.236 28.6556C190.738 30.6319 189.946 32.9733 189.86 35.68C189.817 36.1526 189.796 36.9904 189.796 38.1933C189.796 39.3963 189.817 40.2341 189.86 40.7067C189.946 43.3274 190.759 45.6044 192.3 47.5378C193.884 49.4281 196.131 50.3733 199.041 50.3733Z" fill="#39027A"/>
</svg>
