<svg width="216" height="68" viewBox="0 0 216 68" fill="none" xmlns="http://www.w3.org/2000/svg">
<path d="M68 34C68 52.7777 52.7777 68 34 68C15.2223 68 0 52.7777 0 34C0 25.2936 3.27249 17.3514 8.65455 11.3366V34.6182H8.66194C8.99017 48.3305 20.2087 59.3455 34 59.3455C47.9979 59.3455 59.3455 47.9979 59.3455 34C59.3455 20.0021 47.9979 8.65455 34 8.65455C28.1826 8.65455 22.823 10.6144 18.5455 13.9099V3.70728C23.1822 1.33698 28.435 0 34 0C52.7777 0 68 15.2223 68 34Z" fill="#39027A"/>
<path d="M50.6909 34C50.6909 43.2181 43.2181 50.6909 34 50.6909C24.7819 50.6909 17.3091 43.2181 17.3091 34C17.3091 24.7819 24.7819 17.3091 34 17.3091C43.2181 17.3091 50.6909 24.7819 50.6909 34Z" fill="#03C2A7"/>
<path d="M103.243 51.4C98.6204 51.4 95.0894 49.7674 92.6497 46.5022V49.2733C92.6497 49.703 92.4999 50.0681 92.2003 50.3689C91.9435 50.6267 91.6011 50.7556 91.1731 50.7556H88.4766C88.0486 50.7556 87.6848 50.6267 87.3852 50.3689C87.1284 50.0681 87 49.703 87 49.2733V6.48222C87 6.00963 87.1284 5.64445 87.3852 5.38667C87.6848 5.12889 88.0486 5 88.4766 5H91.3657C91.7937 5 92.1361 5.15037 92.3929 5.45111C92.6925 5.70889 92.8423 6.05259 92.8423 6.48222V21.3689C95.2392 18.1896 98.706 16.6 103.243 16.6C107.737 16.6 111.097 18.0822 113.323 21.0467C115.591 23.9681 116.789 27.6415 116.918 32.0667C116.961 32.5393 116.982 33.1837 116.982 34C116.982 34.8163 116.961 35.4607 116.918 35.9333C116.789 40.3585 115.591 44.0533 113.323 47.0178C111.097 49.9393 107.737 51.4 103.243 51.4ZM102.023 46.3733C105.105 46.3733 107.352 45.4067 108.764 43.4733C110.177 41.54 110.947 39.0052 111.075 35.8689C111.118 35.4393 111.14 34.8163 111.14 34C111.14 25.7511 108.101 21.6267 102.023 21.6267C99.1126 21.6267 96.8656 22.5933 95.282 24.5267C93.7411 26.417 92.9279 28.6726 92.8423 31.2933C92.7995 31.7659 92.7781 32.6037 92.7781 33.8067C92.7781 34.9667 92.7995 35.783 92.8423 36.2556C92.9279 39.0052 93.7197 41.3896 95.2178 43.4089C96.7586 45.3852 99.027 46.3733 102.023 46.3733Z" fill="#39027A"/>
<path d="M130.127 51.4C128.03 51.4 126.083 50.9704 124.285 50.1111C122.53 49.2518 121.118 48.0919 120.048 46.6311C119.02 45.1274 118.507 43.4733 118.507 41.6689C118.507 38.8333 119.662 36.5133 121.974 34.7089C124.285 32.9044 127.431 31.7015 131.411 31.1L141.041 29.7467V27.8778C141.041 23.4526 138.495 21.24 133.401 21.24C131.433 21.24 129.849 21.6481 128.651 22.4644C127.452 23.2378 126.575 24.1615 126.018 25.2356C125.847 25.6652 125.655 25.9659 125.441 26.1378C125.269 26.2667 125.013 26.3311 124.67 26.3311H122.166C121.781 26.3311 121.439 26.2022 121.139 25.9444C120.882 25.6437 120.754 25.3 120.754 24.9133C120.754 23.9252 121.203 22.7867 122.102 21.4978C123.044 20.1659 124.478 19.0274 126.404 18.0822C128.33 17.0941 130.684 16.6 133.466 16.6C138.259 16.6 141.683 17.717 143.738 19.9511C145.835 22.1852 146.884 24.9778 146.884 28.3289V49.2733C146.884 49.703 146.734 50.0681 146.434 50.3689C146.178 50.6267 145.835 50.7556 145.407 50.7556H142.582C142.154 50.7556 141.812 50.6267 141.555 50.3689C141.298 50.0681 141.17 49.703 141.17 49.2733V46.4378C140.228 47.8556 138.859 49.037 137.061 49.9822C135.263 50.9274 132.952 51.4 130.127 51.4ZM131.411 46.6956C134.236 46.6956 136.547 45.7719 138.345 43.9244C140.143 42.077 141.041 39.3919 141.041 35.8689V34.0644L133.53 35.16C130.448 35.5896 128.116 36.32 126.532 37.3511C124.948 38.3822 124.157 39.6711 124.157 41.2178C124.157 42.9793 124.863 44.3326 126.275 45.2778C127.73 46.223 129.442 46.6956 131.411 46.6956Z" fill="#39027A"/>
<path d="M153.548 63C153.12 63 152.756 62.8711 152.457 62.6133C152.2 62.3556 152.072 61.9904 152.072 61.5178V18.7267C152.072 18.2541 152.2 17.8889 152.457 17.6311C152.756 17.3733 153.12 17.2444 153.548 17.2444H156.245C156.715 17.2444 157.079 17.3733 157.336 17.6311C157.593 17.8889 157.721 18.2541 157.721 18.7267V21.5622C160.204 18.2541 163.735 16.6 168.314 16.6C172.809 16.6 176.168 18.0393 178.394 20.9178C180.663 23.7533 181.861 27.3837 181.989 31.8089C182.032 32.2815 182.054 33.0119 182.054 34C182.054 34.9881 182.032 35.7185 181.989 36.1911C181.861 40.5733 180.663 44.2037 178.394 47.0822C176.168 49.9607 172.809 51.4 168.314 51.4C163.735 51.4 160.268 49.7674 157.914 46.5022V61.5178C157.914 61.9474 157.764 62.2911 157.464 62.5489C157.208 62.8496 156.865 63 156.437 63H153.548ZM167.095 46.3733C170.176 46.3733 172.423 45.4067 173.836 43.4733C175.248 41.54 176.019 39.0052 176.147 35.8689C176.19 35.4393 176.211 34.8163 176.211 34C176.211 25.7511 173.172 21.6267 167.095 21.6267C164.099 21.6267 161.83 22.6363 160.289 24.6556C158.791 26.6319 157.999 28.9733 157.914 31.68C157.871 32.1526 157.85 32.9904 157.85 34.1933C157.85 35.3963 157.871 36.2341 157.914 36.7067C157.999 39.3274 158.813 41.6044 160.354 43.5378C161.937 45.4281 164.184 46.3733 167.095 46.3733Z" fill="#39027A"/>
<path d="M187.495 63C187.067 63 186.703 62.8711 186.403 62.6133C186.146 62.3556 186.018 61.9904 186.018 61.5178V18.7267C186.018 18.2541 186.146 17.8889 186.403 17.6311C186.703 17.3733 187.067 17.2444 187.495 17.2444H190.191C190.662 17.2444 191.026 17.3733 191.282 17.6311C191.539 17.8889 191.668 18.2541 191.668 18.7267V21.5622C194.15 18.2541 197.681 16.6 202.261 16.6C206.755 16.6 210.115 18.0393 212.341 20.9178C214.609 23.7533 215.807 27.3837 215.936 31.8089C215.979 32.2815 216 33.0119 216 34C216 34.9881 215.979 35.7185 215.936 36.1911C215.807 40.5733 214.609 44.2037 212.341 47.0822C210.115 49.9607 206.755 51.4 202.261 51.4C197.681 51.4 194.214 49.7674 191.86 46.5022V61.5178C191.86 61.9474 191.71 62.2911 191.411 62.5489C191.154 62.8496 190.812 63 190.384 63H187.495ZM201.041 46.3733C204.123 46.3733 206.37 45.4067 207.782 43.4733C209.195 41.54 209.965 39.0052 210.093 35.8689C210.136 35.4393 210.158 34.8163 210.158 34C210.158 25.7511 207.119 21.6267 201.041 21.6267C198.045 21.6267 195.777 22.6363 194.236 24.6556C192.738 26.6319 191.946 28.9733 191.86 31.68C191.817 32.1526 191.796 32.9904 191.796 34.1933C191.796 35.3963 191.817 36.2341 191.86 36.7067C191.946 39.3274 192.759 41.6044 194.3 43.5378C195.884 45.4281 198.131 46.3733 201.041 46.3733Z" fill="#39027A"/>
</svg>
