<svg width="450" height="90" viewBox="0 0 450 90" fill="none" xmlns="http://www.w3.org/2000/svg">
<path fill-rule="evenodd" clip-rule="evenodd" d="M61.2541 21.6428L82.8777 83.6404C84.5698 88.4917 89.8817 91.0501 94.7423 89.3546C99.6029 87.6591 102.171 82.3519 100.479 77.5005L76.7539 9.47664C76.6822 9.2709 76.6039 9.06929 76.5194 8.87194C75.1448 5.43146 71.775 3 67.8359 3H9.94346C4.78282 3 0.599289 7.17334 0.599289 12.3214C0.599289 17.4695 4.78282 21.6428 9.94346 21.6428H61.2541ZM62.1391 80.6786C62.1391 75.5305 57.9556 71.3572 52.795 71.3572H9.34417C4.18353 71.3572 0 75.5305 0 80.6786C0 85.8267 4.18353 90 9.34417 90H52.795C57.9556 90 62.1391 85.8267 62.1391 80.6786ZM39.4641 37.1784C44.6248 37.1784 48.8083 41.3518 48.8083 46.4998C48.8083 51.6479 44.6248 55.8212 39.4642 55.8212H9.99467C4.83402 55.8212 0.65049 51.6479 0.65049 46.4998C0.65049 41.3518 4.83402 37.1784 9.99466 37.1784H39.4641Z" fill="#3F3D56"/>
<path d="M122.056 89.9999C121.203 89.9999 120.478 89.7012 119.88 89.1039C119.283 88.5066 118.984 87.7812 118.984 86.9279V3.59991C118.984 2.66124 119.24 1.89324 119.752 1.29591C120.35 0.69857 121.118 0.399902 122.056 0.399902H159.176C169.16 0.399902 176.627 2.61857 181.576 7.05591C186.526 11.4079 189 17.3812 189 24.9759C189 29.4132 187.891 33.2106 185.672 36.3679C183.539 39.4399 181.022 41.6586 178.12 43.0239C181.704 44.6452 184.734 47.2906 187.208 50.9599C189.683 54.6292 190.92 58.8106 190.92 63.5039C190.92 71.4399 188.232 77.8399 182.856 82.7039C177.48 87.5679 169.971 89.9999 160.328 89.9999H122.056ZM156.872 37.1359C161.224 37.1359 164.552 36.0692 166.856 33.9359C169.246 31.8026 170.44 28.9439 170.44 25.3599C170.44 21.7759 169.288 19.0026 166.984 17.0399C164.68 15.0772 161.31 14.0959 156.872 14.0959H137.032V37.1359H156.872ZM158.152 76.3039C162.59 76.3039 166.046 75.1092 168.52 72.7199C170.995 70.2452 172.232 67.1306 172.232 63.3759C172.232 59.6212 170.952 56.5492 168.392 54.1599C165.918 51.6852 162.504 50.4479 158.152 50.4479H137.032V76.3039H158.152Z" fill="#3F3D56"/>
<path d="M200.23 89.9999C199.462 89.9999 198.822 89.7439 198.31 89.2319C197.798 88.7199 197.542 88.0799 197.542 87.3119L197.798 86.1599L228.518 3.59991C229.372 1.46657 230.908 0.399902 233.126 0.399902H247.206C249.425 0.399902 250.961 1.46657 251.814 3.59991L282.534 86.1599L282.79 87.3119C282.79 88.0799 282.492 88.7199 281.894 89.2319C281.382 89.7439 280.785 89.9999 280.102 89.9999H268.71C266.918 89.9999 265.681 89.1892 264.998 87.5679L259.11 72.0799H221.222L215.334 87.5679C214.652 89.1892 213.414 89.9999 211.622 89.9999H200.23ZM225.702 57.2319H254.63L240.166 17.8079L225.702 57.2319Z" fill="#3F3D56"/>
<path d="M297.681 89.9999C296.828 89.9999 296.103 89.7012 295.505 89.1039C294.908 88.5066 294.609 87.7812 294.609 86.9279V3.59991C294.609 2.66124 294.865 1.89324 295.377 1.29591C295.975 0.69857 296.743 0.399902 297.681 0.399902H331.985C342.311 0.399902 350.417 2.8319 356.305 7.69591C362.193 12.5599 365.137 19.6426 365.137 28.9439C365.137 38.1599 362.193 45.1572 356.305 49.9359C350.417 54.6292 342.311 56.9759 331.985 56.9759H313.169V86.9279C313.169 87.8666 312.871 88.6346 312.273 89.2319C311.676 89.7439 310.908 89.9999 309.969 89.9999H297.681ZM331.345 42.6399C336.295 42.6399 340.049 41.4879 342.609 39.1839C345.255 36.7946 346.577 33.3386 346.577 28.8159C346.577 24.3786 345.297 20.9226 342.737 18.4479C340.263 15.9732 336.465 14.7359 331.345 14.7359H312.913V42.6399H331.345Z" fill="#3F3D56"/>
<path d="M382.181 89.9999C381.328 89.9999 380.603 89.7012 380.005 89.1039C379.408 88.5066 379.109 87.7812 379.109 86.9279V3.59991C379.109 2.66124 379.365 1.89324 379.877 1.29591C380.475 0.69857 381.243 0.399902 382.181 0.399902H416.485C426.811 0.399902 434.917 2.8319 440.805 7.69591C446.693 12.5599 449.637 19.6426 449.637 28.9439C449.637 38.1599 446.693 45.1572 440.805 49.9359C434.917 54.6292 426.811 56.9759 416.485 56.9759H397.669V86.9279C397.669 87.8666 397.371 88.6346 396.773 89.2319C396.176 89.7439 395.408 89.9999 394.469 89.9999H382.181ZM415.845 42.6399C420.795 42.6399 424.549 41.4879 427.109 39.1839C429.755 36.7946 431.077 33.3386 431.077 28.8159C431.077 24.3786 429.797 20.9226 427.237 18.4479C424.763 15.9732 420.965 14.7359 415.845 14.7359H397.413V42.6399H415.845Z" fill="#3F3D56"/>
</svg>
