<svg width="48" height="48" viewBox="0 0 48 48" fill="none" xmlns="http://www.w3.org/2000/svg">
<path d="M24.1 36.0909C24.4382 36.0909 24.7688 35.9896 25.05 35.7998C25.3312 35.61 25.5504 35.3403 25.6798 35.0246C25.8093 34.709 25.8431 34.3617 25.7771 34.0267C25.7112 33.6916 25.5483 33.3838 25.3092 33.1423C25.07 32.9007 24.7653 32.7362 24.4336 32.6696C24.1019 32.6029 23.7581 32.6371 23.4456 32.7678C23.1331 32.8986 22.8661 33.12 22.6782 33.404C22.4903 33.6881 22.39 34.022 22.39 34.3636C22.39 34.8217 22.5702 35.2611 22.8908 35.585C23.2115 35.9089 23.6465 36.0909 24.1 36.0909ZM32.65 36.0909C32.9882 36.0909 33.3188 35.9896 33.6 35.7998C33.8812 35.61 34.1004 35.3403 34.2298 35.0246C34.3593 34.709 34.3931 34.3617 34.3271 34.0267C34.2612 33.6916 34.0983 33.3838 33.8592 33.1423C33.62 32.9007 33.3153 32.7362 32.9836 32.6696C32.6519 32.6029 32.3081 32.6371 31.9956 32.7678C31.6832 32.8986 31.4161 33.12 31.2282 33.404C31.0403 33.6881 30.94 34.022 30.94 34.3636C30.94 34.8217 31.1202 35.2611 31.4408 35.585C31.7615 35.9089 32.1965 36.0909 32.65 36.0909ZM32.65 29.1818C32.9882 29.1818 33.3188 29.0805 33.6 28.8907C33.8812 28.7009 34.1004 28.4312 34.2298 28.1155C34.3593 27.7999 34.3931 27.4526 34.3271 27.1176C34.2612 26.7825 34.0983 26.4747 33.8592 26.2332C33.62 25.9916 33.3153 25.8271 32.9836 25.7605C32.6519 25.6938 32.3081 25.728 31.9956 25.8588C31.6832 25.9895 31.4161 26.2109 31.2282 26.4949C31.0403 26.779 30.94 27.1129 30.94 27.4545C30.94 27.9126 31.1202 28.352 31.4408 28.6759C31.7615 28.9998 32.1965 29.1818 32.65 29.1818ZM36.07 8.45455H34.36V6.72727C34.36 6.26917 34.1798 5.82983 33.8592 5.50591C33.5385 5.18198 33.1035 5 32.65 5C32.1965 5 31.7615 5.18198 31.4408 5.50591C31.1202 5.82983 30.94 6.26917 30.94 6.72727V8.45455H17.26V6.72727C17.26 6.26917 17.0798 5.82983 16.7592 5.50591C16.4385 5.18198 16.0035 5 15.55 5C15.0965 5 14.6615 5.18198 14.3408 5.50591C14.0202 5.82983 13.84 6.26917 13.84 6.72727V8.45455H12.13C10.7694 8.45455 9.4646 9.00049 8.50254 9.97227C7.54048 10.944 7 12.2621 7 13.6364V37.8182C7 39.1925 7.54048 40.5105 8.50254 41.4823C9.4646 42.4541 10.7694 43 12.13 43H36.07C37.4306 43 38.7354 42.4541 39.6975 41.4823C40.6595 40.5105 41.2 39.1925 41.2 37.8182V13.6364C41.2 12.2621 40.6595 10.944 39.6975 9.97227C38.7354 9.00049 37.4306 8.45455 36.07 8.45455ZM37.78 37.8182C37.78 38.2763 37.5998 38.7156 37.2792 39.0395C36.9585 39.3635 36.5235 39.5455 36.07 39.5455H12.13C11.6765 39.5455 11.2415 39.3635 10.9208 39.0395C10.6002 38.7156 10.42 38.2763 10.42 37.8182V22.2727H37.78V37.8182ZM37.78 18.8182H10.42V13.6364C10.42 13.1783 10.6002 12.7389 10.9208 12.415C11.2415 12.0911 11.6765 11.9091 12.13 11.9091H13.84V13.6364C13.84 14.0945 14.0202 14.5338 14.3408 14.8577C14.6615 15.1817 15.0965 15.3636 15.55 15.3636C16.0035 15.3636 16.4385 15.1817 16.7592 14.8577C17.0798 14.5338 17.26 14.0945 17.26 13.6364V11.9091H30.94V13.6364C30.94 14.0945 31.1202 14.5338 31.4408 14.8577C31.7615 15.1817 32.1965 15.3636 32.65 15.3636C33.1035 15.3636 33.5385 15.1817 33.8592 14.8577C34.1798 14.5338 34.36 14.0945 34.36 13.6364V11.9091H36.07C36.5235 11.9091 36.9585 12.0911 37.2792 12.415C37.5998 12.7389 37.78 13.1783 37.78 13.6364V18.8182ZM15.55 29.1818C15.8882 29.1818 16.2188 29.0805 16.5 28.8907C16.7812 28.7009 17.0004 28.4312 17.1298 28.1155C17.2593 27.7999 17.2931 27.4526 17.2271 27.1176C17.1612 26.7825 16.9983 26.4747 16.7592 26.2332C16.52 25.9916 16.2153 25.8271 15.8836 25.7605C15.5519 25.6938 15.2081 25.728 14.8956 25.8588C14.5832 25.9895 14.3161 26.2109 14.1282 26.4949C13.9403 26.779 13.84 27.1129 13.84 27.4545C13.84 27.9126 14.0202 28.352 14.3408 28.6759C14.6615 28.9998 15.0965 29.1818 15.55 29.1818ZM15.55 36.0909C15.8882 36.0909 16.2188 35.9896 16.5 35.7998C16.7812 35.61 17.0004 35.3403 17.1298 35.0246C17.2593 34.709 17.2931 34.3617 17.2271 34.0267C17.1612 33.6916 16.9983 33.3838 16.7592 33.1423C16.52 32.9007 16.2153 32.7362 15.8836 32.6696C15.5519 32.6029 15.2081 32.6371 14.8956 32.7678C14.5832 32.8986 14.3161 33.12 14.1282 33.404C13.9403 33.6881 13.84 34.022 13.84 34.3636C13.84 34.8217 14.0202 35.2611 14.3408 35.585C14.6615 35.9089 15.0965 36.0909 15.55 36.0909Z" fill="#39027A"/>
<path d="M25.05 28.8907C24.7688 29.0805 24.4382 29.1818 24.1 29.1818C23.6465 29.1818 23.2115 28.9998 22.8908 28.6759C22.5702 28.352 22.39 27.9126 22.39 27.4545C22.39 27.1129 22.4903 26.779 22.6782 26.4949C22.8661 26.2109 23.1331 25.9895 23.4456 25.8588C23.7581 25.728 24.1019 25.6938 24.4336 25.7605C24.7653 25.8271 25.07 25.9916 25.3092 26.2332C25.5483 26.4747 25.7112 26.7825 25.7771 27.1176C25.8431 27.4526 25.8093 27.7999 25.6798 28.1155C25.5504 28.4312 25.3312 28.7009 25.05 28.8907Z" fill="#03C2A7"/>
</svg>
