<svg width="48" height="48" viewBox="0 0 48 48" fill="none" xmlns="http://www.w3.org/2000/svg">
<path d="M24 5C18.9609 5 14.1282 7.00178 10.565 10.565C7.00178 14.1282 5 18.9609 5 24C5 29.0391 7.00178 33.8718 10.565 37.435C14.1282 40.9982 18.9609 43 24 43C24.6299 43 25.234 42.7498 25.6794 42.3044C26.1248 41.859 26.375 41.2549 26.375 40.625C26.375 39.9951 26.1248 39.391 25.6794 38.9456C25.234 38.5002 24.6299 38.25 24 38.25C21.1816 38.25 18.4265 37.4143 16.0831 35.8484C13.7397 34.2826 11.9133 32.0571 10.8347 29.4532C9.75617 26.8494 9.47397 23.9842 10.0238 21.22C10.5736 18.4557 11.9308 15.9166 13.9237 13.9237C15.9166 11.9308 18.4557 10.5736 21.22 10.0238C23.9842 9.47397 26.8494 9.75617 29.4532 10.8347C32.0571 11.9133 34.2826 13.7397 35.8484 16.0831C37.4142 18.4265 38.25 21.1816 38.25 24V31.125C38.25 31.7549 37.9998 32.359 37.5544 32.8044C37.109 33.2498 36.5049 33.5 35.875 33.5C35.2451 33.5 34.641 33.2498 34.1956 32.8044C33.7502 32.359 33.5 31.7549 33.5 31.125V24C33.5 22.1211 32.9428 20.2843 31.8989 18.7221C30.8551 17.1598 29.3714 15.9422 27.6355 15.2231C25.8996 14.5041 23.9895 14.316 22.1466 14.6825C20.3038 15.0491 18.6111 15.9539 17.2825 17.2825C15.9539 18.6111 15.0491 20.3038 14.6825 22.1466C14.316 23.9895 14.5041 25.8996 15.2231 27.6355C15.9422 29.3714 17.1598 30.8551 18.7221 31.899C20.2843 32.9428 22.1211 33.5 24 33.5C25.7122 33.4916 27.3896 33.0155 28.8509 32.1232C29.0997 33.9075 30.0167 35.5308 31.4165 36.6649C32.8163 37.799 34.5945 38.3593 36.3916 38.2325C38.1888 38.1057 39.8707 37.3013 41.0974 35.9819C42.3242 34.6625 43.0042 32.9266 43 31.125V24C42.995 18.9624 40.9916 14.1326 37.4295 10.5705C33.8674 7.00834 29.0376 5.00497 24 5ZM24 28.75C23.0605 28.75 22.1422 28.4714 21.361 27.9495C20.5799 27.4275 19.9711 26.6857 19.6116 25.8177C19.252 24.9498 19.158 23.9947 19.3413 23.0733C19.5245 22.1519 19.9769 21.3055 20.6412 20.6412C21.3055 19.9769 22.1519 19.5245 23.0733 19.3413C23.9947 19.158 24.9498 19.2521 25.8177 19.6116C26.6857 19.9711 27.4275 20.5799 27.9495 21.361C28.4714 22.1422 28.75 23.0605 28.75 24C28.7491 25.2595 28.2484 26.4672 27.3578 27.3578C26.4672 28.2484 25.2595 28.7492 24 28.75Z" fill="#03C2A7"/>
</svg>
