<svg width="48" height="48" viewBox="0 0 48 48" fill="none" xmlns="http://www.w3.org/2000/svg">
<path d="M27.0347 35.0817C26.9154 35.3032 26.7967 35.5153 26.6798 35.7153C25.5771 37.6026 24.4624 38.8452 23.8899 39.4236C22.8831 38.4085 20.1906 35.3239 18.8004 30.1797C21.1374 29.885 23.4917 29.7895 25.8399 29.8934L25.2403 27.2894C24.8277 27.2779 24.4144 27.2712 24.0003 27.2712C23.9949 27.2712 23.9895 27.2712 23.9839 27.2712C22.0588 27.2719 20.1491 27.3979 18.26 27.6422C18.0591 26.3728 17.9427 25.0051 17.9437 23.5375C17.9445 22.4436 18.024 21.3921 18.1641 20.3865C20.0845 20.6391 22.0263 20.7691 23.984 20.7698C23.9895 20.7698 23.9948 20.7698 24.0002 20.7698C25.8909 20.7698 27.7669 20.6488 29.6232 20.4137C29.7599 21.4104 29.837 22.4528 29.8377 23.5375C29.838 23.9066 29.8306 24.269 29.8163 24.6251L32.3955 25.9778C32.46 25.1931 32.4954 24.3798 32.4948 23.5357C32.4939 22.3061 32.4056 21.1276 32.2501 20.0031C34.6586 19.5495 37.027 18.8942 39.3427 18.0422C39.9895 19.7558 40.3429 21.6066 40.3429 23.5366C40.3429 25.6514 39.9176 27.6709 39.1477 29.5192L41.4999 30.7529C42.4649 28.5337 43 26.0951 43 23.5366C43 13.4779 34.7453 5.26484 24.4979 5.00637C24.4283 4.99979 24.3584 4.99947 24.2887 5.00359C24.1925 5.00218 24.0965 5 24 5C23.8448 5 23.6901 5.00211 23.5359 5.00574C23.4253 4.99574 23.3139 5.00049 23.2041 5.01745C13.0952 5.42609 5 13.5758 5 23.5366C5 26.5974 5.76498 29.4869 7.11723 32.0338C7.14403 32.093 7.17433 32.1495 7.20874 32.2028C10.284 37.8512 16.2657 41.7723 23.1956 42.0554C23.2673 42.0669 23.3397 42.0732 23.412 42.0732C23.4504 42.0732 23.4888 42.0705 23.527 42.0673C23.6843 42.0711 23.8419 42.0732 24 42.0732C24.0994 42.0732 24.1982 42.071 24.2972 42.0695C24.3213 42.0708 24.3453 42.0732 24.3694 42.0732C24.4117 42.0732 24.4539 42.0708 24.496 42.0669C25.8797 42.0321 27.2266 41.8511 28.5223 41.5413L27.0347 35.0817ZM38.2203 15.6861C36.1059 16.4527 33.9485 17.0424 31.7681 17.457C30.7572 13.2661 28.885 10.0128 27.4146 7.94352C32.0414 8.90686 35.9492 11.7859 38.2203 15.6861ZM23.8921 7.71956C25.0044 9.00039 27.8086 12.6202 29.1292 17.8702C25.6528 18.3026 22.1386 18.2936 18.6638 17.8437C19.9901 12.6224 22.785 9.0012 23.8921 7.71956ZM20.3283 7.99827C18.8687 10.063 17.0276 13.2808 16.0231 17.4155C13.9139 17.0033 11.8267 16.428 9.77993 15.6858C12.0089 11.8581 15.814 9.0132 20.3283 7.99827ZM7.65706 23.5366C7.65706 21.6068 8.01052 19.7561 8.65723 18.0425C10.9046 18.8693 13.2022 19.5092 15.5375 19.9609C15.3783 21.0981 15.2876 22.2906 15.2867 23.5357C15.2855 25.1527 15.4131 26.6603 15.6338 28.0608C13.3855 28.4905 11.1722 29.0955 9.00448 29.8727C8.13846 27.9296 7.65706 25.787 7.65706 23.5366ZM10.2743 32.1819C12.2066 31.5084 14.1728 30.9797 16.1589 30.5983C17.1309 34.3596 18.7452 37.1651 20.1087 39.0229C16.0074 38.0418 12.509 35.547 10.2743 32.1819Z" fill="#39027A"/>
<path d="M41.6672 33.2759L28.1709 26.3171L31.4742 40.4184L34.0615 36.6704L37.6647 41.3406L40.7312 39.1642L37.1349 34.5029L41.6672 33.2759Z" fill="#03C2A7"/>
</svg>
