<svg width="512" height="512" viewBox="0 0 512 512" fill="none" xmlns="http://www.w3.org/2000/svg">
<path opacity="0.1" d="M476.1 278.409C456.62 309.922 460.27 352.854 468.826 386.705C471.688 398.039 474.987 410.003 472.539 422.688C469.545 438.197 458.631 450.377 447.586 457.352C427.449 470.037 404.454 469.685 387.71 456.423C373.251 444.968 363.729 424.988 348.965 414.148C324.279 396.001 290.381 406.999 260.948 423.959C240.133 435.929 217.223 451.16 197.984 442.536C184.449 436.48 176.008 419.394 172.069 400.802C170.168 391.825 169.018 382.02 164.658 375.181C162.064 371.116 158.497 368.395 154.8 366.163C121.054 345.816 75.3965 362.828 42.8537 339.786C20.8731 324.229 8.37803 292.096 4.27078 257.736C0.163531 223.376 3.54072 186.61 7.76877 150.412C10.7783 124.676 14.8488 97.1436 28.3575 76.2134C42.6489 54.0752 65.1757 44.1748 84.756 46.2757C104.336 48.3766 121.338 60.7823 135.992 75.9456C154.306 94.8956 170.824 119.098 194.528 125.212C210.673 129.377 228.305 124.555 245.474 121.829C274.141 117.27 302.409 118.578 330.477 120.29C357.347 121.929 384.38 123.967 409.418 133.421C427.134 140.117 440.732 154.057 457.266 163.122C468.043 169.031 480.202 169.782 490.244 177.66C502.613 187.366 513.317 205.282 508.365 227.93C503.643 249.474 486.437 261.686 476.1 278.409Z" fill="#03C2A7"/>
<path d="M351.417 207.178C351.417 207.178 404.465 162.728 416.262 140.317C428.058 117.905 443.074 98.593 443.074 98.593" stroke="#535461" stroke-width="2" stroke-miterlimit="10"/>
<path d="M436.099 148.694L413.152 143.521C413.152 143.521 418.567 167.723 436.099 148.694Z" fill="#03C2A7"/>
<path d="M401.035 123.988L414.239 143.762C414.239 143.762 388.425 145.627 401.035 123.988Z" fill="#03C2A7"/>
<path d="M445.128 130.106L424.156 126.43C424.156 126.43 437.328 146.467 445.128 130.106Z" fill="#03C2A7"/>
<path d="M414.092 112.433L424.423 125.963C424.423 125.963 406.135 127.696 414.092 112.433Z" fill="#03C2A7"/>
<path d="M435.001 109.738C435.001 109.738 452.859 110.589 454.96 112.296C457.061 114.003 452.297 124.009 445.506 122.375C438.715 120.742 435.001 109.738 435.001 109.738Z" fill="#03C2A7"/>
<path d="M427.863 93.7769C427.863 93.7769 435.159 107.07 434.886 109.602C434.612 112.133 423.767 114.975 421.576 105.4C419.386 95.8252 427.863 93.7769 427.863 93.7769Z" fill="#03C2A7"/>
<path d="M450.551 103.93C451.376 101.315 449.926 98.5252 447.311 97.6993C444.696 96.8735 441.906 98.324 441.08 100.939C440.254 103.554 441.705 106.344 444.32 107.17C446.935 107.995 449.725 106.545 450.551 103.93Z" fill="#FFD037"/>
<path d="M442.777 98.8197C443.602 96.2045 442.152 93.415 439.537 92.5892C436.922 91.7634 434.132 93.2139 433.306 95.829C432.481 98.4442 433.931 101.234 436.546 102.06C439.161 102.885 441.951 101.435 442.777 98.8197Z" fill="#FFD037"/>
<path d="M185.956 381.421C185.956 381.421 194.47 356.094 140.498 325.563C140.498 325.563 85.6963 309.581 91.3005 254.695C91.3005 254.695 28.1266 300.978 70.8745 359.934C113.622 418.89 150.519 406.022 150.519 406.022L185.956 381.421Z" fill="#1BC3AD"/>
<path d="M169.501 392.86C169.501 392.86 143.166 364.398 117.924 353.395C112.881 351.125 108.248 348.039 104.21 344.261C88.1175 329.555 81.1005 307.364 85.2497 285.961L91.3161 254.695" stroke="#535461" stroke-width="2" stroke-miterlimit="10"/>
<path d="M403.514 63.4348H103.816V411.411H403.514V63.4348Z" fill="url(#paint0_linear_2167_4772)"/>
<path d="M400.027 67.4841H107.309V407.351H400.027V67.4841Z" fill="#F7F7FD"/>
<path d="M198.987 105.794H124.988V111.687H198.987V105.794Z" fill="#E2E2EC"/>
<path d="M251.373 120.201H124.988V126.094H251.373V120.201Z" fill="#E2E2EC"/>
<path d="M386.009 100.164H333.492V145.48H386.009V100.164Z" fill="white"/>
<path d="M385.73 100.426V145.217H333.733V100.426H385.73ZM386.255 99.9009H333.208V145.742H386.255V99.9009Z" fill="#E2E2EC"/>
<path d="M332.966 100.164H280.449V145.48H332.966V100.164Z" fill="white"/>
<path d="M332.683 100.426V145.217H280.686V100.426H332.683ZM333.208 99.9009H280.161V145.742H333.208V99.9009Z" fill="#E2E2EC"/>
<path d="M386.009 146.005H333.492V191.322H386.009V146.005Z" fill="white"/>
<path d="M385.73 146.268V191.059H333.733V146.268H385.73ZM386.255 145.743H333.208V191.584H386.255V145.743Z" fill="#E2E2EC"/>
<path d="M332.966 146.005H280.449V191.322H332.966V146.005Z" fill="white"/>
<path d="M332.683 146.268V191.059H280.686V146.268H332.683ZM333.208 145.743H280.161V191.584H333.208V145.743Z" fill="#E2E2EC"/>
<path d="M279.924 146.005H227.407V191.322H279.924V146.005Z" fill="white"/>
<path d="M279.661 146.268V191.059H227.664V146.268H279.661ZM280.186 145.743H227.139V191.584H280.186V145.743Z" fill="#E2E2EC"/>
<path d="M226.882 146.005H174.365V191.322H226.882V146.005Z" fill="white"/>
<path d="M226.619 146.268V191.059H174.622V146.268H226.619ZM227.144 145.743H174.097V191.584H227.144V145.743Z" fill="#E2E2EC"/>
<path d="M173.839 146.005H121.322V191.322H173.839V146.005Z" fill="white"/>
<path d="M173.577 146.268V191.059H121.579V146.268H173.577ZM174.102 145.743H121.054V191.584H174.102V145.743Z" fill="#E2E2EC"/>
<path d="M386.009 191.841H333.492V237.158H386.009V191.841Z" fill="white"/>
<path d="M385.73 192.109V236.9H333.733V192.109H385.73ZM386.255 191.584H333.208V237.425H386.255V191.584Z" fill="#E2E2EC"/>
<path d="M332.966 191.841H280.449V237.158H332.966V191.841Z" fill="white"/>
<path d="M332.683 192.109V236.9H280.686V192.109H332.683ZM333.208 191.584H280.161V237.425H333.208V191.584Z" fill="#E2E2EC"/>
<path d="M279.924 191.841H227.407V237.158H279.924V191.841Z" fill="white"/>
<path d="M279.661 192.109V236.9H227.664V192.109H279.661ZM280.186 191.584H227.139V237.425H280.186V191.584Z" fill="#E2E2EC"/>
<path d="M226.882 191.841H174.365V237.158H226.882V191.841Z" fill="white"/>
<path d="M226.619 192.109V236.9H174.622V192.109H226.619ZM227.144 191.584H174.097V237.425H227.144V191.584Z" fill="#E2E2EC"/>
<path d="M173.839 191.841H121.322V237.158H173.839V191.841Z" fill="white"/>
<path d="M173.577 192.109V236.9H121.579V192.109H173.577ZM174.102 191.584H121.054V237.425H174.102V191.584Z" fill="#E2E2EC"/>
<path d="M386.009 237.683H333.492V282.999H386.009V237.683Z" fill="white"/>
<path d="M385.73 237.946V282.737H333.733V237.946H385.73ZM386.255 237.42H333.208V283.262H386.255V237.42Z" fill="#E2E2EC"/>
<path d="M332.966 237.683H280.449V282.999H332.966V237.683Z" fill="white"/>
<path d="M332.683 237.946V282.737H280.686V237.946H332.683ZM333.208 237.42H280.161V283.262H333.208V237.42Z" fill="#E2E2EC"/>
<path d="M279.924 237.683H227.407V282.999H279.924V237.683Z" fill="white"/>
<path d="M279.661 237.946V282.737H227.664V237.946H279.661ZM280.186 237.42H227.139V283.262H280.186V237.42Z" fill="#E2E2EC"/>
<path d="M226.882 237.683H174.365V282.999H226.882V237.683Z" fill="white"/>
<path d="M226.619 237.946V282.737H174.622V237.946H226.619ZM227.144 237.42H174.097V283.262H227.144V237.42Z" fill="#E2E2EC"/>
<path d="M173.839 237.683H121.322V282.999H173.839V237.683Z" fill="white"/>
<path d="M173.577 237.946V282.737H121.579V237.946H173.577ZM174.102 237.42H121.054V283.262H174.102V237.42Z" fill="#E2E2EC"/>
<path d="M386.009 283.519H333.492V328.835H386.009V283.519Z" fill="white"/>
<path d="M385.73 283.787V328.573H333.733V283.787H385.73ZM386.255 283.262H333.208V329.098H386.255V283.262Z" fill="#E2E2EC"/>
<path d="M332.966 283.519H280.449V328.835H332.966V283.519Z" fill="white"/>
<path d="M332.683 283.787V328.573H280.686V283.787H332.683ZM333.208 283.262H280.161V329.098H333.208V283.262Z" fill="#E2E2EC"/>
<path d="M279.924 283.519H227.407V328.835H279.924V283.519Z" fill="white"/>
<path d="M279.661 283.787V328.573H227.664V283.787H279.661ZM280.186 283.262H227.139V329.098H280.186V283.262Z" fill="#E2E2EC"/>
<path d="M226.882 283.519H174.365V328.835H226.882V283.519Z" fill="white"/>
<path d="M226.619 283.787V328.573H174.622V283.787H226.619ZM227.144 283.262H174.097V329.098H227.144V283.262Z" fill="#E2E2EC"/>
<path d="M173.839 283.519H121.322V328.835H173.839V283.519Z" fill="white"/>
<path d="M173.577 283.787V328.573H121.579V283.787H173.577ZM174.102 283.262H121.054V329.098H174.102V283.262Z" fill="#E2E2EC"/>
<path d="M386.009 329.361H333.492V374.677H386.009V329.361Z" fill="white"/>
<path d="M385.73 329.623V374.414H333.733V329.623H385.73ZM386.255 329.098H333.208V374.94H386.255V329.098Z" fill="#E2E2EC"/>
<path d="M332.966 329.361H280.449V374.677H332.966V329.361Z" fill="white"/>
<path d="M332.683 329.623V374.414H280.686V329.623H332.683ZM333.208 329.098H280.161V374.94H333.208V329.098Z" fill="#E2E2EC"/>
<path d="M279.924 329.361H227.407V374.677H279.924V329.361Z" fill="white"/>
<path d="M279.661 329.623V374.414H227.664V329.623H279.661ZM280.186 329.098H227.139V374.94H280.186V329.098Z" fill="#E2E2EC"/>
<path d="M226.882 329.361H174.365V374.677H226.882V329.361Z" fill="white"/>
<path d="M226.619 329.623V374.414H174.622V329.623H226.619ZM227.144 329.098H174.097V374.94H227.144V329.098Z" fill="#E2E2EC"/>
<path d="M173.839 329.361H121.322V374.677H173.839V329.361Z" fill="white"/>
<path d="M173.577 329.623V374.414H121.579V329.623H173.577ZM174.102 329.098H121.054V374.94H174.102V329.098Z" fill="#E2E2EC"/>
<path d="M231.63 416.222C233.132 415.083 234.545 413.738 234.981 412.099C235.204 411.232 235.086 410.312 234.65 409.53C234.214 408.748 233.493 408.163 232.638 407.897C230.49 407.225 228.195 408.423 226.451 409.667C224.707 410.912 222.717 412.294 220.437 412.036C222.795 410.329 223.919 407.561 223.268 405.046C223.157 404.503 222.882 404.009 222.48 403.627C221.288 402.577 219.124 403.034 217.696 403.853C213.152 406.479 211.887 411.495 211.86 416.028C211.403 414.394 211.787 412.693 211.776 411.012C211.766 409.331 211.204 407.477 209.471 406.574C208.361 406.093 207.16 405.862 205.952 405.896C203.908 405.833 201.634 406.001 200.242 407.22C198.509 408.733 198.961 411.275 200.468 412.94C201.976 414.605 204.271 415.65 206.377 416.8C207.984 417.677 209.612 418.701 210.579 420.088C210.706 420.272 210.811 420.469 210.894 420.676H223.694C226.513 419.526 229.179 418.03 231.63 416.222Z" fill="#03C2A7"/>
<path d="M128.25 155.89C129.903 155.89 131.243 154.55 131.243 152.896C131.243 151.243 129.903 149.902 128.25 149.902C126.596 149.902 125.256 151.243 125.256 152.896C125.256 154.55 126.596 155.89 128.25 155.89Z" fill="#FC6681"/>
<path d="M135.729 155.89C137.383 155.89 138.723 154.55 138.723 152.896C138.723 151.243 137.383 149.902 135.729 149.902C134.076 149.902 132.735 151.243 132.735 152.896C132.735 154.55 134.076 155.89 135.729 155.89Z" fill="#FFD037"/>
<path d="M233.967 200.271C235.621 200.271 236.961 198.931 236.961 197.277C236.961 195.624 235.621 194.284 233.967 194.284C232.314 194.284 230.974 195.624 230.974 197.277C230.974 198.931 232.314 200.271 233.967 200.271Z" fill="#03C2A7"/>
<path d="M241.451 200.271C243.105 200.271 244.445 198.931 244.445 197.277C244.445 195.624 243.105 194.284 241.451 194.284C239.798 194.284 238.458 195.624 238.458 197.277C238.458 198.931 239.798 200.271 241.451 200.271Z" fill="#03C2A7"/>
<path d="M394.039 286.04C395.693 286.04 397.033 284.7 397.033 283.046C397.033 281.393 395.693 280.053 394.039 280.053C392.386 280.053 391.045 281.393 391.045 283.046C391.045 284.7 392.386 286.04 394.039 286.04Z" fill="#03C2A7"/>
<path d="M395.536 282.553C397.19 282.553 398.53 281.212 398.53 279.559C398.53 277.906 397.19 276.565 395.536 276.565C393.883 276.565 392.542 277.906 392.542 279.559C392.542 281.212 393.883 282.553 395.536 282.553Z" fill="#03C2A7"/>
<path d="M397.033 279.559C398.687 279.559 400.027 278.219 400.027 276.565C400.027 274.912 398.687 273.572 397.033 273.572C395.38 273.572 394.04 274.912 394.04 276.565C394.04 278.219 395.38 279.559 397.033 279.559Z" fill="#03C2A7"/>
<path d="M341.181 155.89C342.834 155.89 344.175 154.55 344.175 152.896C344.175 151.243 342.834 149.902 341.181 149.902C339.527 149.902 338.187 151.243 338.187 152.896C338.187 154.55 339.527 155.89 341.181 155.89Z" fill="#03C2A7"/>
<path d="M348.66 155.89C350.314 155.89 351.654 154.55 351.654 152.896C351.654 151.243 350.314 149.902 348.66 149.902C347.007 149.902 345.667 151.243 345.667 152.896C345.667 154.55 347.007 155.89 348.66 155.89Z" fill="#03C2A7"/>
<path d="M356.144 155.89C357.798 155.89 359.138 154.55 359.138 152.896C359.138 151.243 357.798 149.902 356.144 149.902C354.491 149.902 353.15 151.243 353.15 152.896C353.15 154.55 354.491 155.89 356.144 155.89Z" fill="#03C2A7"/>
<path d="M363.624 155.89C365.277 155.89 366.617 154.55 366.617 152.896C366.617 151.243 365.277 149.902 363.624 149.902C361.97 149.902 360.63 151.243 360.63 152.896C360.63 154.55 361.97 155.89 363.624 155.89Z" fill="#03C2A7"/>
<path d="M341.181 248.639C342.834 248.639 344.175 247.299 344.175 245.645C344.175 243.992 342.834 242.652 341.181 242.652C339.527 242.652 338.187 243.992 338.187 245.645C338.187 247.299 339.527 248.639 341.181 248.639Z" fill="#03C2A7"/>
<path d="M348.66 248.639C350.314 248.639 351.654 247.299 351.654 245.645C351.654 243.992 350.314 242.652 348.66 242.652C347.007 242.652 345.667 243.992 345.667 245.645C345.667 247.299 347.007 248.639 348.66 248.639Z" fill="#03C2A7"/>
<path d="M356.144 248.639C357.798 248.639 359.138 247.299 359.138 245.645C359.138 243.992 357.798 242.652 356.144 242.652C354.491 242.652 353.15 243.992 353.15 245.645C353.15 247.299 354.491 248.639 356.144 248.639Z" fill="#03C2A7"/>
<path d="M363.624 248.639C365.277 248.639 366.617 247.299 366.617 245.645C366.617 243.992 365.277 242.652 363.624 242.652C361.97 242.652 360.63 243.992 360.63 245.645C360.63 247.299 361.97 248.639 363.624 248.639Z" fill="#03C2A7"/>
<path d="M181.109 200.271C182.762 200.271 184.102 198.931 184.102 197.277C184.102 195.624 182.762 194.284 181.109 194.284C179.455 194.284 178.115 195.624 178.115 197.277C178.115 198.931 179.455 200.271 181.109 200.271Z" fill="#FFD037"/>
<path d="M128.25 245.651C129.903 245.651 131.243 244.31 131.243 242.657C131.243 241.003 129.903 239.663 128.25 239.663C126.596 239.663 125.256 241.003 125.256 242.657C125.256 244.31 126.596 245.651 128.25 245.651Z" fill="#FC6681"/>
<path d="M447.911 418.728L449.681 424.038L443.904 429.815L424.87 434.243L411.146 432.914L412.033 428.045C412.295 426.998 412.841 426.044 413.61 425.287C414.379 424.53 415.342 424 416.392 423.754C422.033 422.43 432.79 419.405 435.048 415.208L447.911 418.728Z" fill="#DB8B8B"/>
<path opacity="0.1" d="M447.911 418.728L449.681 424.038L443.904 429.815L424.87 434.243L411.146 432.914L412.033 428.045C412.295 426.998 412.841 426.044 413.61 425.287C414.379 424.53 415.342 424 416.392 423.754C422.033 422.43 432.79 419.405 435.048 415.208L447.911 418.728Z" fill="black"/>
<path d="M415.594 431.564L418.252 428.024L415.594 423.922C415.594 423.922 407.627 427.136 404.087 426.695C400.547 426.254 398.777 432.473 405.415 434.222C412.054 435.97 449.681 434.222 449.681 434.222C449.681 434.222 456.32 431.123 449.681 422.714L443.904 427.141C443.904 427.141 434.166 432.452 429.297 431.569L415.594 431.564Z" fill="#2E3037"/>
<path d="M403.641 439.08L417.365 440.409L436.399 435.981L442.176 430.204L441.709 428.796L441.047 426.821L440.385 424.899L427.549 421.359C426.893 422.429 425.993 423.329 424.923 423.985C420.752 426.837 413.263 428.896 408.867 429.925C408.688 429.969 408.513 430.023 408.341 430.088C407.41 430.401 406.573 430.943 405.907 431.664C405.24 432.386 404.766 433.264 404.528 434.216L403.641 439.08Z" fill="#DB8B8B"/>
<path opacity="0.1" d="M403.641 439.08L417.365 440.409L436.399 435.981L442.176 430.203L441.709 428.796L436.425 432.861C436.425 432.861 426.687 438.171 421.819 437.289H408.068L410.726 433.749L408.341 430.072C407.41 430.385 406.573 430.927 405.907 431.649C405.24 432.37 404.766 433.248 404.528 434.2L403.641 439.08Z" fill="black"/>
<path d="M408.068 437.762L410.725 434.222L408.068 430.12C408.068 430.12 400.1 433.334 396.56 432.893C393.02 432.452 391.25 438.67 397.889 440.419C404.528 442.168 442.155 440.419 442.155 440.419C442.155 440.419 448.794 437.32 442.155 428.912L436.377 433.339C436.377 433.339 426.64 438.649 421.771 437.767L408.068 437.762Z" fill="#2E3037"/>
<path d="M419.134 181.017C419.134 181.017 440.385 183.228 437.286 174.378C436.419 171.868 436.194 169.182 436.629 166.563C437.181 163.315 438.465 160.237 440.385 157.56L420.463 160.659C421.657 162.655 422.565 164.809 423.163 167.056C425.537 176.442 419.134 181.017 419.134 181.017Z" fill="#DB8B8B"/>
<path d="M455.433 281.944C455.433 281.944 454.991 300.978 450.564 310.274L449.676 337.276C449.676 337.276 451.005 362.066 453.663 366.935C456.32 371.804 447.885 412.971 447.885 412.971V420.056C447.885 420.056 433.704 425.366 429.733 419.169L433.72 366.489L431.95 293.451L455.433 281.944Z" fill="#474463"/>
<path opacity="0.1" d="M455.433 281.944C455.433 281.944 454.991 300.978 450.564 310.274L449.676 337.276C449.676 337.276 451.005 362.066 453.663 366.935C456.32 371.804 447.885 412.971 447.885 412.971V420.056C447.885 420.056 433.704 425.366 429.733 419.169L433.72 366.489L431.95 293.451L455.433 281.944Z" fill="black"/>
<path d="M464.288 220.855L466.945 227.94L469.156 242.993C469.455 245.09 469.249 247.228 468.556 249.229C467.863 251.231 466.702 253.038 465.17 254.501C459.86 259.811 452.775 270.877 452.775 270.877L444.371 245.666C444.371 245.666 452.775 244.337 451.456 238.581C450.138 232.825 450.563 222.163 450.563 222.163L464.288 220.855Z" fill="#39027A"/>
<path opacity="0.1" d="M424.943 423.99C430.621 432.919 439.461 427.861 441.026 426.853L440.385 424.899L427.548 421.359C426.899 422.429 426.007 423.33 424.943 423.99Z" fill="black"/>
<path d="M407.186 299.208C407.627 305.405 415.154 327.979 415.154 327.979L420.464 346.557C424.269 359.692 426.233 373.292 426.299 386.967C426.299 391.5 426.714 396.174 427.995 399.688C431.535 409.426 424.455 422.709 424.455 422.709C430.653 433.775 441.263 426.249 441.263 426.249V419.169C441.263 419.169 449.666 380.654 447.46 373.133C445.254 365.612 444.361 345.244 444.361 345.244V308.478C451.452 301.412 455.764 292.031 456.51 282.049C456.615 280.599 456.699 279.076 456.757 277.495C457.114 267.516 450.286 255.798 447.618 251.628C446.977 250.619 446.567 250.052 446.567 250.052L407.48 265.557L407.391 265.593V267.106V270.452L407.186 299.208Z" fill="#1C003E"/>
<path opacity="0.1" d="M420.463 160.654C421.657 162.65 422.566 164.803 423.163 167.051C425.327 167.872 427.633 168.251 429.946 168.167C432.259 168.082 434.532 167.535 436.63 166.557C437.182 163.312 438.466 160.235 440.385 157.56L420.463 160.654Z" fill="black"/>
<path d="M429.319 167.287C438.853 167.287 446.583 159.558 446.583 150.023C446.583 140.488 438.853 132.759 429.319 132.759C419.784 132.759 412.055 140.488 412.055 150.023C412.055 159.558 419.784 167.287 429.319 167.287Z" fill="#DB8B8B"/>
<path opacity="0.1" d="M407.186 270.436L407.375 270.473C425.937 274.291 449.241 254.942 449.241 254.942C448.616 253.889 448.077 252.788 447.628 251.649C446.987 250.64 446.578 250.073 446.578 250.073L407.491 265.578L407.391 267.127L407.186 270.436Z" fill="black"/>
<path d="M412.055 180.57C412.055 180.57 436.845 165.517 444.813 171.715L455.879 185.896C455.879 185.896 462.964 188.107 461.657 202.273L466.946 227.94L451.01 231.927C451.01 231.927 441.714 240.782 449.24 253.618C449.24 253.618 425.779 273.094 407.186 269.112L408.515 248.308C408.515 248.308 412.501 236.801 405.416 226.175C398.33 215.55 404.975 205.371 411.613 201.385C411.613 201.38 414.707 184.557 412.055 180.57Z" fill="#39027A"/>
<path d="M410.726 270.877C410.726 270.877 401.43 272.647 397.002 279.732C395.724 281.858 394.166 283.801 392.369 285.51C391.965 285.877 391.652 286.332 391.454 286.841C391.257 287.35 391.181 287.897 391.232 288.441C391.283 288.984 391.459 289.508 391.748 289.971C392.037 290.434 392.429 290.824 392.895 291.109C396.408 293.21 402.139 294.518 409.376 288.572C421.792 278.404 410.726 270.877 410.726 270.877Z" fill="#DB8B8B"/>
<path opacity="0.1" d="M424.449 188.984C424.449 188.984 433.305 188.097 435.516 211.117C437.727 234.138 441.293 239.448 441.293 239.448C441.293 239.448 443.505 251.402 438.195 258.482C432.885 265.562 422.701 280.615 422.701 280.615C422.701 280.615 411.634 283.714 409.423 272.647L423.147 246.974C423.147 246.974 425.358 238.119 420.048 231.921C414.738 225.724 410.725 184.557 424.449 188.984Z" fill="black"/>
<path d="M423.547 187.655C423.547 187.655 432.402 186.768 434.613 209.788C436.824 232.809 440.391 238.119 440.391 238.119C440.391 238.119 442.602 250.073 437.292 257.153C431.982 264.233 421.798 279.286 421.798 279.286C421.798 279.286 410.731 282.385 408.52 271.318L422.244 245.645C422.244 245.645 424.455 236.79 419.145 230.592C413.835 224.395 409.838 183.228 423.547 187.655Z" fill="#39027A"/>
<path opacity="0.1" d="M416.256 204.252C416.256 204.252 415.374 217.961 419.345 225.503C423.315 233.045 423.331 242.767 419.345 248.088" fill="black"/>
<path opacity="0.1" d="M414.045 187.435C414.045 187.435 417.585 183.895 427.769 183.448C437.953 183.002 442.375 179.908 442.375 179.908" fill="black"/>
<path opacity="0.1" d="M438.667 127.717C441.357 128.048 444.445 128.972 445.401 131.499C445.758 132.428 445.768 133.452 446.015 134.414C447.018 138.279 451.373 140.081 454.056 143.038C456.425 145.664 457.47 149.178 458.258 152.618C460.468 162.483 461.001 172.65 459.834 182.692C458.973 190.045 457.208 197.262 456.714 204.636C456.22 212.01 457.124 219.768 461.152 225.965C462.885 228.628 465.175 230.971 466.404 233.901C463.868 235.96 460.364 236.254 457.092 236.365C453.286 236.494 449.478 236.494 445.669 236.365C443.673 236.296 441.588 236.165 439.865 235.157C438.589 234.341 437.541 233.215 436.819 231.884C434.639 228.208 434.093 223.744 434.193 219.458C434.292 215.172 434.965 210.907 435.043 206.616C435.085 204.279 434.902 201.794 433.557 199.883C432.585 198.501 431.109 197.572 429.849 196.453C425.122 192.251 423.483 185.518 423.326 179.189C423.168 172.86 424.213 166.52 423.678 160.212C423.467 157.744 422.543 154.776 420.117 154.298C419.35 154.146 418.541 154.298 417.806 154.004C415.857 153.253 416.046 150.506 415.489 148.495C414.864 146.236 412.937 144.493 412.396 142.192C411.119 136.835 417.937 130.443 422.407 128.578C426.95 126.677 433.877 127.129 438.667 127.717Z" fill="black"/>
<path d="M439.109 126.834C441.798 127.165 444.886 128.09 445.842 130.616C446.199 131.546 446.21 132.57 446.457 133.531C447.46 137.397 451.814 139.198 454.498 142.155C456.867 144.781 457.912 148.295 458.7 151.735C460.91 161.6 461.443 171.767 460.275 181.809C459.414 189.163 457.649 196.379 457.156 203.753C456.662 211.127 457.565 218.885 461.594 225.083C463.327 227.746 465.617 230.088 466.846 233.019C464.309 235.078 460.806 235.372 457.534 235.482C453.728 235.612 449.92 235.612 446.11 235.482C444.114 235.414 442.029 235.283 440.306 234.274C439.031 233.458 437.983 232.333 437.26 231.002C435.08 227.325 434.534 222.861 434.634 218.575C434.734 214.289 435.406 210.025 435.485 205.733C435.527 203.396 435.343 200.912 433.998 199C433.027 197.619 431.551 196.689 430.29 195.57C425.563 191.369 423.925 184.635 423.767 178.306C423.609 171.977 424.655 165.638 424.119 159.33C423.909 156.861 422.984 153.894 420.558 153.416C419.791 153.264 418.982 153.416 418.247 153.122C416.298 152.371 416.487 149.624 415.931 147.612C415.306 145.354 413.378 143.61 412.837 141.31C411.561 135.952 418.378 129.56 422.848 127.696C427.391 125.789 434.319 126.241 439.109 126.834Z" fill="#472727"/>
<defs>
<linearGradient id="paint0_linear_2167_4772" x1="253.668" y1="411.406" x2="253.668" y2="63.4348" gradientUnits="userSpaceOnUse">
<stop stop-color="#808080" stop-opacity="0.25"/>
<stop offset="0.54" stop-color="#808080" stop-opacity="0.12"/>
<stop offset="1" stop-color="#808080" stop-opacity="0.1"/>
</linearGradient>
</defs>
</svg>
