<svg width="512" height="512" viewBox="0 0 512 512" fill="none" xmlns="http://www.w3.org/2000/svg">
<path d="M158.247 298.203C157.416 296.972 156.32 295.934 155.036 295.162C153.752 294.391 152.31 293.904 150.813 293.737C149.316 293.57 147.8 293.727 146.371 294.196C144.943 294.665 143.637 295.435 142.545 296.452L110 280L112.023 298.535L142.618 311.316C144.484 312.999 146.916 313.954 149.452 313.998C151.988 314.043 154.453 313.175 156.379 311.558C158.306 309.942 159.56 307.69 159.904 305.228C160.248 302.767 159.659 300.267 158.247 298.203Z" fill="#FFB8B8"/>
<path d="M129.75 306.581C129.164 306.85 128.528 306.993 127.883 307C127.238 307.007 126.599 306.878 126.007 306.621L95.233 293.259C84.7107 288.691 76.204 280.454 71.2953 270.078L55.1168 235.896C53.9234 234.36 53.044 232.604 52.5289 230.728C52.0138 228.853 51.8731 226.893 52.1149 224.963C52.3566 223.033 52.9761 221.169 53.9378 219.479C54.8996 217.788 56.1848 216.304 57.7199 215.111C59.255 213.918 61.01 213.039 62.8846 212.526C64.7591 212.012 66.7164 211.873 68.6446 212.117C70.5728 212.361 72.4341 212.983 74.122 213.947C75.81 214.911 77.2915 216.199 78.4819 217.737L106.92 270.55L133.178 290.405C133.93 290.976 134.488 291.764 134.778 292.663C135.067 293.562 135.074 294.528 134.797 295.431L132.22 303.764C131.943 304.657 131.401 305.445 130.665 306.022C130.383 306.244 130.076 306.432 129.75 306.581Z" fill="#03C2A7"/>
<path d="M55 196C68.8071 196 80 185.031 80 171.5C80 157.969 68.8071 147 55 147C41.1929 147 30 157.969 30 171.5C30 185.031 41.1929 196 55 196Z" fill="#FFB8B8"/>
<path d="M65.002 497L77.1983 496.999L83 449L65 449.001L65.002 497Z" fill="#FFB8B8"/>
<path d="M101.168 508.71L62.221 508.711L62.2203 493.664L86.1199 493.663C90.1108 493.662 93.9384 495.248 96.7605 498.069C99.5827 500.891 101.168 504.719 101.168 508.71Z" fill="#2F2E41"/>
<path d="M24.0021 497L36.876 496.999L43 449L24 449.001L24.0021 497Z" fill="#FFB8B8"/>
<path d="M60.7358 508.71L21.7884 508.711L21.7877 493.664L45.6873 493.663C49.6782 493.662 53.5058 495.248 56.3279 498.069C59.1501 500.891 60.7357 504.719 60.7358 508.71Z" fill="#2F2E41"/>
<path d="M20.121 483.446C19.6961 482.958 19.3798 482.385 19.1933 481.764C19.0068 481.143 18.9545 480.489 19.0397 479.846L40.6312 317L94.275 326.161L100 322.707L85.1955 477.217C85.0724 478.26 84.5952 479.228 83.8446 479.959C83.094 480.689 82.1158 481.137 81.0751 481.226L64.832 482.588C64.1862 482.642 63.5364 482.556 62.9264 482.336C62.3165 482.116 61.7606 481.767 61.2965 481.312C60.8324 480.857 60.4708 480.307 60.2362 479.7C60.0016 479.092 59.8995 478.441 59.9368 477.791L64.1421 404.208C64.1495 404.083 64.1106 403.959 64.0328 403.861C63.955 403.764 63.8439 403.698 63.721 403.678C63.5981 403.658 63.4721 403.684 63.3675 403.752C63.2628 403.82 63.1869 403.925 63.1544 404.046L42.3491 481.632C42.0889 482.598 41.5201 483.451 40.7303 484.06C39.9405 484.668 38.9736 484.999 37.9787 485H23.5268C22.8818 485 22.2442 484.861 21.6568 484.593C21.0694 484.325 20.5458 483.934 20.121 483.446Z" fill="#2F2E41"/>
<path d="M57.151 328.413C56.5344 327.854 55.7418 327.529 54.9107 327.494C54.0797 327.46 53.2627 327.718 52.6018 328.223L41.8618 336.589C41.2774 337.046 40.59 337.352 39.8599 337.48C39.1299 337.609 38.3795 337.556 37.6747 337.326C36.9698 337.096 36.3321 336.697 35.8174 336.163C35.3026 335.628 34.9267 334.976 34.7225 334.262C29.4544 315.786 17.519 269.277 20.4593 236.543C22.126 217.988 38.1249 203.886 56.1237 205.069C68.4288 205.891 76.5241 213 80.1848 226.198C89.1727 258.603 99.0503 318.045 100.939 329.632C101.088 330.531 100.962 331.454 100.578 332.28C100.194 333.106 99.5698 333.797 98.7869 334.261C93.7054 337.317 87.8995 338.953 81.9727 339C74.8014 339 66.2027 336.5 57.151 328.413Z" fill="#03C2A7"/>
<path d="M61.9656 340.41C62.0892 338.908 61.8787 337.397 61.3487 335.985C60.8187 334.572 59.9822 333.291 58.8982 332.233C57.8141 331.175 56.5088 330.365 55.0742 329.86C53.6397 329.355 52.1107 329.167 50.5951 329.311L35.1926 296L25 312.144L41.189 341.301C41.601 343.805 42.9268 346.073 44.9151 347.675C46.9034 349.276 49.4161 350.1 51.9771 349.99C54.5381 349.88 56.9694 348.845 58.8104 347.079C60.6513 345.313 61.7739 342.94 61.9656 340.41Z" fill="#FFB8B8"/>
<path d="M34.6013 328.875C33.9756 328.725 33.3884 328.446 32.8779 328.055C32.3675 327.664 31.9451 327.17 31.6384 326.606L15.7004 297.234C10.2498 287.192 8.63866 275.516 11.1667 264.377L19.4908 227.676C19.4978 225.74 19.8869 223.825 20.636 222.039C21.3852 220.254 22.4795 218.633 23.8566 217.27C25.2336 215.907 26.8663 214.828 28.6612 214.096C30.4562 213.363 32.3782 212.991 34.3174 213C36.2566 213.01 38.1749 213.401 39.9626 214.151C41.7503 214.901 43.3724 215.995 44.736 217.372C46.0996 218.748 47.1781 220.379 47.9097 222.172C48.6413 223.965 49.0117 225.884 48.9997 227.82L38.8406 286.639L47.2412 318.319C47.48 319.228 47.4335 320.188 47.1079 321.069C46.7823 321.951 46.1934 322.712 45.4207 323.248L38.2727 328.187C37.5059 328.717 36.5957 329 35.6633 329C35.3056 329 34.9491 328.958 34.6013 328.875Z" fill="#03C2A7"/>
<path opacity="0.2" d="M47 253L38 291L51 323L42 292L47 253Z" fill="black"/>
<path d="M51.9132 195.995C42.7391 196.2 33.6735 190.562 29.5355 182.079C27.515 177.775 26.6786 173.021 27.1109 168.295C27.5431 163.57 29.2286 159.041 31.9974 155.165C34.7618 151.47 38.5355 148.631 42.8756 146.981C47.2157 145.331 51.9421 144.938 56.5 145.85C61.5454 142.677 67.4116 140.541 73.291 141.084C79.1703 141.627 84.9849 145.243 87.1834 150.917C89.382 156.591 87.02 164.07 81.5533 166.376C78.0485 167.855 74.0907 167.138 70.3505 166.541C66.6103 165.945 62.5302 165.556 59.275 167.555C56.0199 169.554 54.5566 174.914 57.4719 177.413C59.0302 178.833 60.1335 180.673 60.6456 182.705C61.1576 184.738 61.0558 186.874 60.353 188.85C58.8878 192.775 54.8889 195.928 51.9132 195.995Z" fill="#2F2E41"/>
<path d="M382.282 245.868C381.69 244.231 380.609 242.816 379.186 241.814C377.762 240.813 376.064 240.275 374.324 240.272H199.829C198.718 240.272 197.619 240.49 196.593 240.915C195.567 241.34 194.634 241.963 193.849 242.748C193.064 243.533 192.441 244.465 192.016 245.491C191.592 246.517 191.373 247.617 191.374 248.727V382.633C191.377 384.874 192.269 387.023 193.854 388.608C195.439 390.193 197.587 391.084 199.829 391.088H374.324C376.565 391.084 378.714 390.193 380.299 388.608C381.884 387.023 382.776 384.874 382.779 382.633V248.727C382.78 247.752 382.612 246.785 382.282 245.868Z" fill="#F2F2F2"/>
<path d="M382.282 77.6668C381.69 76.03 380.609 74.6148 379.186 73.6138C377.762 72.6128 376.064 72.0744 374.324 72.0718H199.829C198.718 72.0714 197.619 72.2897 196.593 72.7145C195.567 73.1392 194.634 73.762 193.849 74.5472C193.064 75.3324 192.441 76.2646 192.016 77.2905C191.592 78.3165 191.373 79.4161 191.374 80.5265V214.432C191.377 216.674 192.269 218.822 193.854 220.407C195.439 221.992 197.587 222.884 199.829 222.887H374.324C376.565 222.884 378.714 221.992 380.299 220.407C381.884 218.822 382.776 216.674 382.779 214.432V80.5265C382.78 79.5516 382.612 78.5839 382.282 77.6668Z" fill="white"/>
<path d="M382.282 77.6668C381.69 76.03 380.609 74.6148 379.186 73.6138C377.762 72.6128 376.064 72.0744 374.324 72.0718H199.829C198.718 72.0714 197.619 72.2897 196.593 72.7145C195.567 73.1392 194.634 73.762 193.849 74.5472C193.064 75.3324 192.441 76.2646 192.016 77.2905C191.592 78.3165 191.373 79.4161 191.374 80.5265V214.432C191.377 216.674 192.269 218.822 193.854 220.407C195.439 221.992 197.587 222.884 199.829 222.887H374.324C376.565 222.884 378.714 221.992 380.299 220.407C381.884 218.822 382.776 216.674 382.779 214.432V80.5265C382.78 79.5516 382.612 78.5839 382.282 77.6668ZM381.784 214.432C381.782 216.41 380.995 218.306 379.597 219.705C378.198 221.103 376.302 221.89 374.324 221.892H199.829C197.851 221.89 195.955 221.103 194.556 219.705C193.158 218.306 192.371 216.41 192.368 214.432V80.5265C192.371 78.5487 193.158 76.6526 194.556 75.2541C195.955 73.8556 197.851 73.0689 199.829 73.0665H374.324C376.302 73.0689 378.198 73.8556 379.596 75.2541C380.995 76.6526 381.782 78.5487 381.784 80.5265V214.432Z" fill="#3F3D56"/>
<path d="M369.321 90.0901V183.592C369.321 183.901 369.26 184.207 369.142 184.493C369.024 184.778 368.851 185.038 368.632 185.257C368.414 185.475 368.155 185.649 367.869 185.767C367.584 185.885 367.278 185.946 366.969 185.946H208.241C208.128 185.947 208.015 185.938 207.904 185.92C207.344 185.839 206.832 185.56 206.462 185.132C206.091 184.705 205.887 184.158 205.887 183.592V90.0901C205.887 89.7811 205.948 89.4751 206.066 89.1895C206.184 88.904 206.357 88.6445 206.576 88.4259C206.794 88.2073 207.054 88.0339 207.339 87.9155C207.625 87.7972 207.931 87.7362 208.24 87.7361H366.967C367.276 87.736 367.582 87.7967 367.868 87.9149C368.153 88.0331 368.413 88.2063 368.631 88.4248C368.85 88.6432 369.023 88.9026 369.142 89.1881C369.26 89.4735 369.321 89.7795 369.321 90.0886V90.0901Z" fill="#E6E6E6"/>
<path d="M245.898 143.33C257.304 143.33 266.55 134.084 266.55 122.678C266.55 111.272 257.304 102.026 245.898 102.026C234.492 102.026 225.245 111.272 225.245 122.678C225.245 134.084 234.492 143.33 245.898 143.33Z" fill="#03C2A7"/>
<path d="M310.661 186.321H209.347C209.22 186.323 209.093 186.313 208.968 186.291L256.885 103.292C257.178 102.775 257.602 102.345 258.115 102.046C258.628 101.747 259.211 101.589 259.805 101.589C260.399 101.589 260.982 101.747 261.495 102.046C262.008 102.345 262.433 102.775 262.725 103.292L294.883 158.991L296.424 161.656L310.661 186.321Z" fill="#39027A"/>
<path opacity="0.2" d="M310.661 186.321H276.07L293.051 161.656L294.273 159.879L294.884 158.991L296.424 161.656L310.661 186.321Z" fill="black"/>
<path d="M367.072 186.321H279.444L296.424 161.656L297.646 159.879L319.774 127.736C321.224 125.629 324.714 125.498 326.42 127.339C326.534 127.464 326.641 127.597 326.738 127.736L367.072 186.321Z" fill="#39027A"/>
<path d="M337.169 253.689C336.578 252.052 335.497 250.637 334.073 249.636C332.65 248.634 330.952 248.096 329.212 248.094H154.716C153.606 248.093 152.506 248.311 151.48 248.736C150.454 249.161 149.522 249.784 148.737 250.569C147.952 251.354 147.329 252.286 146.904 253.312C146.479 254.338 146.261 255.438 146.261 256.548V390.454C146.265 392.695 147.156 394.844 148.741 396.429C150.326 398.014 152.475 398.905 154.716 398.909H329.212C331.453 398.905 333.602 398.014 335.187 396.429C336.772 394.844 337.663 392.695 337.667 390.454V256.548C337.668 255.573 337.5 254.606 337.169 253.689Z" fill="white"/>
<path d="M337.169 253.689C336.578 252.052 335.497 250.637 334.073 249.636C332.65 248.634 330.952 248.096 329.212 248.094H154.716C153.606 248.093 152.506 248.311 151.48 248.736C150.454 249.161 149.522 249.784 148.737 250.569C147.952 251.354 147.329 252.286 146.904 253.312C146.479 254.338 146.261 255.438 146.261 256.548V390.454C146.265 392.695 147.156 394.844 148.741 396.429C150.326 398.014 152.475 398.905 154.716 398.909H329.212C331.453 398.905 333.602 398.014 335.187 396.429C336.772 394.844 337.663 392.695 337.667 390.454V256.548C337.668 255.573 337.5 254.606 337.169 253.689ZM336.672 390.454C336.669 392.432 335.883 394.328 334.484 395.726C333.086 397.125 331.19 397.912 329.212 397.914H154.716C152.738 397.912 150.842 397.125 149.444 395.726C148.045 394.328 147.259 392.432 147.256 390.454V256.548C147.259 254.57 148.045 252.674 149.444 251.276C150.842 249.877 152.738 249.091 154.716 249.088H329.212C331.19 249.091 333.086 249.877 334.484 251.276C335.883 252.674 336.669 254.57 336.672 256.548L336.672 390.454Z" fill="#3F3D56"/>
<path d="M324.209 266.112V359.614C324.209 359.923 324.148 360.229 324.03 360.515C323.912 360.8 323.738 361.06 323.52 361.278C323.302 361.497 323.042 361.67 322.757 361.789C322.471 361.907 322.165 361.968 321.856 361.968H163.129C163.016 361.969 162.903 361.96 162.792 361.942C162.232 361.861 161.72 361.581 161.349 361.154C160.979 360.726 160.775 360.18 160.775 359.614V266.112C160.775 265.803 160.836 265.497 160.954 265.211C161.072 264.926 161.245 264.666 161.464 264.448C161.682 264.229 161.941 264.056 162.227 263.937C162.512 263.819 162.818 263.758 163.127 263.758H321.855C322.164 263.758 322.47 263.818 322.755 263.937C323.041 264.055 323.3 264.228 323.519 264.447C323.738 264.665 323.911 264.924 324.029 265.21C324.148 265.495 324.209 265.801 324.209 266.11V266.112Z" fill="#E6E6E6"/>
<path d="M200.785 319.352C212.191 319.352 221.438 310.106 221.438 298.7C221.438 287.294 212.191 278.048 200.785 278.048C189.379 278.048 180.133 287.294 180.133 298.7C180.133 310.106 189.379 319.352 200.785 319.352Z" fill="#39027A"/>
<path d="M265.549 362.343H164.235C164.108 362.345 163.981 362.335 163.856 362.313L211.773 279.314C212.065 278.797 212.49 278.367 213.003 278.068C213.516 277.769 214.099 277.611 214.693 277.611C215.287 277.611 215.87 277.769 216.383 278.068C216.896 278.367 217.321 278.797 217.613 279.314L249.771 335.013L251.312 337.678L265.549 362.343Z" fill="#03C2A7"/>
<path opacity="0.2" d="M265.549 362.343H230.958L247.938 337.678L249.16 335.901L249.772 335.013L251.312 337.678L265.549 362.343Z" fill="black"/>
<path d="M321.96 362.343H234.331L251.312 337.678L252.534 335.901L274.661 303.758C276.112 301.651 279.602 301.52 281.307 303.36C281.422 303.486 281.528 303.619 281.626 303.758L321.96 362.343Z" fill="#03C2A7"/>
<path d="M259.033 449.544H208.741C205.314 449.544 202.027 448.183 199.603 445.76C197.18 443.336 195.819 440.049 195.819 436.622C195.819 433.195 197.18 429.908 199.603 427.485C202.027 425.061 205.314 423.7 208.741 423.7H259.033C262.46 423.7 265.747 425.061 268.17 427.485C270.594 429.908 271.955 433.195 271.955 436.622C271.955 440.049 270.594 443.336 268.17 445.76C265.747 448.183 262.46 449.544 259.033 449.544Z" fill="#39027A"/>
<path d="M358.974 449.544H308.682C305.255 449.544 301.968 448.183 299.545 445.76C297.121 443.336 295.76 440.049 295.76 436.622C295.76 433.195 297.121 429.908 299.545 427.485C301.968 425.061 305.255 423.7 308.682 423.7H358.974C362.401 423.7 365.688 425.061 368.112 427.485C370.535 429.908 371.896 433.195 371.896 436.622C371.896 440.049 370.535 443.336 368.112 445.76C365.688 448.183 362.401 449.544 358.974 449.544Z" fill="#F2F2F2"/>
</svg>
