<svg width="512" height="512" viewBox="0 0 512 512" fill="none" xmlns="http://www.w3.org/2000/svg">
<path d="M72.9646 433.714C72.3394 433.742 71.7205 433.578 71.1917 433.243C70.663 432.909 70.2499 432.419 70.0084 431.842C69.767 431.265 69.7089 430.627 69.842 430.015C69.9751 429.404 70.2929 428.848 70.7525 428.423C70.8295 428.117 70.8847 427.898 70.9616 427.592C70.9341 427.525 70.9064 427.459 70.8785 427.392C70.2487 425.905 69.1933 424.636 67.845 423.746C66.4966 422.857 64.9154 422.385 63.2999 422.391C61.6845 422.397 60.1068 422.88 58.7651 423.78C57.4234 424.68 56.3775 425.956 55.7587 427.448C53.2858 433.404 50.1373 439.37 49.3621 445.668C49.0207 448.451 49.1647 451.273 49.7878 454.008C43.9796 441.338 40.9635 427.567 40.9441 413.629C40.9429 410.132 41.1372 406.637 41.5262 403.161C41.8476 400.312 42.2936 397.482 42.8641 394.673C45.9771 379.433 52.661 365.148 62.3669 352.992C67.0645 350.429 70.8635 346.487 73.252 341.699C74.1173 339.977 74.7288 338.14 75.0677 336.243C74.5378 336.313 73.9991 336.356 73.4692 336.391C73.3042 336.399 73.1304 336.408 72.9653 336.417L72.9031 336.42C72.3207 336.446 71.7431 336.303 71.24 336.008C70.7368 335.714 70.3295 335.28 70.0671 334.76C69.8047 334.239 69.6983 333.654 69.7608 333.074C69.8233 332.495 70.052 331.945 70.4194 331.493C70.6482 331.211 70.8772 330.93 71.1062 330.648C71.4537 330.214 71.8099 329.788 72.1574 329.354C72.1975 329.313 72.2352 329.269 72.2703 329.224C72.67 328.728 73.0695 328.242 73.4692 327.747C72.7397 326.615 71.7586 325.666 70.6024 324.976C66.5975 322.63 61.0724 324.255 58.1796 327.877C55.278 331.5 54.7308 336.582 55.7384 341.108C56.7294 344.959 58.3687 348.614 60.586 351.915C60.3687 352.193 60.1429 352.462 59.9257 352.74C55.9556 357.845 52.4953 363.327 49.5946 369.107C50.3 362.632 49.4581 356.081 47.1381 349.995C44.7867 344.323 40.3795 339.545 36.4984 334.642C31.8366 328.751 22.2771 331.322 21.4557 338.789C21.4478 338.861 21.44 338.933 21.4325 339.006C22.0089 339.331 22.5732 339.676 23.1253 340.041C23.8189 340.505 24.3564 341.167 24.6673 341.941C24.9781 342.715 25.0479 343.565 24.8675 344.379C24.687 345.194 24.2648 345.935 23.6561 346.505C23.0474 347.075 22.2805 347.448 21.4561 347.576L21.3717 347.589C21.577 349.666 21.9401 351.725 22.4576 353.748C23.9571 359.394 26.607 364.67 30.2411 369.245C33.8752 373.819 38.4151 377.593 43.5763 380.331C43.9151 380.505 44.2452 380.678 44.584 380.843C41.6697 389.103 39.8416 397.706 39.1458 406.436C38.7519 411.587 38.7751 416.761 39.2153 421.908L39.1892 421.726C38.0772 416.002 35.024 410.838 30.5454 407.105C23.8935 401.641 14.4956 399.628 7.31934 395.236C6.55667 394.747 5.66988 394.485 4.76356 394.483C3.85724 394.481 2.96919 394.738 2.20415 395.224C1.43911 395.71 0.828989 396.404 0.445749 397.226C0.0625084 398.047 -0.0778726 398.961 0.0411731 399.859C0.0507976 399.923 0.0605835 399.987 0.0705234 400.051C1.14028 400.487 2.18187 400.989 3.18923 401.554C3.7657 401.879 4.32999 402.224 4.88211 402.589C5.57572 403.053 6.11316 403.715 6.42403 404.489C6.73489 405.263 6.80468 406.113 6.62425 406.927C6.44381 407.742 6.02158 408.483 5.41285 409.053C4.80413 409.623 4.03732 409.997 3.21288 410.124L3.1284 410.137C3.06758 410.145 3.01547 410.154 2.95475 410.163C4.78258 414.527 7.348 418.544 10.5387 422.038C14.4802 426.268 19.2441 429.648 24.5382 431.97C29.8323 434.293 35.5451 435.51 41.3263 435.547H41.335C42.9044 442.367 45.1782 449.005 48.1198 455.354H72.3572C72.4441 455.085 72.5223 454.807 72.6005 454.537C70.357 454.678 68.1047 454.544 65.8939 454.138C67.6922 451.931 69.4904 449.707 71.2887 447.501C71.3288 447.459 71.3665 447.416 71.4016 447.37C72.3138 446.241 73.2346 445.12 74.1468 443.991L74.1473 443.99C74.1959 440.528 73.7979 437.074 72.9646 433.714Z" fill="#03C2A7"/>
<path d="M94.922 201.824C87.9859 202.888 80.8901 201.871 74.5319 198.902C68.1738 195.933 62.8389 191.145 59.2018 185.144C55.5648 179.143 53.7889 172.198 54.0988 165.188C54.4088 158.177 56.7905 151.416 60.943 145.76C65.0954 140.103 70.832 135.805 77.4274 133.408C84.0227 131.012 91.1805 130.625 97.9957 132.297C104.811 133.968 110.977 137.623 115.715 142.799C120.453 147.976 123.55 154.441 124.614 161.377C125.32 165.982 125.112 170.682 124.002 175.207C122.892 179.732 120.902 183.994 118.145 187.75C115.388 191.506 111.918 194.682 107.933 197.097C103.949 199.512 99.5274 201.118 94.922 201.824ZM84.4219 133.355C77.816 134.368 71.659 137.317 66.7292 141.83C61.7995 146.342 58.3185 152.215 56.7265 158.705C55.1345 165.196 55.5029 172.013 57.7852 178.294C60.0675 184.576 64.1612 190.039 69.5486 193.994C74.9359 197.948 81.375 200.217 88.0516 200.512C94.7281 200.807 101.342 199.116 107.058 195.652C112.773 192.188 117.333 187.107 120.16 181.052C122.988 174.997 123.957 168.239 122.944 161.633C122.271 157.247 120.741 153.036 118.441 149.241C116.141 145.446 113.116 142.142 109.539 139.516C105.962 136.89 101.903 134.994 97.5933 133.937C93.2836 132.88 88.808 132.683 84.4219 133.355Z" fill="#03C2A7"/>
<path d="M283.302 342.898C276.366 343.962 269.27 342.945 262.912 339.976C256.554 337.007 251.219 332.219 247.582 326.218C243.945 320.217 242.169 313.272 242.479 306.262C242.789 299.251 245.171 292.49 249.323 286.834C253.476 281.177 259.212 276.879 265.807 274.482C272.403 272.086 279.561 271.699 286.376 273.371C293.191 275.042 299.358 278.697 304.095 283.873C308.833 289.05 311.93 295.515 312.994 302.451C313.7 307.056 313.492 311.756 312.382 316.281C311.272 320.806 309.282 325.068 306.525 328.824C303.768 332.58 300.298 335.756 296.313 338.171C292.329 340.586 287.908 342.192 283.302 342.898ZM272.802 274.429C266.196 275.442 260.039 278.391 255.109 282.904C250.18 287.416 246.699 293.289 245.107 299.779C243.515 306.27 243.883 313.087 246.165 319.368C248.448 325.65 252.541 331.113 257.929 335.068C263.316 339.022 269.755 341.291 276.432 341.586C283.108 341.881 289.722 340.19 295.438 336.726C301.153 333.262 305.713 328.181 308.54 322.126C311.368 316.07 312.337 309.313 311.324 302.707C309.965 293.849 305.144 285.893 297.919 280.59C290.695 275.287 281.66 273.071 272.802 274.429Z" fill="#03C2A7"/>
<path d="M87.3192 309.108C80.3831 310.172 73.2873 309.155 66.9292 306.186C60.5711 303.217 55.2361 298.429 51.5991 292.428C47.962 286.427 46.1861 279.482 46.4961 272.472C46.806 265.461 49.1878 258.7 53.3402 253.043C57.4926 247.387 63.2293 243.088 69.8246 240.692C76.4199 238.295 83.5778 237.909 90.393 239.58C97.2082 241.252 103.375 244.907 108.113 250.083C112.85 255.259 115.947 261.724 117.011 268.66C117.717 273.266 117.509 277.965 116.399 282.49C115.289 287.015 113.299 291.278 110.542 295.034C107.785 298.79 104.315 301.966 100.33 304.381C96.3459 306.795 91.9246 308.402 87.3192 309.108ZM76.8191 240.639C70.2133 241.652 64.0562 244.601 59.1264 249.113C54.1967 253.626 50.7158 259.498 49.1237 265.989C47.5317 272.48 47.9002 279.297 50.1825 285.578C52.4648 291.859 56.5584 297.323 61.9458 301.277C67.3331 305.232 73.7722 307.501 80.4488 307.796C87.1253 308.091 93.7394 306.4 99.4547 302.936C105.17 299.472 109.73 294.391 112.558 288.336C115.385 282.28 116.354 275.522 115.341 268.916C113.982 260.058 109.161 252.103 101.936 246.8C94.7123 241.496 85.6773 239.28 76.8191 240.639Z" fill="#03C2A7"/>
<path d="M294.012 213.53C287.076 214.594 279.98 213.577 273.622 210.608C267.264 207.639 261.929 202.851 258.292 196.85C254.655 190.849 252.879 183.904 253.189 176.894C253.499 169.883 255.881 163.122 260.033 157.465C264.186 151.809 269.922 147.51 276.517 145.114C283.113 142.718 290.271 142.331 297.086 144.002C303.901 145.674 310.067 149.329 314.805 154.505C319.543 159.681 322.64 166.146 323.704 173.083C325.13 182.384 322.803 191.87 317.235 199.456C311.667 207.041 303.313 212.104 294.012 213.53ZM283.512 145.061C276.906 146.074 270.749 149.023 265.819 153.535C260.89 158.048 257.409 163.921 255.817 170.411C254.225 176.902 254.593 183.719 256.875 190C259.158 196.281 263.251 201.745 268.639 205.7C274.026 209.654 280.465 211.923 287.142 212.218C293.818 212.513 300.432 210.822 306.148 207.358C311.863 203.894 316.423 198.813 319.25 192.758C322.078 186.702 323.047 179.944 322.034 173.339C320.675 164.48 315.854 156.525 308.629 151.222C301.405 145.919 292.37 143.702 283.512 145.061Z" fill="#03C2A7"/>
<path d="M296.491 295.151L300.538 293.676C300.538 293.676 297.633 298.138 297.003 298.491C297.069 299.335 297.197 300.172 297.387 300.996C294.647 336.627 262.758 325.963 262.758 325.963C273.568 324.562 273.807 319.996 273.807 319.996C267.404 320.038 265.524 316.138 265.524 316.138C266.132 316.348 266.795 316.327 267.388 316.079C267.98 315.83 268.461 315.372 268.736 314.791C261.704 314.075 261.611 307.337 261.611 307.337C262.95 308.023 264.442 308.353 265.945 308.296C265.053 307.493 257.542 300.868 260.781 296.354C260.781 296.354 266.738 303.987 279.127 302.856L279.937 302.561C279.702 301.982 279.551 301.372 279.488 300.75C279.131 298.425 279.713 296.053 281.105 294.157C282.497 292.26 284.585 290.995 286.911 290.638C292.756 289.742 294.52 292.89 294.52 292.89L298.311 289.744C298.228 289.757 298.45 293.996 296.491 295.151Z" fill="#03C2A7"/>
<path d="M88.8324 255.225C91.1695 254.874 93.5507 255.462 95.4559 256.86C97.3611 258.259 98.6354 260.354 99.0007 262.689L101.704 280.32C102.056 282.657 101.468 285.038 100.069 286.943C98.6708 288.849 96.5752 290.123 94.2402 290.488L76.6095 293.192C74.2724 293.543 71.8912 292.955 69.986 291.557C68.0808 290.158 66.8065 288.063 66.4413 285.728L63.7375 268.097C63.3862 265.76 63.974 263.379 65.3726 261.474C66.7711 259.568 68.8668 258.294 71.2018 257.929L88.8324 255.225ZM88.2917 251.699L70.661 254.403C67.392 254.914 64.4582 256.698 62.5002 259.365C60.5423 262.032 59.7195 265.366 60.2116 268.638L62.9153 286.268C63.4263 289.537 65.2103 292.471 67.8775 294.429C70.5447 296.387 73.8784 297.21 77.1503 296.718L94.7809 294.014C98.0498 293.503 100.984 291.719 102.942 289.052C104.9 286.385 105.722 283.051 105.23 279.779L102.527 262.149C102.016 258.88 100.232 255.946 97.5643 253.988C94.8971 252.03 91.5635 251.207 88.2917 251.699Z" fill="#03C2A7"/>
<path d="M92.8291 263.636C92.1295 263.741 91.4167 263.565 90.8471 263.145C90.2776 262.726 89.8979 262.097 89.7916 261.398C89.6852 260.698 89.8608 259.985 90.2799 259.415C90.699 258.845 91.3272 258.465 92.0265 258.358C92.7258 258.251 93.439 258.425 94.0095 258.844C94.5799 259.262 94.9609 259.89 95.0688 260.589C95.1766 261.289 95.0026 262.002 94.5847 262.573C94.1669 263.144 93.5395 263.525 92.8404 263.634L92.8291 263.636Z" fill="#03C2A7"/>
<path d="M81.6392 267.155C83.0341 266.942 84.4611 267.146 85.7398 267.743C87.0185 268.34 88.0914 269.303 88.8228 270.51C89.5543 271.717 89.9114 273.114 89.8491 274.523C89.7867 275.933 89.3077 277.293 88.4726 278.431C87.6375 279.568 86.4839 280.433 85.1575 280.915C83.8311 281.397 82.3916 281.474 81.021 281.138C79.6504 280.802 78.4103 280.067 77.4574 279.026C76.5046 277.985 75.8819 276.685 75.6679 275.29C75.5259 274.364 75.5677 273.419 75.7909 272.509C76.0141 271.599 76.4144 270.741 76.9689 269.986C77.5234 269.231 78.2212 268.592 79.0225 268.106C79.8239 267.621 80.713 267.298 81.6392 267.155ZM81.0985 263.63C79.0062 263.95 77.0561 264.884 75.4947 266.314C73.9332 267.743 72.8307 269.603 72.3264 271.659C71.8222 273.715 71.9389 275.874 72.6618 277.863C73.3846 279.853 74.6812 281.583 76.3876 282.836C78.0939 284.088 80.1334 284.807 82.248 284.9C84.3627 284.994 86.4576 284.458 88.2678 283.361C90.0781 282.264 91.5223 280.655 92.4179 278.737C93.3136 276.819 93.6204 274.678 93.2995 272.586C92.8692 269.78 91.3421 267.261 89.0539 265.581C86.7658 263.901 83.9041 263.199 81.0985 263.63Z" fill="#03C2A7"/>
<path d="M286.379 155.559C281.098 156.37 276.257 158.972 272.669 162.93C269.081 166.888 266.964 171.961 266.674 177.295C266.384 182.63 267.939 187.901 271.077 192.225C274.215 196.549 278.745 199.661 283.907 201.039C283.539 199.285 283.401 197.49 283.498 195.7C283.653 193.764 284.532 182.711 284.532 182.711C283.854 181.643 283.412 180.443 283.236 179.19C282.713 175.782 284.294 172.934 286.758 172.556C288.852 172.235 290.099 173.651 290.387 175.53C290.71 177.634 289.847 180.982 289.606 184.003C289.552 184.565 289.63 185.131 289.835 185.656C290.04 186.181 290.365 186.651 290.785 187.027C291.205 187.404 291.707 187.676 292.251 187.823C292.796 187.969 293.367 187.986 293.919 187.871C298.272 187.203 300.35 181.158 299.333 174.526C298.56 169.485 294.584 166.238 288.414 167.184C281.443 168.253 277.888 174.126 278.779 179.937C278.962 181.586 279.749 183.109 280.99 184.211C281.196 184.334 281.359 184.52 281.453 184.742C281.548 184.963 281.569 185.209 281.515 185.444C281.467 185.882 281.376 186.936 281.326 187.364C281.325 187.491 281.295 187.617 281.236 187.73C281.177 187.842 281.092 187.939 280.988 188.013C280.885 188.086 280.765 188.134 280.639 188.152C280.513 188.17 280.385 188.157 280.264 188.116C276.849 187.294 274.812 184.013 274.204 180.05C273.203 173.521 277.515 164.842 288.438 163.167C297.216 161.82 303.971 167.289 305.016 174.106C306.4 183.13 302.413 190.635 295.021 191.769C292.536 192.15 290 191.162 288.966 189.765C288.966 189.765 288.444 195.268 288.314 196.338C288.05 198.164 287.527 199.943 286.759 201.621C290.066 202.07 293.43 201.803 296.624 200.837C299.818 199.872 302.767 198.231 305.271 196.026C307.775 193.821 309.776 191.103 311.137 188.057C312.498 185.01 313.189 181.707 313.161 178.37C313.133 175.034 312.389 171.742 310.977 168.719C309.566 165.695 307.52 163.011 304.98 160.847C302.44 158.684 299.464 157.092 296.255 156.18C293.045 155.267 289.677 155.056 286.379 155.559Z" fill="#03C2A7"/>
<path fill-rule="evenodd" clip-rule="evenodd" d="M112.491 163.377C111.818 158.996 109.904 154.899 106.976 151.572C104.048 148.245 100.227 145.827 95.967 144.604C91.7069 143.38 87.1854 143.403 82.938 144.67C78.6906 145.937 74.895 148.394 72.0005 151.75C69.1061 155.107 67.2341 159.223 66.6061 163.61C65.9781 167.998 66.6204 172.473 68.4569 176.507C70.2935 180.541 73.2475 183.964 76.9691 186.371C80.6907 188.779 85.0241 190.069 89.4563 190.09L86.9996 174.071L81.1771 174.964L80.1605 168.335L85.983 167.442L85.2083 162.39C84.3273 156.645 87.2638 152.944 92.4998 152.141C94.2231 151.902 95.9615 151.788 97.7013 151.803L98.5666 157.445L95.6743 157.888C92.828 158.325 92.2085 160.228 92.4869 162.044L93.1464 166.344L99.5042 165.369L99.5055 172.154L94.163 172.973L96.6198 188.994C101.882 187.312 106.371 183.809 109.281 179.113C112.19 174.417 113.328 168.837 112.491 163.377Z" fill="#03C2A7"/>
<path d="M138.948 442.524L147.431 444.751L160.061 413.089L147.54 409.801L138.948 442.524Z" fill="#FFB6B6"/>
<path d="M136.325 451.295L162.413 458.146L162.5 457.816C163.207 455.123 162.815 452.259 161.411 449.855C160.007 447.451 157.706 445.703 155.013 444.995L151.196 440.128L141.356 441.409L139.079 440.811L136.325 451.295Z" fill="#2F2E41"/>
<path d="M182.438 448.871H191.208L195.382 415.038L182.437 415.039L182.438 448.871Z" fill="#FFB6B6"/>
<path d="M182.129 458.021L209.101 458.02V457.679C209.101 454.894 207.995 452.224 206.026 450.255C204.058 448.287 201.387 447.181 198.603 447.18L193.676 443.443L184.483 447.181L182.129 447.181L182.129 458.021Z" fill="#2F2E41"/>
<path d="M160.5 286.972C158.381 289.621 159.441 298.626 159.441 298.626C159.441 298.626 155.733 327.759 157.322 330.407C158.911 333.056 156.262 335.175 154.673 338.883C153.084 342.591 151.495 351.595 151.495 351.595C142.49 359.011 143.02 392.912 143.02 392.912L139.842 423.105C140.901 426.283 155.733 426.812 157.852 426.283C159.97 425.753 180.628 351.066 180.628 351.066C180.628 351.066 179.569 423.105 179.569 426.283C179.569 429.461 193.871 427.872 197.049 427.872C200.227 427.872 220.356 298.096 220.356 298.096V290.68L217.707 286.972C217.707 286.972 162.619 284.324 160.5 286.972Z" fill="#2F2E41"/>
<path d="M183.807 190.038C192.876 190.038 200.227 182.686 200.227 173.617C200.227 164.548 192.876 157.196 183.807 157.196C174.738 157.196 167.386 164.548 167.386 173.617C167.386 182.686 174.738 190.038 183.807 190.038Z" fill="#FFB6B6"/>
<path d="M161.745 298.687L161.656 298.561C156.873 291.865 164.067 275.772 165.152 273.44C163.863 273.022 162.76 272.17 162.029 271.029C161.298 269.889 160.985 268.53 161.143 267.185L161.611 263.209L162.098 259.309L158.605 255.816L158.596 255.729L156.586 238.14L153.663 226.458C152.562 222.042 152.656 217.412 153.935 213.044C155.214 208.676 157.633 204.727 160.942 201.603L167.698 200.53L175.908 192.619H189.148L193.688 196.957C202.613 204.273 204.732 201.095 214.796 214.867L207.59 233.852L211.618 261.853L211.621 266.921L213.718 269.252C214.474 270.092 215.023 271.097 215.322 272.186C215.621 273.276 215.661 274.42 215.439 275.528L215.164 276.907C216.23 277.364 217.171 278.07 217.908 278.966C218.645 279.862 219.157 280.921 219.4 282.055L220.137 285.493C220.767 286.325 224.928 291.873 224.928 293.39C224.928 293.618 224.76 293.838 224.399 294.082C221.563 296.002 205.891 299.916 198.954 297.141C191.565 294.186 162.194 298.618 161.898 298.664L161.745 298.687Z" fill="#39027A"/>
<path d="M153.403 232.077L167.057 229.404C172.106 236.944 174.817 257.564 174.817 257.564L189.912 288.869C190.84 289.433 191.602 290.232 192.12 291.186C192.638 292.14 192.895 293.214 192.863 294.3C192.831 295.385 192.512 296.442 191.938 297.364C191.365 298.286 190.557 299.039 189.598 299.547C188.639 300.055 187.562 300.3 186.477 300.257C185.392 300.213 184.338 299.883 183.423 299.3C182.507 298.716 181.762 297.901 181.264 296.936C180.767 295.971 180.533 294.892 180.588 293.808L160.9 256.716L153.403 232.077Z" fill="#FFB6B6"/>
<path d="M153.327 235.316L152.938 215.023L159.364 206.428C160.631 204.745 162.344 203.45 164.309 202.689C166.274 201.929 168.412 201.733 170.482 202.124C173.285 202.673 175.775 204.266 177.448 206.581C179.122 208.895 179.854 211.759 179.496 214.592C178.406 223.185 175.93 233.938 170.328 236.371L170.271 236.396L176.077 256.7L154.547 259.707L153.327 235.316Z" fill="#39027A"/>
<path d="M241.421 218.161C241.421 218.161 221.048 213.985 212.271 216.292L210.335 230.07L235.186 232.276L277.603 224.566C278.611 224.964 279.706 225.089 280.778 224.927C281.849 224.765 282.859 224.323 283.705 223.645C284.55 222.966 285.201 222.076 285.591 221.065C285.982 220.054 286.098 218.958 285.927 217.887C285.757 216.817 285.306 215.811 284.621 214.971C283.936 214.131 283.041 213.487 282.027 213.105C281.013 212.723 279.916 212.616 278.847 212.795C277.778 212.974 276.775 213.432 275.941 214.124L241.421 218.161Z" fill="#FFB6B6"/>
<path d="M216.752 233.296L196.578 231.072L188.88 223.594C187.374 222.121 186.31 220.256 185.808 218.209C185.307 216.163 185.388 214.017 186.042 212.015C186.947 209.306 188.846 207.041 191.357 205.68C193.867 204.318 196.801 203.96 199.565 204.679C207.946 206.865 216.333 204.826 218.025 210.694L221.046 209.705L240.883 213.484L241.097 235.222L216.752 233.296Z" fill="#39027A"/>
<path d="M165.181 162.827C167.025 159.975 170.485 158.074 173.84 158.608C174.152 156.467 175.045 154.453 176.423 152.785C177.801 151.117 179.609 149.859 181.652 149.148C183.696 148.437 185.895 148.3 188.01 148.752C190.126 149.204 192.077 150.228 193.651 151.712C194.168 151.347 194.771 151.123 195.401 151.059C196.031 150.996 196.667 151.097 197.246 151.352C198.401 151.877 199.405 152.683 200.167 153.696C202.092 156.097 203.33 158.974 203.749 162.022C204.168 165.07 203.753 168.175 202.548 171.006C202.958 169.515 201.465 168.113 199.956 167.779C198.447 167.444 196.864 167.761 195.333 167.543C193.372 167.264 191.609 166.126 189.645 165.87C187.979 165.762 186.308 165.977 184.724 166.503C183.14 167.028 181.471 167.252 179.805 167.163C178.151 166.967 176.022 173.232 176.05 177.645C176.056 178.482 175.883 179.555 175.066 179.733C174.06 179.951 173.476 178.562 172.518 178.184C172.077 178.057 171.603 178.107 171.198 178.323C170.792 178.538 170.486 178.903 170.344 179.34C170.224 179.784 170.211 180.25 170.307 180.7C170.403 181.151 170.605 181.571 170.896 181.927C171.485 182.634 172.184 183.24 172.966 183.723L172.572 184.051C172.197 184.447 171.697 184.7 171.156 184.767C170.615 184.835 170.068 184.712 169.608 184.42C168.704 183.807 167.971 182.973 167.48 181.997C165.631 179.137 164.309 175.97 163.577 172.644C162.855 169.287 163.428 165.781 165.181 162.827Z" fill="#2F2E41"/>
<path d="M302.945 444.664L296.432 434.197L295.131 440.178C294.903 441.226 294.675 442.29 294.463 443.346C292.614 441.766 290.645 440.305 288.719 438.902C282.806 434.611 276.896 430.314 270.988 426.011L272.838 436.74C273.978 443.346 275.169 450.087 277.991 456.127C278.303 456.811 278.641 457.487 279.005 458.146H306.493C306.714 457.534 306.867 456.899 306.949 456.254C306.956 456.212 306.959 456.169 306.957 456.127C307.388 452.03 305.124 448.169 302.945 444.664Z" fill="#03C2A7"/>
<path d="M476.49 137.226C468.307 138.481 459.936 137.281 452.436 133.779C444.935 130.276 438.642 124.628 434.351 117.549C430.061 110.469 427.966 102.276 428.331 94.0064C428.697 85.7363 431.506 77.7604 436.405 71.0872C441.304 64.4141 448.071 59.3434 455.851 56.5163C463.632 53.6893 472.076 53.2329 480.116 55.2049C488.156 57.1769 495.43 61.4887 501.019 67.595C506.609 73.7013 510.262 81.3279 511.516 89.5104C512.35 94.9434 512.105 100.487 510.795 105.825C509.486 111.164 507.138 116.192 503.885 120.623C500.633 125.053 496.539 128.8 491.839 131.649C487.138 134.498 481.923 136.393 476.49 137.226ZM464.103 56.4537C456.31 57.6488 449.047 61.1279 443.231 66.451C437.415 71.7741 433.309 78.7022 431.431 86.3592C429.553 94.0161 429.987 102.058 432.68 109.468C435.372 116.878 440.202 123.323 446.557 127.988C452.912 132.654 460.508 135.33 468.385 135.678C476.261 136.026 484.063 134.031 490.806 129.945C497.548 125.858 502.927 119.864 506.263 112.721C509.599 105.578 510.741 97.6053 509.546 89.8125C507.944 79.3627 502.256 69.9774 493.733 63.7215C485.211 57.4655 474.553 54.8512 464.103 56.4537Z" fill="#03C2A7"/>
<path d="M491.659 75.8868L455.119 70.5026C454.18 70.3173 453.205 70.5127 452.41 71.0458C451.615 71.5789 451.064 72.4061 450.878 73.3454L450.875 73.3612L445.479 109.983C445.359 110.972 445.623 111.969 446.216 112.769C446.809 113.57 447.686 114.113 448.667 114.286L485.197 119.669C486.164 119.772 487.133 119.491 487.894 118.886C488.655 118.28 489.146 117.4 489.262 116.434L494.659 79.8126C494.805 78.9247 494.592 78.0152 494.068 77.284C493.543 76.5529 492.75 76.06 491.862 75.9139C491.795 75.9029 491.727 75.8938 491.659 75.8868ZM459.572 108.447L453.3 107.522L456.173 88.0203L462.446 88.9445L459.572 108.447ZM459.963 85.5493L459.918 85.5427C459.017 85.4039 458.207 84.9134 457.666 84.1786C457.126 83.4439 456.899 82.5248 457.034 81.6228C457.17 80.7208 457.658 79.9094 458.391 79.3664C459.124 78.8235 460.042 78.5931 460.945 78.726C461.847 78.8588 462.66 79.344 463.206 80.0751C463.751 80.8063 463.984 81.7238 463.854 82.6267C463.725 83.5296 463.242 84.3442 462.513 84.892C461.783 85.4398 460.867 85.6762 459.963 85.5493ZM482.496 111.825L476.223 110.9L477.795 100.237C478.171 97.6822 477.515 95.8023 475.246 95.4679C474.535 95.3689 473.812 95.4929 473.174 95.8227C472.537 96.1525 472.018 96.6719 471.689 97.3092C471.449 97.7801 471.298 98.2916 471.245 98.8175L469.608 109.926L463.336 109.001L466.209 89.4992L472.482 90.4234L472.082 93.1374C472.798 92.2337 473.745 91.5397 474.823 91.1285C475.9 90.7173 477.069 90.604 478.205 90.8005C482.323 91.4071 485.038 94.5801 484.175 100.431L482.496 111.825Z" fill="#03C2A7"/>
</svg>
