<svg width="512" height="512" viewBox="0 0 512 512" fill="none" xmlns="http://www.w3.org/2000/svg">
<g clip-path="url(#clip0_2167_4886)">
<path opacity="0.1" d="M512 256C512.007 269.975 510.876 283.928 508.617 297.72C508.434 298.859 508.237 299.998 508.033 301.138C493.377 383.543 439.286 452.318 365.967 487.244C365.616 487.413 365.257 487.582 364.898 487.75C362.036 489.101 359.141 490.399 356.213 491.647C355.425 491.977 354.644 492.308 353.85 492.631C337.996 499.197 321.518 504.138 304.668 507.379C303.923 507.527 303.177 507.661 302.432 507.794C287.176 510.589 271.699 511.997 256.19 512H255.48C254.101 512 252.723 511.986 251.351 511.951C251.091 511.951 250.831 511.951 250.571 511.937C235.107 511.624 219.703 509.915 204.547 506.831C203.808 506.676 203.07 506.521 202.331 506.36C188.702 503.459 175.336 499.436 162.37 494.333C161.575 494.031 160.795 493.714 160.007 493.391C157.081 492.216 154.186 490.983 151.321 489.691C150.963 489.53 150.604 489.368 150.252 489.206C74.7956 454.935 18.9046 385.118 3.9666 301.138C3.76264 299.998 3.56572 298.859 3.38286 297.72C-1.11817 270.151 -1.12766 242.035 3.35473 214.463C3.60792 212.881 3.88221 211.291 4.17759 209.716C6.19024 198.658 8.93922 187.747 12.4062 177.055C12.7578 175.965 13.1165 174.875 13.4822 173.785C47.7328 72.735 143.374 0 256 0C381.581 0 486.041 90.4299 507.822 209.716C508.118 211.291 508.392 212.881 508.645 214.463C510.884 228.195 512.006 242.087 512 256Z" fill="#03C2A7"/>
<path d="M218.651 100.705H217.285C217.007 100.705 216.32 99.6132 216.32 99.3V98.0313C216.32 97.0414 215.2 94.3254 214.21 94.3254C213.22 94.3254 212.1 97.0414 212.1 98.0313V99.3C212.1 99.7463 211.755 100.705 211.334 100.705H209.968C208.978 100.705 206.262 101.473 206.262 102.463C206.262 103.453 208.978 104.221 209.968 104.221H211.597C212.113 104.221 212.1 104.752 212.1 105.022V106.714C212.1 107.704 213.22 110.42 214.21 110.42C215.2 110.42 216.32 107.704 216.32 106.714V105.022C216.32 104.797 216.772 104.221 217.022 104.221H218.651C219.641 104.221 222.357 103.453 222.357 102.463C222.357 101.473 219.641 100.705 218.651 100.705Z" fill="#2196F3"/>
<path d="M27.341 173.312H25.5372C25.1698 173.312 24.2613 171.87 24.2613 171.457V169.781C24.2613 168.473 22.7819 164.885 21.474 164.885C20.1662 164.885 18.6869 168.473 18.6869 169.781V171.457C18.6869 172.046 18.2316 173.312 17.675 173.312H15.8712C14.5634 173.312 10.9756 174.327 10.9756 175.635C10.9756 176.943 14.5633 177.958 15.8712 177.958H18.0225C18.7037 177.958 18.6869 178.658 18.6869 179.015V181.25C18.6869 182.558 20.1663 186.146 21.474 186.146C22.7818 186.146 24.2613 182.558 24.2613 181.25V179.015C24.2613 178.719 24.8594 177.958 25.1897 177.958H27.341C28.6488 177.958 32.2366 176.943 32.2366 175.635C32.2366 174.327 28.6488 173.312 27.341 173.312Z" fill="url(#paint0_linear_2167_4886)"/>
<path d="M220.044 100.169H218.241C217.873 100.169 216.965 98.7274 216.965 98.3137V96.6378C216.965 95.33 215.485 91.7422 214.177 91.7422C212.87 91.7422 211.39 95.33 211.39 96.6378V98.3137C211.39 98.9034 210.935 100.169 210.378 100.169H208.575C207.267 100.169 203.679 101.184 203.679 102.492C203.679 103.8 207.267 104.815 208.575 104.815H210.726C211.407 104.815 211.39 105.515 211.39 105.872V108.108C211.39 109.415 212.87 113.003 214.177 113.003C215.485 113.003 216.965 109.415 216.965 108.108V105.872C216.965 105.576 217.563 104.815 217.893 104.815H220.044C221.352 104.815 224.94 103.8 224.94 102.492C224.94 101.184 221.352 100.169 220.044 100.169Z" fill="url(#paint1_linear_2167_4886)"/>
<path d="M414.858 133.224H413.054C412.686 133.224 411.778 131.782 411.778 131.369V129.693C411.778 128.385 410.298 124.797 408.991 124.797C407.683 124.797 406.203 128.385 406.203 129.693V131.369C406.203 131.958 405.748 133.224 405.192 133.224H403.388C402.08 133.224 398.492 134.239 398.492 135.547C398.492 136.855 402.08 137.87 403.388 137.87H405.539C406.22 137.87 406.203 138.57 406.203 138.927V141.163C406.203 142.47 407.683 146.058 408.991 146.058C410.298 146.058 411.778 142.47 411.778 141.163V138.927C411.778 138.631 412.376 137.87 412.706 137.87H414.858C416.165 137.87 419.753 136.855 419.753 135.547C419.753 134.239 416.165 133.224 414.858 133.224Z" fill="url(#paint2_linear_2167_4886)"/>
<path d="M337.446 121.804H336.575C336.398 121.804 335.88 121.115 335.88 120.915V120.107C335.88 119.476 335.104 117.745 334.473 117.745C333.842 117.745 333.067 119.476 333.067 120.107V120.915C333.067 121.2 333.051 121.804 332.782 121.804H331.912C331.281 121.804 329.55 122.228 329.55 122.859C329.55 123.489 331.281 123.913 331.912 123.913H332.95C333.279 123.913 333.067 124.39 333.067 124.562V125.64C333.067 126.271 333.842 128.002 334.473 128.002C335.104 128.002 335.88 126.271 335.88 125.64V124.562C335.88 124.419 336.248 123.913 336.408 123.913H337.446C338.076 123.913 339.807 123.489 339.807 122.859C339.807 122.228 338.076 121.804 337.446 121.804Z" fill="#1976D2"/>
<path d="M93.0348 161.217H91.6163C91.3274 161.217 90.4829 160.095 90.4829 159.77V158.452C90.4829 157.423 89.2185 154.602 88.19 154.602C87.1615 154.602 85.8972 157.423 85.8972 158.452V159.77C85.8972 160.233 85.8711 161.217 85.4335 161.217H84.0149C82.9865 161.217 80.165 161.909 80.165 162.937C80.165 163.966 82.9865 164.657 84.0149 164.657H85.7067C86.2424 164.657 85.8972 165.433 85.8972 165.714V167.472C85.8972 168.5 87.1615 171.322 88.19 171.322C89.2185 171.322 90.4829 168.5 90.4829 167.472V165.714C90.4829 165.481 91.0833 164.657 91.3431 164.657H93.0348C94.0633 164.657 96.8847 163.965 96.8847 162.937C96.8847 161.908 94.0633 161.217 93.0348 161.217Z" fill="url(#paint3_linear_2167_4886)"/>
<path d="M339.189 121.129H337.77C337.481 121.129 336.637 120.007 336.637 119.682V118.364C336.637 117.335 335.372 114.514 334.344 114.514C333.315 114.514 332.051 117.335 332.051 118.364V119.682C332.051 120.145 332.025 121.129 331.587 121.129H330.169C329.14 121.129 326.319 121.821 326.319 122.849C326.319 123.878 329.14 124.569 330.169 124.569H331.86C332.396 124.569 332.051 125.345 332.051 125.626V127.384C332.051 128.412 333.315 131.234 334.344 131.234C335.372 131.234 336.637 128.412 336.637 127.384V125.626C336.637 125.393 337.237 124.569 337.497 124.569H339.189C340.217 124.569 343.038 123.878 343.038 122.849C343.038 121.821 340.217 121.129 339.189 121.129Z" fill="url(#paint4_linear_2167_4886)"/>
<path d="M91.2917 161.891H90.4214C90.2442 161.891 89.7262 161.203 89.7262 161.003V160.195C89.7262 159.564 88.9505 157.833 88.3196 157.833C87.6886 157.833 86.913 159.564 86.913 160.195V161.003C86.913 161.288 86.897 161.891 86.6285 161.891H85.7583C85.1273 161.891 83.3965 162.315 83.3965 162.946C83.3965 163.577 85.1273 164.001 85.7583 164.001H86.7961C87.1247 164.001 86.913 164.478 86.913 164.65V165.728C86.913 166.359 87.6886 168.09 88.3196 168.09C88.9505 168.09 89.7262 166.359 89.7262 165.728V164.65C89.7262 164.507 90.0945 164.001 90.2538 164.001H91.2917C91.9226 164.001 93.6535 163.577 93.6535 162.946C93.6535 162.315 91.9226 161.891 91.2917 161.891Z" fill="#1976D2"/>
<path d="M291.221 110.551C294.134 110.551 296.495 108.189 296.495 105.276C296.495 102.363 294.134 100.001 291.221 100.001C288.307 100.001 285.946 102.363 285.946 105.276C285.946 108.189 288.307 110.551 291.221 110.551Z" fill="#64B5F6"/>
<path d="M280.671 157.203C281.642 157.203 282.429 156.416 282.429 155.445C282.429 154.473 281.642 153.686 280.671 153.686C279.7 153.686 278.913 154.473 278.913 155.445C278.913 156.416 279.7 157.203 280.671 157.203Z" fill="#0071BC"/>
<path d="M81.9607 120.338C84.6634 120.338 86.8544 118.147 86.8544 115.445C86.8544 112.742 84.6634 110.551 81.9607 110.551C79.2579 110.551 77.0669 112.742 77.0669 115.445C77.0669 118.147 79.2579 120.338 81.9607 120.338Z" fill="#64B5F6"/>
<path d="M38.7223 136.412C40.0737 136.412 41.1692 135.317 41.1692 133.965C41.1692 132.614 40.0737 131.519 38.7223 131.519C37.3709 131.519 36.2754 132.614 36.2754 133.965C36.2754 135.317 37.3709 136.412 38.7223 136.412Z" fill="#64B5F6"/>
<path d="M240.568 186.346C241.92 186.346 243.015 185.251 243.015 183.9C243.015 182.548 241.92 181.453 240.568 181.453C239.217 181.453 238.122 182.548 238.122 183.9C238.122 185.251 239.217 186.346 240.568 186.346Z" fill="#82A9FF"/>
<path d="M58.6349 232.163C61.1596 232.163 63.2063 230.116 63.2063 227.591C63.2063 225.066 61.1596 223.02 58.6349 223.02C56.1102 223.02 54.0635 225.066 54.0635 227.591C54.0635 230.116 56.1102 232.163 58.6349 232.163Z" fill="#82A9FF"/>
<path d="M149.301 108.989C151.66 108.989 153.571 107.078 153.571 104.719C153.571 102.361 151.66 100.449 149.301 100.449C146.943 100.449 145.031 102.361 145.031 104.719C145.031 107.078 146.943 108.989 149.301 108.989Z" fill="url(#paint5_linear_2167_4886)"/>
<path d="M150.004 162.44C152.363 162.44 154.275 160.528 154.275 158.17C154.275 155.812 152.363 153.9 150.004 153.9C147.646 153.9 145.734 155.812 145.734 158.17C145.734 160.528 147.646 162.44 150.004 162.44Z" fill="url(#paint6_linear_2167_4886)"/>
<path d="M374.356 97.7367C376.714 97.7367 378.626 95.8249 378.626 93.4666C378.626 91.1083 376.714 89.1965 374.356 89.1965C371.998 89.1965 370.086 91.1083 370.086 93.4666C370.086 95.8249 371.998 97.7367 374.356 97.7367Z" fill="url(#paint7_linear_2167_4886)"/>
<path d="M472.114 173.693C474.473 173.693 476.384 171.781 476.384 169.423C476.384 167.064 474.473 165.153 472.114 165.153C469.756 165.153 467.844 167.064 467.844 169.423C467.844 171.781 469.756 173.693 472.114 173.693Z" fill="url(#paint8_linear_2167_4886)"/>
<path d="M149.301 107.327C150.741 107.327 151.909 106.16 151.909 104.719C151.909 103.279 150.741 102.111 149.301 102.111C147.861 102.111 146.693 103.279 146.693 104.719C146.693 106.16 147.861 107.327 149.301 107.327Z" fill="#0D47A1"/>
<path d="M214.561 148.529C217.474 148.529 219.836 146.167 219.836 143.254C219.836 140.341 217.474 137.979 214.561 137.979C211.648 137.979 209.287 140.341 209.287 143.254C209.287 146.167 211.648 148.529 214.561 148.529Z" fill="#64B5F6"/>
<path d="M370.546 365.419C370.377 371.608 368.366 377.523 365.968 383.268C365.616 384.112 365.257 384.949 364.899 385.779C364.526 386.623 364.153 387.467 363.78 388.311C361.825 392.728 359.828 397.208 356.747 400.928C356.572 401.139 356.396 401.35 356.213 401.554C355.483 402.374 354.694 403.138 353.85 403.84C351.233 406.148 347.939 407.547 344.461 407.828C337.751 408.179 331.935 403.502 326.857 399.093C320.802 393.846 314.747 388.592 308.691 383.332C306.609 381.531 301.56 377.15 301.117 376.763V462.748H299.562L300.491 477.313L302.432 507.794C287.177 510.589 271.699 511.997 256.19 512L254.91 477.363L254.544 467.495L254.369 462.748H252.92L252.793 465.329L252.224 477.363L250.571 511.937C235.107 511.624 219.703 509.915 204.547 506.831L206.383 477.356L207.297 462.748H206.39V375.37C203.702 378.917 200.708 382.221 197.444 385.245C191.072 391.223 183.814 396.42 176.675 401.484C172.343 404.557 167.413 407.729 162.37 408.946C161.592 409.135 160.803 409.274 160.007 409.361C157.79 409.639 155.538 409.396 153.431 408.65C152.701 408.39 151.995 408.065 151.322 407.68C150.949 407.476 150.597 407.258 150.253 407.026C144.985 403.432 142.214 396.54 140.041 390.273C137.41 382.678 134.738 374.723 135.856 366.762C136.538 361.945 138.55 357.521 141.067 353.322C142.776 350.474 144.718 347.731 146.638 345.044C147.559 343.757 148.67 342.365 150.14 341.971H150.147L150.253 341.95C150.43 341.906 150.611 341.88 150.794 341.872C150.97 341.866 151.146 341.871 151.322 341.886C152.791 342.062 154.036 343.237 155.098 344.327C156.737 346.015 158.373 347.7 160.007 349.384C160.795 350.192 161.583 351.001 162.37 351.81C162.497 351.944 162.624 352.077 162.757 352.211C163.798 353.28 164.832 354.349 165.873 355.418C167.905 351.908 169.952 348.378 172.111 344.925C176.5 337.892 181.352 331.182 187.45 325.605C190.479 322.819 193.835 320.41 197.444 318.432C200.575 316.703 203.915 315.382 207.381 314.5C211.376 313.501 214.351 313.044 216.391 313.762C217.994 314.324 219.021 315.625 219.506 317.967C219.515 317.99 219.52 318.014 219.52 318.038C219.749 319.279 219.857 320.539 219.844 321.8C219.844 322.581 219.844 323.362 219.837 324.149H286.664C286.601 322.124 286.544 319.901 286.65 318.038C286.671 317.588 286.706 317.159 286.748 316.758C286.768 315.832 287.03 314.928 287.508 314.134C287.845 313.795 288.252 313.533 288.7 313.366C289.147 313.198 289.626 313.13 290.103 313.164C293.183 313.122 297.635 315.168 299.816 315.984C302.875 317.134 305.843 318.516 308.691 320.119C322.434 327.814 333.461 340.48 338.525 355.439C339.029 353.586 339.915 351.858 341.127 350.368C341.942 349.351 342.88 348.439 343.919 347.654C345.592 346.381 347.485 345.427 349.503 344.84C350.914 344.416 352.377 344.191 353.85 344.172C354.641 344.157 355.431 344.208 356.213 344.327C357.48 344.508 358.714 344.871 359.877 345.403C361.778 346.288 363.485 347.54 364.899 349.088C365.278 349.496 365.63 349.918 365.968 350.354C368.107 353.225 369.534 356.564 370.131 360.095C370.458 361.85 370.597 363.634 370.546 365.419Z" fill="white"/>
<path d="M294.838 264.816C289.537 246.071 273.043 230.913 253.505 230.913C233.968 230.913 217.474 246.071 212.173 264.816C209.846 264.816 207.614 265.741 205.969 267.386C204.323 269.032 203.399 271.263 203.399 273.59V284.261H210.905C214.137 304.649 231.977 318.164 253.505 318.164C275.033 318.164 292.873 304.649 296.106 284.261H303.839V273.817C303.839 272.635 303.606 271.465 303.154 270.373C302.701 269.281 302.038 268.288 301.202 267.453C300.367 266.617 299.374 265.954 298.282 265.501C297.19 265.049 296.02 264.816 294.838 264.816Z" fill="white"/>
<path d="M253.256 312.679C272.531 312.679 288.156 297.054 288.156 277.779C288.156 258.504 272.531 242.879 253.256 242.879C233.982 242.879 218.356 258.504 218.356 277.779C218.356 297.054 233.982 312.679 253.256 312.679Z" fill="#39027A"/>
<path d="M368.176 205.11C368.179 206.765 367.654 208.379 366.678 209.716C366.201 210.378 365.622 210.96 364.962 211.439C364.942 211.458 364.921 211.474 364.899 211.488V487.75C362.036 489.101 359.141 490.4 356.213 491.647V211.791C355.048 211.073 354.091 210.064 353.436 208.862C352.782 207.661 352.453 206.309 352.482 204.941C352.511 203.573 352.897 202.237 353.603 201.064C354.308 199.892 355.307 198.924 356.501 198.257C357.696 197.59 359.044 197.247 360.412 197.261C361.78 197.276 363.121 197.648 364.301 198.341C365.481 199.033 366.459 200.022 367.139 201.21C367.819 202.397 368.176 203.741 368.176 205.11Z" fill="#E0E0E0"/>
<path d="M512 256C512 270.234 510.847 282.084 508.617 292.364C460.732 221.993 412.847 379.06 364.962 297.719V214.463C412.856 295.82 460.751 138.675 508.645 209.149C510.768 224.678 511.888 240.327 512 256Z" fill="#03C2A7"/>
<path d="M163.748 205.11C163.752 206.22 163.518 207.319 163.06 208.33C162.603 209.342 161.933 210.244 161.097 210.975C160.76 211.281 160.395 211.554 160.007 211.791V493.391C157.081 492.216 154.186 490.983 151.321 489.692V211.488C151.298 211.474 151.277 211.458 151.258 211.439C150.598 210.96 150.019 210.378 149.542 209.716C148.815 208.713 148.336 207.553 148.144 206.33C147.952 205.106 148.052 203.855 148.435 202.678C148.819 201.5 149.476 200.431 150.352 199.556C151.229 198.681 152.299 198.025 153.477 197.643C154.655 197.262 155.907 197.164 157.13 197.358C158.353 197.552 159.513 198.033 160.514 198.761C161.516 199.489 162.331 200.444 162.893 201.547C163.455 202.651 163.748 203.871 163.748 205.11Z" fill="#E0E0E0"/>
<path d="M151.258 214.463C151.258 242.215 151.258 269.967 151.258 297.719C101.966 216.325 52.6746 373.653 3.38286 302.936C1.23945 287.381 0.109447 271.702 0 256C0 241.832 1.14633 229.962 3.35473 219.64C52.6558 290.456 101.957 133.053 151.258 214.463Z" fill="#03C2A7"/>
<path opacity="0.2" d="M257.662 250.589C263.065 250.585 268.395 251.837 273.23 254.247C278.066 256.657 282.275 260.159 285.524 264.475C283.635 259.891 280.79 255.762 277.18 252.364C273.569 248.965 269.276 246.375 264.586 244.765C259.897 243.155 254.918 242.564 249.981 243.029C245.045 243.495 240.264 245.006 235.958 247.464C231.651 249.922 227.918 253.269 225.006 257.283C222.095 261.296 220.072 265.884 219.072 270.741C218.073 275.597 218.12 280.611 219.21 285.448C220.3 290.285 222.408 294.835 225.394 298.793C223.209 293.491 222.365 287.733 222.935 282.027C223.504 276.321 225.471 270.843 228.661 266.078C231.851 261.313 236.166 257.407 241.224 254.705C246.282 252.004 251.928 250.59 257.662 250.589Z" fill="white"/>
<path d="M128.981 178.771H127.615C127.337 178.771 126.649 177.679 126.649 177.366V176.097C126.649 175.107 125.529 172.391 124.539 172.391C123.549 172.391 122.43 175.107 122.43 176.097V177.366C122.43 177.812 122.085 178.771 121.664 178.771H120.298C119.308 178.771 116.592 179.539 116.592 180.529C116.592 181.519 119.308 182.287 120.298 182.287H121.927C122.442 182.287 122.43 182.818 122.43 183.088V184.78C122.43 185.77 123.549 188.486 124.539 188.486C125.529 188.486 126.649 185.77 126.649 184.78V183.088C126.649 182.863 127.102 182.287 127.352 182.287H128.981C129.971 182.287 132.687 181.519 132.687 180.529C132.687 179.539 129.971 178.771 128.981 178.771Z" fill="#2196F3"/>
<path d="M187.484 230.346C188.844 230.346 189.946 229.244 189.946 227.884C189.946 226.525 188.844 225.423 187.484 225.423C186.125 225.423 185.023 226.525 185.023 227.884C185.023 229.244 186.125 230.346 187.484 230.346Z" fill="#0D47A1"/>
<path d="M454.356 185.042C457.059 185.042 459.25 182.851 459.25 180.148C459.25 177.445 457.059 175.254 454.356 175.254C451.653 175.254 449.462 177.445 449.462 180.148C449.462 182.851 451.653 185.042 454.356 185.042Z" fill="#64B5F6"/>
<path d="M267.66 217.686C268.631 217.686 269.418 216.899 269.418 215.928C269.418 214.957 268.631 214.17 267.66 214.17C266.689 214.17 265.902 214.957 265.902 215.928C265.902 216.899 266.689 217.686 267.66 217.686Z" fill="#0071BC"/>
<path d="M150.005 160.778C151.445 160.778 152.613 159.61 152.613 158.17C152.613 156.729 151.445 155.562 150.005 155.562C148.564 155.562 147.396 156.729 147.396 158.17C147.396 159.61 148.564 160.778 150.005 160.778Z" fill="#0D47A1"/>
<path d="M413.464 133.76H412.099C411.821 133.76 411.133 132.668 411.133 132.355V131.086C411.133 130.096 410.013 127.38 409.023 127.38C408.033 127.38 406.913 130.096 406.913 131.086V132.355C406.913 132.801 406.568 133.76 406.147 133.76H404.782C403.792 133.76 401.076 134.528 401.076 135.518C401.076 136.508 403.792 137.276 404.782 137.276H406.41C406.926 137.276 406.913 137.807 406.913 138.077V139.769C406.913 140.759 408.033 143.475 409.023 143.475C410.013 143.475 411.133 140.759 411.133 139.769V138.077C411.133 137.852 411.586 137.276 411.836 137.276H413.464C414.454 137.276 417.17 136.508 417.17 135.518C417.17 134.528 414.454 133.76 413.464 133.76Z" fill="#2196F3"/>
<path d="M471.968 171.269C473.327 171.269 474.429 170.167 474.429 168.807C474.429 167.448 473.327 166.346 471.968 166.346C470.608 166.346 469.506 167.448 469.506 168.807C469.506 170.167 470.608 171.269 471.968 171.269Z" fill="#0D47A1"/>
<path d="M374.21 96.0161C375.569 96.0161 376.671 94.914 376.671 93.5546C376.671 92.1951 375.569 91.093 374.21 91.093C372.85 91.093 371.748 92.1951 371.748 93.5546C371.748 94.914 372.85 96.0161 374.21 96.0161Z" fill="#0D47A1"/>
<path d="M446.268 169.809C449.88 169.809 452.808 166.881 452.808 163.269C452.808 159.657 449.88 156.729 446.268 156.729C442.656 156.729 439.728 159.657 439.728 163.269C439.728 166.881 442.656 169.809 446.268 169.809Z" fill="url(#paint9_linear_2167_4886)"/>
<path d="M351.323 181.765C354.935 181.765 357.863 178.837 357.863 175.225C357.863 171.613 354.935 168.685 351.323 168.685C347.711 168.685 344.783 171.613 344.783 175.225C344.783 178.837 347.711 181.765 351.323 181.765Z" fill="url(#paint10_linear_2167_4886)"/>
<path d="M291.543 112.139C295.155 112.139 298.083 109.21 298.083 105.599C298.083 101.987 295.155 99.0586 291.543 99.0586C287.931 99.0586 285.003 101.987 285.003 105.599C285.003 109.21 287.931 112.139 291.543 112.139Z" fill="url(#paint11_linear_2167_4886)"/>
<path d="M214.883 150.117C218.495 150.117 221.423 147.189 221.423 143.577C221.423 139.965 218.495 137.037 214.883 137.037C211.272 137.037 208.344 139.965 208.344 143.577C208.344 147.189 211.272 150.117 214.883 150.117Z" fill="url(#paint12_linear_2167_4886)"/>
<path d="M81.9604 121.984C85.5723 121.984 88.5004 119.056 88.5004 115.445C88.5004 111.833 85.5723 108.905 81.9604 108.905C78.3485 108.905 75.4204 111.833 75.4204 115.445C75.4204 119.056 78.3485 121.984 81.9604 121.984Z" fill="url(#paint13_linear_2167_4886)"/>
<path d="M58.7519 233.809C62.3638 233.809 65.2919 230.881 65.2919 227.269C65.2919 223.657 62.3638 220.729 58.7519 220.729C55.14 220.729 52.2119 223.657 52.2119 227.269C52.2119 230.881 55.14 233.809 58.7519 233.809Z" fill="url(#paint14_linear_2167_4886)"/>
<path d="M426.239 97.4123C428.191 97.4123 429.774 95.8298 429.774 93.8777C429.774 91.9255 428.191 90.343 426.239 90.343C424.287 90.343 422.704 91.9255 422.704 93.8777C422.704 95.8298 424.287 97.4123 426.239 97.4123Z" fill="url(#paint15_linear_2167_4886)"/>
<path d="M240.569 187.434C242.521 187.434 244.103 185.852 244.103 183.9C244.103 181.947 242.521 180.365 240.569 180.365C238.616 180.365 237.034 181.947 237.034 183.9C237.034 185.852 238.616 187.434 240.569 187.434Z" fill="url(#paint16_linear_2167_4886)"/>
<path d="M38.7226 137.5C40.6748 137.5 42.2573 135.918 42.2573 133.966C42.2573 132.013 40.6748 130.431 38.7226 130.431C36.7705 130.431 35.188 132.013 35.188 133.966C35.188 135.918 36.7705 137.5 38.7226 137.5Z" fill="url(#paint17_linear_2167_4886)"/>
<path d="M84.4365 226.819C86.3886 226.819 87.9712 225.236 87.9712 223.284C87.9712 221.332 86.3886 219.75 84.4365 219.75C82.4844 219.75 80.9019 221.332 80.9019 223.284C80.9019 225.236 82.4844 226.819 84.4365 226.819Z" fill="url(#paint18_linear_2167_4886)"/>
<path d="M164.612 214.863C166.564 214.863 168.147 213.28 168.147 211.328C168.147 209.376 166.564 207.793 164.612 207.793C162.66 207.793 161.078 209.376 161.078 211.328C161.078 213.28 162.66 214.863 164.612 214.863Z" fill="url(#paint19_linear_2167_4886)"/>
<path d="M280.656 159.302C282.609 159.302 284.191 157.72 284.191 155.768C284.191 153.816 282.609 152.233 280.656 152.233C278.704 152.233 277.122 153.816 277.122 155.768C277.122 157.72 278.704 159.302 280.656 159.302Z" fill="url(#paint20_linear_2167_4886)"/>
<path d="M426.239 96.3244C427.59 96.3244 428.686 95.2289 428.686 93.8776C428.686 92.5262 427.59 91.4307 426.239 91.4307C424.888 91.4307 423.792 92.5262 423.792 93.8776C423.792 95.2289 424.888 96.3244 426.239 96.3244Z" fill="#82A9FF"/>
<path d="M446.151 168.163C448.676 168.163 450.723 166.116 450.723 163.591C450.723 161.066 448.676 159.02 446.151 159.02C443.627 159.02 441.58 161.066 441.58 163.591C441.58 166.116 443.627 168.163 446.151 168.163Z" fill="#64B5F6"/>
<path opacity="0.2" d="M251.78 295.385C263.044 295.385 272.176 293.81 272.176 291.868C272.176 289.926 263.044 288.352 251.78 288.352C240.516 288.352 231.385 289.926 231.385 291.868C231.385 293.81 240.516 295.385 251.78 295.385Z" fill="black"/>
<path d="M231.385 201.846H228.572V246.154H231.385V201.846Z" fill="white"/>
<path d="M282.725 205.363H279.912V249.67H282.725V205.363Z" fill="white"/>
<path d="M229.978 208.879C233.862 208.879 237.011 205.73 237.011 201.846C237.011 197.962 233.862 194.813 229.978 194.813C226.094 194.813 222.945 197.962 222.945 201.846C222.945 205.73 226.094 208.879 229.978 208.879Z" fill="white"/>
<path d="M281.319 208.879C285.203 208.879 288.352 205.73 288.352 201.846C288.352 197.962 285.203 194.813 281.319 194.813C277.434 194.813 274.286 197.962 274.286 201.846C274.286 205.73 277.434 208.879 281.319 208.879Z" fill="white"/>
</g>
<defs>
<linearGradient id="paint0_linear_2167_4886" x1="21.6061" y1="186.146" x2="21.6061" y2="164.885" gradientUnits="userSpaceOnUse">
<stop stop-color="#808080" stop-opacity="0.25"/>
<stop offset="0.53514" stop-color="#808080" stop-opacity="0.12"/>
<stop offset="1" stop-color="#808080" stop-opacity="0.1"/>
</linearGradient>
<linearGradient id="paint1_linear_2167_4886" x1="214.309" y1="113.003" x2="214.309" y2="91.7422" gradientUnits="userSpaceOnUse">
<stop stop-color="#808080" stop-opacity="0.25"/>
<stop offset="0.53514" stop-color="#808080" stop-opacity="0.12"/>
<stop offset="1" stop-color="#808080" stop-opacity="0.1"/>
</linearGradient>
<linearGradient id="paint2_linear_2167_4886" x1="409.123" y1="146.058" x2="409.123" y2="124.797" gradientUnits="userSpaceOnUse">
<stop stop-color="#808080" stop-opacity="0.25"/>
<stop offset="0.53514" stop-color="#808080" stop-opacity="0.12"/>
<stop offset="1" stop-color="#808080" stop-opacity="0.1"/>
</linearGradient>
<linearGradient id="paint3_linear_2167_4886" x1="88.5249" y1="171.321" x2="88.5249" y2="154.602" gradientUnits="userSpaceOnUse">
<stop stop-color="#808080" stop-opacity="0.25"/>
<stop offset="0.53514" stop-color="#808080" stop-opacity="0.12"/>
<stop offset="1" stop-color="#808080" stop-opacity="0.1"/>
</linearGradient>
<linearGradient id="paint4_linear_2167_4886" x1="334.679" y1="131.234" x2="334.679" y2="114.514" gradientUnits="userSpaceOnUse">
<stop stop-color="#808080" stop-opacity="0.25"/>
<stop offset="0.53514" stop-color="#808080" stop-opacity="0.12"/>
<stop offset="1" stop-color="#808080" stop-opacity="0.1"/>
</linearGradient>
<linearGradient id="paint5_linear_2167_4886" x1="149.301" y1="108.989" x2="149.301" y2="100.449" gradientUnits="userSpaceOnUse">
<stop stop-color="#808080" stop-opacity="0.25"/>
<stop offset="0.53514" stop-color="#808080" stop-opacity="0.12"/>
<stop offset="1" stop-color="#808080" stop-opacity="0.1"/>
</linearGradient>
<linearGradient id="paint6_linear_2167_4886" x1="150.004" y1="162.44" x2="150.004" y2="153.9" gradientUnits="userSpaceOnUse">
<stop stop-color="#808080" stop-opacity="0.25"/>
<stop offset="0.53514" stop-color="#808080" stop-opacity="0.12"/>
<stop offset="1" stop-color="#808080" stop-opacity="0.1"/>
</linearGradient>
<linearGradient id="paint7_linear_2167_4886" x1="374.356" y1="97.7367" x2="374.356" y2="89.1965" gradientUnits="userSpaceOnUse">
<stop stop-color="#808080" stop-opacity="0.25"/>
<stop offset="0.53514" stop-color="#808080" stop-opacity="0.12"/>
<stop offset="1" stop-color="#808080" stop-opacity="0.1"/>
</linearGradient>
<linearGradient id="paint8_linear_2167_4886" x1="472.114" y1="173.693" x2="472.114" y2="165.153" gradientUnits="userSpaceOnUse">
<stop stop-color="#808080" stop-opacity="0.25"/>
<stop offset="0.53514" stop-color="#808080" stop-opacity="0.12"/>
<stop offset="1" stop-color="#808080" stop-opacity="0.1"/>
</linearGradient>
<linearGradient id="paint9_linear_2167_4886" x1="446.268" y1="169.809" x2="446.268" y2="156.729" gradientUnits="userSpaceOnUse">
<stop stop-color="#808080" stop-opacity="0.25"/>
<stop offset="0.53514" stop-color="#808080" stop-opacity="0.12"/>
<stop offset="1" stop-color="#808080" stop-opacity="0.1"/>
</linearGradient>
<linearGradient id="paint10_linear_2167_4886" x1="351.323" y1="181.765" x2="351.323" y2="168.685" gradientUnits="userSpaceOnUse">
<stop stop-color="#808080" stop-opacity="0.25"/>
<stop offset="0.53514" stop-color="#808080" stop-opacity="0.12"/>
<stop offset="1" stop-color="#808080" stop-opacity="0.1"/>
</linearGradient>
<linearGradient id="paint11_linear_2167_4886" x1="291.543" y1="112.139" x2="291.543" y2="99.0586" gradientUnits="userSpaceOnUse">
<stop stop-color="#808080" stop-opacity="0.25"/>
<stop offset="0.53514" stop-color="#808080" stop-opacity="0.12"/>
<stop offset="1" stop-color="#808080" stop-opacity="0.1"/>
</linearGradient>
<linearGradient id="paint12_linear_2167_4886" x1="214.883" y1="150.117" x2="214.883" y2="137.037" gradientUnits="userSpaceOnUse">
<stop stop-color="#808080" stop-opacity="0.25"/>
<stop offset="0.53514" stop-color="#808080" stop-opacity="0.12"/>
<stop offset="1" stop-color="#808080" stop-opacity="0.1"/>
</linearGradient>
<linearGradient id="paint13_linear_2167_4886" x1="81.9604" y1="121.984" x2="81.9604" y2="108.905" gradientUnits="userSpaceOnUse">
<stop stop-color="#808080" stop-opacity="0.25"/>
<stop offset="0.53514" stop-color="#808080" stop-opacity="0.12"/>
<stop offset="1" stop-color="#808080" stop-opacity="0.1"/>
</linearGradient>
<linearGradient id="paint14_linear_2167_4886" x1="58.7519" y1="233.809" x2="58.7519" y2="220.729" gradientUnits="userSpaceOnUse">
<stop stop-color="#808080" stop-opacity="0.25"/>
<stop offset="0.53514" stop-color="#808080" stop-opacity="0.12"/>
<stop offset="1" stop-color="#808080" stop-opacity="0.1"/>
</linearGradient>
<linearGradient id="paint15_linear_2167_4886" x1="426.239" y1="97.4123" x2="426.239" y2="90.343" gradientUnits="userSpaceOnUse">
<stop stop-color="#808080" stop-opacity="0.25"/>
<stop offset="0.53514" stop-color="#808080" stop-opacity="0.12"/>
<stop offset="1" stop-color="#808080" stop-opacity="0.1"/>
</linearGradient>
<linearGradient id="paint16_linear_2167_4886" x1="240.569" y1="187.434" x2="240.569" y2="180.365" gradientUnits="userSpaceOnUse">
<stop stop-color="#808080" stop-opacity="0.25"/>
<stop offset="0.53514" stop-color="#808080" stop-opacity="0.12"/>
<stop offset="1" stop-color="#808080" stop-opacity="0.1"/>
</linearGradient>
<linearGradient id="paint17_linear_2167_4886" x1="38.7226" y1="137.5" x2="38.7226" y2="130.431" gradientUnits="userSpaceOnUse">
<stop stop-color="#808080" stop-opacity="0.25"/>
<stop offset="0.53514" stop-color="#808080" stop-opacity="0.12"/>
<stop offset="1" stop-color="#808080" stop-opacity="0.1"/>
</linearGradient>
<linearGradient id="paint18_linear_2167_4886" x1="84.4365" y1="226.819" x2="84.4365" y2="219.75" gradientUnits="userSpaceOnUse">
<stop stop-color="#808080" stop-opacity="0.25"/>
<stop offset="0.53514" stop-color="#808080" stop-opacity="0.12"/>
<stop offset="1" stop-color="#808080" stop-opacity="0.1"/>
</linearGradient>
<linearGradient id="paint19_linear_2167_4886" x1="164.612" y1="214.863" x2="164.612" y2="207.793" gradientUnits="userSpaceOnUse">
<stop stop-color="#808080" stop-opacity="0.25"/>
<stop offset="0.53514" stop-color="#808080" stop-opacity="0.12"/>
<stop offset="1" stop-color="#808080" stop-opacity="0.1"/>
</linearGradient>
<linearGradient id="paint20_linear_2167_4886" x1="280.656" y1="159.302" x2="280.656" y2="152.233" gradientUnits="userSpaceOnUse">
<stop stop-color="#808080" stop-opacity="0.25"/>
<stop offset="0.53514" stop-color="#808080" stop-opacity="0.12"/>
<stop offset="1" stop-color="#808080" stop-opacity="0.1"/>
</linearGradient>
<clipPath id="clip0_2167_4886">
<rect width="512" height="512" fill="white"/>
</clipPath>
</defs>
</svg>
