<svg width="101" height="87" viewBox="0 0 101 87" fill="none" xmlns="http://www.w3.org/2000/svg">
<path fill-rule="evenodd" clip-rule="evenodd" d="M61.2541 18.6428L82.8777 80.6404C84.5698 85.4917 89.8817 88.0501 94.7423 86.3546C99.6029 84.6591 102.171 79.3519 100.479 74.5005L76.7539 6.47664C76.6822 6.2709 76.6039 6.06929 76.5194 5.87194C75.1448 2.43146 71.775 0 67.8359 0H9.94346C4.78282 0 0.599289 4.17334 0.599289 9.32141C0.599289 14.4695 4.78282 18.6428 9.94346 18.6428H61.2541ZM62.1391 77.6786C62.1391 72.5305 57.9556 68.3572 52.795 68.3572H9.34417C4.18353 68.3572 0 72.5305 0 77.6786C0 82.8267 4.18353 87 9.34417 87H52.795C57.9556 87 62.1391 82.8267 62.1391 77.6786ZM39.4641 34.1784C44.6248 34.1784 48.8083 38.3518 48.8083 43.4998C48.8083 48.6479 44.6248 52.8212 39.4642 52.8212H9.99467C4.83402 52.8212 0.65049 48.6479 0.65049 43.4998C0.65049 38.3518 4.83402 34.1784 9.99466 34.1784H39.4641Z" fill="white"/>
</svg>
