<svg width="923" height="708" viewBox="0 0 923 708" fill="none" xmlns="http://www.w3.org/2000/svg">
<path d="M77.608 301.177C77.608 314.109 70.4432 323.765 59.8955 323.765C56.3451 323.765 53.018 321.835 51.8771 319.658C51.8771 319.658 49.9702 327.249 49.5633 328.724C48.8176 331.185 47.727 333.529 46.324 335.684C45.6937 335.366 44.0262 334.664 42.4065 334.002C42.2927 331.585 42.4884 329.162 42.9889 326.794C43.6113 324.115 47.2016 308.823 47.2016 308.823C46.4845 307.182 46.1255 305.407 46.1485 303.616C46.1485 298.737 48.9649 295.085 52.4755 295.085C55.4674 295.085 56.9036 297.333 56.9036 300.028C56.9036 303.042 54.9807 307.547 53.9994 311.725C53.8033 312.497 53.7913 313.305 53.9644 314.083C54.1376 314.861 54.4909 315.587 54.9962 316.204C55.5014 316.82 56.1443 317.31 56.8733 317.633C57.6023 317.956 58.397 318.104 59.1934 318.064C65.4008 318.064 69.5895 310.051 69.5895 300.547C69.5895 293.315 64.7465 287.917 55.9382 287.917C45.9889 287.917 39.7736 295.38 39.7736 303.704C39.6757 306.051 40.4485 308.35 41.9437 310.162C42.2046 310.382 42.3903 310.677 42.4747 311.008C42.5591 311.338 42.5381 311.686 42.4145 312.004C42.2549 312.61 41.9039 314.061 41.7363 314.651C41.7091 314.828 41.6401 314.996 41.5349 315.141C41.4297 315.287 41.2915 315.405 41.1316 315.486C40.9717 315.567 40.7948 315.608 40.6155 315.608C40.4362 315.607 40.2598 315.563 40.1007 315.48C35.513 313.591 33.3748 308.56 33.3748 302.883C33.3748 293.522 41.2416 282.296 56.8318 282.296C69.3581 282.296 77.608 291.401 77.608 301.177Z" fill="#00BFA6"/>
<path d="M872.521 107.237H850.915C846.943 107.216 843.124 108.766 840.292 111.549C837.459 114.332 835.843 118.122 835.796 122.091V143.307C835.843 147.276 837.46 151.064 840.292 153.846C843.125 156.627 846.944 158.176 850.915 158.153H872.521C876.493 158.176 880.311 156.627 883.144 153.846C885.977 151.064 887.593 147.276 887.641 143.307V122.091C887.594 118.122 885.978 114.332 883.145 111.549C880.313 108.766 876.493 107.216 872.521 107.237V107.237ZM861.718 141.187C860.045 141.158 858.417 140.636 857.04 139.686C855.662 138.736 854.596 137.4 853.976 135.847C853.355 134.294 853.208 132.592 853.551 130.955C853.895 129.318 854.715 127.819 855.909 126.647C857.102 125.474 858.615 124.68 860.259 124.363C861.902 124.047 863.603 124.223 865.146 124.869C866.69 125.516 868.008 126.603 868.936 127.995C869.863 129.388 870.358 131.023 870.359 132.695C870.337 134.965 869.415 137.134 867.795 138.726C866.175 140.317 863.99 141.202 861.718 141.187L861.718 141.187ZM875.761 122.091C875.133 122.08 874.523 121.884 874.007 121.528C873.491 121.172 873.091 120.671 872.859 120.089C872.626 119.506 872.571 118.868 872.7 118.255C872.829 117.641 873.137 117.08 873.584 116.64C874.032 116.201 874.599 115.903 875.215 115.785C875.831 115.667 876.469 115.733 877.047 115.975C877.626 116.218 878.12 116.625 878.467 117.148C878.815 117.67 879 118.282 879 118.909C878.997 119.331 878.911 119.748 878.747 120.137C878.582 120.525 878.343 120.877 878.042 121.173C877.741 121.468 877.384 121.701 876.993 121.859C876.601 122.017 876.183 122.095 875.761 122.091V122.091Z" fill="#00BFA6"/>
<path d="M488.612 641.719H245.609C240.136 641.736 234.773 640.193 230.147 637.27C226.439 634.962 223.374 631.756 221.235 627.95C219.096 624.143 217.953 619.858 217.911 615.493V49.2446C217.911 34.7733 230.336 23 245.609 23H302.718V28.2087C302.718 39.3248 312.294 48.3686 324.064 48.3686H404.573C409.104 48.3937 413.531 47.016 417.247 44.4248C419.88 42.6077 422.042 40.1881 423.55 37.3674C425.059 34.5467 425.871 31.4066 425.92 28.2086V23H488.612C503.885 23 516.31 34.7733 516.31 49.2445V615.493C516.287 619.339 515.399 623.131 513.711 626.588C512.023 630.045 509.578 633.078 506.557 635.462C501.466 639.535 495.133 641.743 488.612 641.719V641.719ZM245.609 24.5946C231.216 24.5946 219.507 35.6528 219.507 49.2445V615.493C219.549 619.59 220.625 623.611 222.635 627.183C224.645 630.755 227.524 633.762 231.006 635.926C235.375 638.685 240.441 640.142 245.609 640.125H488.612C494.768 640.149 500.747 638.066 505.553 634.223C508.389 631.987 510.684 629.143 512.27 625.901C513.856 622.659 514.691 619.101 514.714 615.493V49.2446C514.714 35.6528 503.005 24.5946 488.612 24.5946H427.515V28.2087C427.467 31.6643 426.592 35.0581 424.964 38.107C423.335 41.1559 421.001 43.7714 418.155 45.7353C414.174 48.5124 409.429 49.9894 404.573 49.9632H324.064C311.414 49.9632 301.122 40.2042 301.122 28.2086V24.5946H245.609Z" fill="#3F3D56"/>
<path d="M496.589 71.1344V587.956C496.583 594.113 494.132 600.015 489.774 604.367C485.416 608.719 479.508 611.164 473.348 611.166H263.391C260.339 611.172 257.316 610.575 254.495 609.411C251.674 608.247 249.11 606.537 246.951 604.381C244.792 602.225 243.08 599.665 241.913 596.846C240.746 594.028 240.147 591.007 240.15 587.956V71.1344C240.15 68.0843 240.751 65.064 241.919 62.2459C243.086 59.4279 244.798 56.8674 246.957 54.7106C249.115 52.5539 251.677 50.8431 254.497 49.676C257.317 48.5088 260.339 47.9083 263.391 47.9085H294.811V51.935C294.81 57.0068 296.826 61.8711 300.414 65.4582C304.002 69.0452 308.868 71.0612 313.944 71.0627H420.729C424.814 71.0714 428.793 69.7627 432.074 67.3312C432.738 66.849 433.367 66.3215 433.957 65.7525C435.827 63.9689 437.314 61.8245 438.329 59.4493C439.343 57.0741 439.865 54.5177 439.861 51.935V47.9085H473.348C476.4 47.9076 479.423 48.5077 482.243 49.6746C485.063 50.8415 487.626 52.5522 489.784 54.7091C491.942 56.8661 493.654 59.4268 494.822 62.2452C495.99 65.0635 496.59 68.0841 496.589 71.1344V71.1344Z" fill="#F2F2F2"/>
<path d="M438.895 462.95H298.57V311.968H438.895V462.95ZM300.369 461.152H437.096V313.766H300.369V461.152Z" fill="#3F3D56"/>
<path d="M409.099 157.267H316.973V159.065H409.099V157.267Z" fill="#3F3D56"/>
<path d="M409.099 181.74H316.973V183.537H409.099V181.74Z" fill="#3F3D56"/>
<path d="M409.099 206.212H316.973V208.01H409.099V206.212Z" fill="#3F3D56"/>
<path d="M289.223 641.932L288.366 641.611C288.178 641.54 269.45 634.37 260.677 618.111C251.904 601.852 256.2 582.276 256.244 582.08L256.447 581.189L257.302 581.509C257.491 581.58 276.218 588.751 284.991 605.009C293.765 621.269 289.469 640.845 289.424 641.041L289.223 641.932ZM262.082 617.355C269.499 631.101 284.299 638.148 288.048 639.757C288.761 635.74 290.997 619.5 283.587 605.766C276.177 592.034 261.372 584.977 257.62 583.364C256.907 587.383 254.672 603.622 262.082 617.355Z" fill="#3F3D56"/>
<path d="M267.382 612.408C283.148 621.887 289.22 640.715 289.22 640.715C289.22 640.715 269.73 644.175 253.964 634.696C238.198 625.217 232.126 606.389 232.126 606.389C232.126 606.389 251.616 602.929 267.382 612.408Z" fill="#00BFA6"/>
<path d="M444.104 627.766L420.168 626.172L428.147 662.051L455.274 650.889L444.104 627.766Z" fill="#FFB9B9"/>
<path d="M663.515 560.791L607.665 506.574L575.75 531.291L512.72 607.036L519.9 618.198L596.495 566.373L648.355 634.145L697.823 609.428L663.515 560.791Z" fill="#2F2E41"/>
<path opacity="0.1" d="M663.515 560.791L607.665 506.574L575.75 531.291L512.72 607.036L519.9 618.198L596.495 566.373L648.355 634.145L697.823 609.428L663.515 560.791Z" fill="black"/>
<path d="M668.302 596.671L661.121 602.252L602.877 582.319L589.314 576.738L562.187 582.319C562.187 582.319 562.187 559.994 587.718 560.791L614.047 567.17L645.164 569.562L668.302 596.671Z" fill="#FFB9B9"/>
<path d="M720.163 655.672L702.61 666.835H681.866L585.325 630.955L444.104 656.47L440.115 626.172L569.368 569.562L682.663 607.036L720.163 655.672Z" fill="#2F2E41"/>
<path d="M606.867 513.75L594.899 516.142L592.291 513.101C590.226 510.694 588.918 507.731 588.53 504.585C588.143 501.438 588.693 498.247 590.112 495.411V495.411L623.622 451.559C623.622 451.559 633.196 430.031 648.355 438.802C663.515 447.572 635.59 461.924 635.59 461.924L618.835 488.235L620.43 501.79L606.867 513.75Z" fill="#FFB9B9"/>
<path d="M682.663 461.924C699.848 461.924 713.779 448.002 713.779 430.829C713.779 413.655 699.848 399.733 682.663 399.733C665.478 399.733 651.547 413.655 651.547 430.829C651.547 448.002 665.478 461.924 682.663 461.924Z" fill="#FFB9B9"/>
<path d="M668.701 453.552L683.062 487.837L717.37 473.485C717.37 473.485 706.2 446.376 706.2 445.579C706.2 444.782 668.701 453.552 668.701 453.552Z" fill="#FFB9B9"/>
<path d="M763.175 554.979C763.174 573.746 760.215 592.395 754.406 610.241L752.077 617.401L740.907 668.429L728.939 671.619L720.162 660.456L702.61 647.699L689.844 626.969L678.897 608.742L675.482 603.049L663.515 543.25L618.037 517.736L602.877 515.344L606.069 506.574L619.632 488.235L633.196 486.641L637.185 483.452L640.377 485.046L653.142 477.87L657.132 479.465L680.461 481.634L694.631 478.668L715.008 467.736L723.354 469.1L752.077 493.019C759.419 512.853 763.177 533.832 763.175 554.979V554.979Z" fill="#575A89"/>
<path d="M427.515 640.112C427.515 640.112 434.662 628.009 431.643 626.596C428.625 625.183 415.806 619.55 415.806 619.55L397.008 613.324C397.008 613.324 369.883 573.038 369.288 608.071C368.692 643.104 389.038 651.526 389.038 651.526C389.038 651.526 407.184 690.551 417.462 684.328C427.741 678.105 438.027 656.98 438.027 656.98C438.027 656.98 419.491 647.023 427.515 640.112Z" fill="#2F2E41"/>
<path opacity="0.1" d="M754.47 548.034L724.152 567.967L678.897 608.742L675.482 603.049L665.908 555.21H668.302L693.035 509.763L754.47 548.034Z" fill="black"/>
<path d="M693.035 504.979L668.302 550.426H659.525L653.94 566.373L641.175 569.562L675.482 607.036L724.152 563.183L754.47 543.25L693.035 504.979Z" fill="#575A89"/>
<path d="M658.461 407.708L655.089 409.004C654.571 408.653 654.128 408.202 653.786 407.678C653.444 407.154 653.21 406.567 653.098 405.951C652.986 405.335 652.998 404.703 653.133 404.092C653.268 403.481 653.525 402.903 653.886 402.393L647.656 402.101C651.655 396.778 656.74 392.365 662.574 389.152C668.408 385.94 674.858 384.003 681.498 383.468C688.137 382.933 694.814 383.813 701.088 386.05C707.361 388.287 713.088 391.83 717.889 396.444C718.173 395.468 721.265 397.367 722.527 399.293C722.951 397.705 725.85 405.384 726.876 410.812C727.351 409.005 729.176 411.923 727.577 414.723C728.59 414.575 729.048 417.165 728.263 418.609C729.372 418.088 729.185 421.181 727.983 423.248C729.565 423.107 715.508 444.909 709.817 457.65C708.164 450.062 706.306 442.071 700.977 436.419C700.072 435.458 699.08 434.583 698.089 433.71L692.733 428.985C686.505 423.491 680.84 416.711 672.543 414.658C666.841 413.246 663.236 412.928 666.344 406.507C663.536 407.678 660.915 409.419 658.082 410.506C658.12 409.609 658.516 408.605 658.461 407.708Z" fill="#2F2E41"/>
<path d="M698.221 439.998C701.306 439.998 703.806 437.499 703.806 434.416C703.806 431.334 701.306 428.835 698.221 428.835C695.137 428.835 692.636 431.334 692.636 434.416C692.636 437.499 695.137 439.998 698.221 439.998Z" fill="#FFB9B9"/>
<path d="M390.913 371.083C390.944 371.696 390.959 372.325 390.959 372.953C390.959 392.086 376.385 414.146 349.738 414.146C341.875 414.163 334.176 411.888 327.586 407.6C328.732 407.741 329.884 407.813 331.038 407.815C337.557 407.826 343.89 405.644 349.017 401.621C345.995 401.562 343.066 400.561 340.641 398.758C338.215 396.955 336.413 394.44 335.487 391.564C336.387 391.737 337.301 391.824 338.218 391.825C339.503 391.829 340.783 391.659 342.022 391.319C338.744 390.656 335.797 388.88 333.68 386.293C331.563 383.705 330.408 380.465 330.409 377.123V376.954C332.423 378.083 334.682 378.704 336.99 378.763C333.922 376.716 331.749 373.579 330.911 369.989C330.074 366.398 330.635 362.624 332.48 359.432C336.111 363.907 340.644 367.568 345.785 370.175C350.927 372.782 356.56 374.277 362.318 374.563C362.07 373.477 361.947 372.366 361.95 371.252C361.947 368.35 362.818 365.514 364.45 363.113C366.082 360.713 368.399 358.858 371.1 357.792C373.801 356.725 376.76 356.495 379.593 357.132C382.427 357.769 385.002 359.244 386.986 361.364C390.232 360.728 393.345 359.54 396.19 357.853C395.105 361.205 392.844 364.053 389.824 365.871C392.687 365.52 395.484 364.75 398.123 363.586C396.185 366.494 393.743 369.032 390.913 371.083V371.083Z" fill="#00BFA6"/>
<path d="M368.827 448.197C357.443 448.197 346.314 444.823 336.849 438.503C327.383 432.183 320.006 423.199 315.649 412.689C311.293 402.179 310.153 390.613 312.374 379.455C314.594 368.298 320.076 358.049 328.126 350.004C336.176 341.96 346.432 336.482 357.597 334.262C368.762 332.043 380.335 333.182 390.853 337.535C401.37 341.889 410.36 349.261 416.685 358.72C423.009 368.18 426.385 379.3 426.385 390.677C426.368 405.927 420.298 420.547 409.507 431.33C398.717 442.114 384.087 448.179 368.827 448.197ZM368.827 334.752C357.758 334.752 346.938 338.031 337.735 344.176C328.532 350.322 321.359 359.056 317.123 369.275C312.888 379.494 311.779 390.739 313.939 401.587C316.098 412.435 321.428 422.4 329.254 430.222C337.081 438.043 347.053 443.369 357.908 445.527C368.764 447.685 380.016 446.578 390.242 442.345C400.468 438.112 409.208 430.944 415.358 421.747C421.507 412.55 424.789 401.738 424.789 390.677C424.772 375.85 418.871 361.635 408.38 351.15C397.888 340.666 383.664 334.769 368.827 334.752V334.752ZM355.709 420.157C347.69 420.172 339.841 417.853 333.119 413.484L330.258 411.622L333.649 412.024C334.763 412.158 335.885 412.226 337.008 412.228C342.638 412.25 348.144 410.578 352.81 407.428C350.027 406.979 347.422 405.768 345.285 403.93C343.148 402.092 341.562 399.698 340.702 397.015L340.288 395.72L341.621 395.991C342.575 396.181 343.547 396.264 344.52 396.239C341.857 395.018 339.601 393.059 338.017 390.596C336.433 388.133 335.588 385.269 335.582 382.341V380.8L336.77 381.466C337.874 382.085 339.06 382.544 340.294 382.829C337.865 380.451 336.298 377.333 335.841 373.966C335.383 370.599 336.061 367.176 337.768 364.238L338.348 363.239L339.077 364.135C342.533 368.384 346.819 371.886 351.673 374.427C356.527 376.967 361.849 378.493 367.312 378.911C367.186 378.103 367.123 377.287 367.124 376.47C367.121 373.445 368.017 370.488 369.699 367.974C371.381 365.459 373.773 363.501 376.571 362.348C379.369 361.195 382.447 360.899 385.413 361.498C388.38 362.097 391.102 363.564 393.232 365.712C396.235 365.078 399.112 363.953 401.748 362.384L403.553 361.314L402.916 363.312C402.137 365.748 400.756 367.947 398.9 369.707C400.571 369.307 402.203 368.757 403.776 368.062L406.284 366.953L404.763 369.233C402.85 372.102 400.459 374.621 397.694 376.681C397.712 377.168 397.721 377.664 397.721 378.158C397.721 398.803 382.007 420.157 355.709 420.157ZM336.812 413.822C342.62 416.944 349.114 418.573 355.709 418.562C381.008 418.562 396.125 398.019 396.125 378.158C396.125 377.544 396.111 376.929 396.081 376.33L396.06 375.898L396.41 375.645C398.433 374.182 400.255 372.461 401.83 370.525C399.898 371.171 397.906 371.621 395.884 371.868L392.156 372.325L395.376 370.393C397.596 369.067 399.396 367.142 400.57 364.839C398.209 366.01 395.702 366.859 393.114 367.363L392.681 367.447L392.379 367.126C390.506 365.121 388.071 363.727 385.393 363.125C382.716 362.522 379.918 362.739 377.366 363.747C374.813 364.755 372.623 366.508 371.081 368.777C369.539 371.046 368.716 373.727 368.72 376.47C368.715 377.519 368.833 378.565 369.072 379.586L369.319 380.621L368.256 380.568C362.589 380.28 357.04 378.846 351.945 376.352C346.849 373.859 342.313 370.358 338.61 366.062C337.206 369.033 336.917 372.409 337.797 375.574C338.676 378.74 340.665 381.484 343.401 383.306L345.687 384.835L342.938 384.766C340.967 384.715 339.026 384.276 337.225 383.476C337.476 386.427 338.676 389.217 340.645 391.43C342.615 393.643 345.249 395.159 348.152 395.751L351.467 396.417L348.204 397.302C346.407 397.79 344.536 397.946 342.683 397.762C343.724 400.179 345.44 402.244 347.626 403.71C349.812 405.176 352.374 405.981 355.006 406.028L357.244 406.071L355.484 407.452C350.224 411.603 343.71 413.849 337.008 413.822C336.943 413.822 336.877 413.822 336.812 413.822Z" fill="#3F3D56"/>
<path d="M870.494 146.764C868.663 146.735 866.881 146.165 865.373 145.128C863.865 144.09 862.697 142.63 862.017 140.931C861.336 139.232 861.173 137.37 861.549 135.579C861.924 133.788 862.82 132.147 864.125 130.864C865.431 129.58 867.086 128.711 868.884 128.364C870.682 128.018 872.543 128.211 874.232 128.918C875.921 129.625 877.363 130.815 878.377 132.338C879.392 133.862 879.933 135.651 879.933 137.481C879.91 139.962 878.903 142.332 877.134 144.073C875.364 145.813 872.976 146.781 870.494 146.764ZM870.494 129.792C868.979 129.822 867.506 130.297 866.26 131.16C865.014 132.022 864.051 133.233 863.491 134.641C862.931 136.048 862.8 137.59 863.113 139.072C863.427 140.553 864.171 141.91 865.253 142.97C866.335 144.031 867.706 144.749 869.195 145.034C870.684 145.318 872.223 145.157 873.621 144.571C875.018 143.985 876.211 142.999 877.05 141.738C877.889 140.477 878.337 138.996 878.337 137.481C878.315 135.423 877.476 133.458 876.006 132.016C874.536 130.575 872.553 129.775 870.494 129.792V129.792Z" fill="#3F3D56"/>
<path d="M881.295 159.493H859.693C856.632 159.495 853.692 158.295 851.508 156.15C850.426 155.105 849.566 153.852 848.98 152.467C848.393 151.081 848.092 149.592 848.095 148.088V126.874C848.097 125.371 848.4 123.885 848.986 122.501C849.571 121.117 850.427 119.864 851.504 118.816C853.682 116.659 856.628 115.456 859.693 115.469H881.295C884.356 115.466 887.296 116.667 889.48 118.812C890.562 119.858 891.422 121.11 892.008 122.495C892.595 123.881 892.896 125.37 892.893 126.874V148.088C892.891 149.59 892.588 151.077 892.002 152.461C891.417 153.845 890.56 155.098 889.484 156.146C887.306 158.302 884.36 159.506 881.295 159.493V159.493ZM859.693 117.064C857.048 117.051 854.506 118.089 852.626 119.949C851.7 120.85 850.963 121.926 850.459 123.115C849.955 124.304 849.694 125.582 849.69 126.874V148.088C849.689 149.379 849.947 150.658 850.451 151.847C850.955 153.036 851.693 154.112 852.622 155.009C854.509 156.862 857.048 157.9 859.693 157.898H881.295C883.94 157.91 886.482 156.872 888.362 155.013C889.288 154.112 890.025 153.036 890.529 151.846C891.033 150.657 891.294 149.379 891.297 148.088V126.874C891.299 125.582 891.041 124.304 890.537 123.115C890.033 121.926 889.295 120.851 888.365 119.953C886.48 118.1 883.94 117.062 881.295 117.064L859.693 117.064ZM870.494 151.007C867.826 150.963 865.231 150.133 863.034 148.62C860.838 147.107 859.137 144.979 858.147 142.504C857.156 140.028 856.92 137.315 857.467 134.706C858.014 132.097 859.321 129.707 861.223 127.837C863.125 125.968 865.537 124.701 868.157 124.197C870.777 123.693 873.487 123.974 875.948 125.004C878.408 126.035 880.509 127.769 881.987 129.988C883.465 132.208 884.253 134.815 884.253 137.481C884.219 141.097 882.751 144.551 880.172 147.087C877.593 149.623 874.112 151.032 870.494 151.007V151.007ZM870.494 125.55C868.142 125.593 865.855 126.33 863.921 127.668C861.987 129.006 860.491 130.884 859.621 133.068C858.751 135.253 858.546 137.645 859.032 139.945C859.517 142.245 860.672 144.351 862.351 145.997C864.03 147.644 866.158 148.759 868.468 149.201C870.778 149.644 873.168 149.394 875.337 148.485C877.506 147.575 879.358 146.045 880.66 144.088C881.963 142.13 882.657 139.832 882.657 137.481C882.624 134.288 881.324 131.239 879.044 129.002C876.764 126.766 873.689 125.524 870.494 125.55ZM884.535 127.671C883.75 127.66 882.985 127.418 882.338 126.974C881.69 126.53 881.188 125.905 880.895 125.176C880.602 124.448 880.531 123.65 880.691 122.882C880.851 122.113 881.235 121.409 881.794 120.858C882.353 120.307 883.062 119.934 883.833 119.784C884.604 119.635 885.402 119.717 886.127 120.02C886.851 120.323 887.47 120.833 887.905 121.486C888.34 122.139 888.573 122.907 888.573 123.691C888.564 124.754 888.134 125.769 887.377 126.515C886.62 127.261 885.598 127.677 884.535 127.671ZM884.535 121.307C884.065 121.318 883.609 121.467 883.224 121.735C882.839 122.004 882.541 122.38 882.369 122.817C882.197 123.254 882.158 123.732 882.256 124.191C882.354 124.65 882.586 125.07 882.922 125.398C883.258 125.726 883.683 125.948 884.145 126.035C884.606 126.123 885.083 126.072 885.516 125.89C885.949 125.708 886.319 125.402 886.579 125.011C886.838 124.62 886.977 124.161 886.977 123.691C886.969 123.052 886.707 122.442 886.249 121.995C885.791 121.548 885.175 121.3 884.535 121.307V121.307Z" fill="#3F3D56"/>
<path d="M869.939 189.068C841.233 189.068 817.879 166.126 817.879 137.927C817.879 109.727 841.233 86.7855 869.939 86.7855C898.646 86.7855 922 109.727 922 137.927C922 166.126 898.646 189.068 869.939 189.068ZM869.939 88.3801C842.113 88.3801 819.475 110.607 819.475 137.927C819.475 165.247 842.113 187.473 869.939 187.473C897.766 187.473 920.404 165.247 920.404 137.927C920.404 110.607 897.766 88.3801 869.939 88.3801V88.3801ZM881.294 163.735H859.693C855.507 163.765 851.481 162.134 848.496 159.201C845.512 156.267 843.814 152.271 843.774 148.088V126.874C843.814 122.691 845.512 118.694 848.496 115.761C851.481 112.827 855.507 111.197 859.693 111.226H881.294C885.48 111.197 889.507 112.827 892.491 115.761C895.476 118.694 897.174 122.691 897.213 126.874V148.088C897.174 152.271 895.476 156.267 892.491 159.201C889.507 162.134 885.48 163.765 881.294 163.735ZM859.693 112.821C855.93 112.791 852.309 114.254 849.624 116.888C846.939 119.522 845.409 123.114 845.37 126.874V148.088C845.409 151.848 846.939 155.439 849.624 158.074C852.309 160.708 855.93 162.171 859.693 162.141H881.294C885.057 162.171 888.678 160.708 891.363 158.074C894.049 155.439 895.578 151.848 895.618 148.088V126.874C895.578 123.114 894.049 119.522 891.363 116.888C888.678 114.254 885.057 112.791 881.294 112.821H859.693Z" fill="#3F3D56"/>
<path d="M58.4289 363.568C27.3141 363.568 2 338.148 2 306.902C2 275.656 27.314 250.236 58.4289 250.236C89.5438 250.236 114.858 275.656 114.858 306.902C114.858 338.148 89.5438 363.568 58.4289 363.568ZM58.4289 251.83C28.1937 251.83 3.59571 276.535 3.59571 306.902C3.59571 337.269 28.1937 361.973 58.4289 361.973C88.6641 361.973 113.262 337.269 113.262 306.902C113.262 276.535 88.6641 251.83 58.4289 251.83V251.83ZM58.762 340.326C55.5356 340.322 52.3264 339.856 49.2329 338.939L48.2239 338.642L48.7826 337.752C50.1753 335.636 51.2539 333.329 51.9849 330.904C52.3893 329.453 54.2772 321.93 54.2959 321.854L54.8051 319.826L55.7767 321.678C56.7253 323.486 59.718 325.356 63.0844 325.356C73.044 325.356 79.9999 316.397 79.9999 303.567C79.9999 294.68 72.5274 285.486 60.0223 285.486C44.3928 285.486 37.3629 297.058 37.3629 305.274C37.3629 311.184 39.6337 315.506 43.5934 317.132C43.707 317.192 43.8398 317.206 43.9631 317.169C44.069 317.091 44.1395 316.974 44.1594 316.844C44.2471 316.523 44.3862 315.965 44.5217 315.423C44.6417 314.942 44.7586 314.474 44.8342 314.191C44.9772 313.655 44.9857 313.623 44.5229 313.068C42.9105 311.111 42.0731 308.631 42.1699 306.098C42.1699 298.058 48.1133 289.513 59.1282 289.513C67.9082 289.513 73.5816 294.781 73.5816 302.935C73.5816 313.38 68.7664 321.256 62.3812 321.256C61.4436 321.274 60.5143 321.078 59.6634 320.684C58.8125 320.29 58.0623 319.708 57.4694 318.982C56.918 318.278 56.5363 317.457 56.3538 316.581C56.1714 315.706 56.1932 314.801 56.4175 313.936C56.7814 312.386 57.2692 310.804 57.7405 309.273C58.5411 306.673 59.2977 304.217 59.2977 302.42C59.2977 301.447 59.0363 298.273 55.6707 298.273C52.5689 298.273 50.1391 301.672 50.1391 306.01C50.1221 307.678 50.4529 309.33 51.1103 310.863L51.2377 311.12L51.173 311.401C51.173 311.401 47.5835 326.689 46.9535 329.367C46.4474 331.782 46.2621 334.254 46.4026 336.717L46.4513 337.993L45.2826 337.477C38.2091 334.348 32.4233 328.889 28.8907 322.012C25.3581 315.135 24.2923 307.255 25.8712 299.687C27.45 292.119 31.5781 285.322 37.5664 280.428C43.5548 275.535 51.0413 272.841 58.7768 272.797C63.2028 272.808 67.5834 273.69 71.6681 275.393C75.7528 277.097 79.4615 279.588 82.5822 282.724C85.7029 285.861 88.1744 289.581 89.8554 293.673C91.5365 297.764 92.394 302.147 92.3792 306.57C92.3904 315.498 88.8573 324.066 82.5551 330.394C76.2529 336.722 67.6961 340.294 58.762 340.326V340.326ZM50.6888 337.689C58.6745 339.805 67.1688 338.771 74.4126 334.801C81.6564 330.831 87.0948 324.229 89.6017 316.362C92.1086 308.495 91.492 299.966 87.8794 292.541C84.2668 285.116 77.9351 279.363 70.1954 276.475C62.4557 273.587 53.9009 273.784 46.3025 277.025C38.7041 280.267 32.6442 286.304 29.3777 293.888C26.1111 301.471 25.8881 310.019 28.7549 317.763C31.6217 325.506 37.3586 331.851 44.7777 335.483C44.73 333.306 44.9388 331.131 45.3999 329.003C45.9811 326.532 49.0798 313.335 49.5574 311.3C48.8773 309.62 48.5328 307.823 48.5434 306.01C48.5434 300.777 51.674 296.678 55.6707 296.678C58.8434 296.678 60.8934 298.932 60.8934 302.42C60.8934 304.457 60.1026 307.024 59.2654 309.742C58.8018 311.247 58.3226 312.803 57.9712 314.3C57.804 314.931 57.7846 315.592 57.9145 316.233C58.0443 316.873 58.3199 317.474 58.7199 317.991C59.1639 318.528 59.7241 318.958 60.3583 319.247C60.9925 319.536 61.6842 319.678 62.3812 319.662C67.8567 319.662 71.9859 312.471 71.9859 302.935C71.9859 295.639 67.0593 291.107 59.1282 291.107C49.1499 291.107 43.7656 298.831 43.7656 306.098C43.6752 308.256 44.3798 310.371 45.7458 312.044C46.0922 312.36 46.3369 312.772 46.4491 313.227C46.5612 313.683 46.5359 314.161 46.3761 314.602C46.3021 314.88 46.1875 315.338 46.0699 315.808C45.9312 316.365 45.7883 316.936 45.7006 317.256C45.6433 317.543 45.5211 317.813 45.3432 318.046C45.1653 318.278 44.9365 318.467 44.6743 318.597C44.4121 318.727 44.1236 318.796 43.8308 318.797C43.538 318.799 43.2488 318.733 42.9852 318.606C38.4661 316.75 35.7671 311.766 35.7671 305.274C35.7671 294.763 44.8396 283.892 60.0223 283.892C73.5262 283.892 81.5956 293.896 81.5956 303.567C81.5956 317.117 73.8106 326.951 63.0844 326.951C60.233 326.945 57.4932 325.843 55.4338 323.872C54.8491 326.193 53.8174 330.273 53.5237 331.326C52.8655 333.564 51.9122 335.703 50.6888 337.689V337.689Z" fill="#3F3D56"/>
<path d="M801.304 305.071C791.607 305.108 781.998 303.228 773.031 299.54C748.015 289.119 731.448 266.679 715.428 244.978C706.779 233.262 697.836 221.148 687.619 210.948C671.249 194.603 652.257 184.043 632.697 180.41C610.715 176.327 588.314 181.608 572.777 194.533C570.812 196.169 568.961 197.938 567.236 199.826C569.504 200.102 571.765 200.396 574.02 200.708C597.744 203.993 627.497 213.106 634.517 237.86C637.212 247.362 635.293 258.118 629.256 267.37C622.786 277.283 612.488 284.1 601.712 285.604C599.956 285.848 598.185 285.97 596.412 285.969C577.003 285.97 557.881 271.553 552.219 251.736C547.424 234.952 552.262 215.396 564.06 201.058C549.796 199.434 535.459 198.543 521.104 198.39L521.121 196.796C535.887 196.953 550.635 197.887 565.302 199.596C567.287 197.335 569.445 195.233 571.756 193.307C587.654 180.082 610.545 174.676 632.989 178.842C652.867 182.534 672.148 193.246 688.748 209.819C699.049 220.104 708.028 232.268 716.712 244.031C733.336 266.548 749.036 287.817 773.645 298.068C798.379 308.372 828.75 303.684 849.22 286.406C869.692 269.127 879.396 239.988 873.369 213.896L874.924 213.537C881.083 240.197 871.166 269.97 850.25 287.624C836.731 299.034 818.986 305.07 801.304 305.071ZM565.954 201.279C553.995 215.285 549.01 234.696 553.754 251.298C559.721 272.184 581.138 286.864 601.49 284.025C611.817 282.583 621.697 276.031 627.919 266.499C633.705 257.633 635.551 247.353 632.982 238.295C626.197 214.369 597.054 205.508 573.801 202.288C571.194 201.926 568.578 201.59 565.954 201.279Z" fill="#3F3D56"/>
<path d="M182.927 294.889C175.765 294.913 168.622 294.142 161.629 292.59C144.243 288.854 128.622 279.377 117.283 265.686C113.54 261.207 110.131 256.178 106.835 251.315C101.831 243.933 96.6566 236.3 90.3003 230.619C83.9754 224.968 75.6482 221.995 68.5742 222.853C66.0014 223.146 63.5246 224.001 61.3186 225.356C59.1126 226.711 57.2312 228.534 55.8073 230.696L54.489 229.797C56.0387 227.446 58.0861 225.464 60.4865 223.99C62.8869 222.517 65.5819 221.588 68.381 221.27C76.0093 220.342 84.6057 223.391 91.3638 229.43C97.867 235.242 103.098 242.958 108.156 250.421C111.431 255.251 114.816 260.246 118.508 264.663C140.034 290.423 174.226 299.424 212.319 289.36L212.727 290.902C203.007 293.507 192.991 294.847 182.927 294.889V294.889Z" fill="#3F3D56"/>
</svg>
