<svg width="923" height="708" viewBox="0 0 923 708" fill="none" xmlns="http://www.w3.org/2000/svg">
<g clip-path="url(#clip0)">
<path d="M433.643 645.396C438.421 647.076 443.55 647.496 448.538 646.618C453.525 645.739 458.202 643.592 462.118 640.381C472.091 632.011 475.218 618.225 477.762 605.457L485.287 567.69L469.532 578.537C458.202 586.338 446.616 594.389 438.772 605.688C430.927 616.987 427.505 632.412 433.806 644.638" fill="#E4E4E4"/>
<path d="M436.076 693.749C434.093 679.304 432.053 664.671 433.447 650.071C434.683 637.104 438.639 624.441 446.694 614.054C450.97 608.552 456.172 603.838 462.068 600.124C463.605 599.154 465.02 601.589 463.49 602.555C453.288 609.001 445.398 618.52 440.956 629.74C436.05 642.216 435.262 655.816 436.107 669.07C436.618 677.084 437.703 685.047 438.793 692.999C438.88 693.359 438.826 693.738 438.643 694.059C438.46 694.381 438.162 694.621 437.809 694.731C437.449 694.828 437.066 694.78 436.741 694.595C436.417 694.411 436.178 694.107 436.077 693.748L436.076 693.749Z" fill="#F2F2F2"/>
<path d="M450.35 670.57C452.398 673.685 455.215 676.219 458.527 677.929C461.84 679.639 465.537 680.467 469.263 680.334C478.84 679.88 486.821 673.199 494.004 666.854L515.256 648.092L501.191 647.419C491.077 646.934 480.701 646.48 471.067 649.602C461.432 652.725 452.548 660.228 450.786 670.199" fill="#E4E4E4"/>
<path d="M430.471 702.054C440.018 685.163 451.09 666.391 470.877 660.391C476.378 658.729 482.146 658.133 487.871 658.637C489.676 658.793 489.225 661.573 487.424 661.418C477.828 660.622 468.25 663.156 460.303 668.593C452.655 673.798 446.701 681.034 441.662 688.707C438.575 693.408 435.81 698.308 433.044 703.201C432.161 704.765 429.577 703.635 430.471 702.054Z" fill="#F2F2F2"/>
<path d="M106.806 205.438C105.004 205.438 103.275 206.154 102.001 207.428C100.727 208.702 100.011 210.43 100.011 212.232C100.011 214.034 100.727 215.762 102.001 217.037C103.275 218.311 105.004 219.027 106.806 219.027H342.306C344.105 219.023 345.83 218.306 347.102 217.032C348.373 215.758 349.087 214.032 349.087 212.232C349.087 210.433 348.373 208.707 347.102 207.433C345.83 206.159 344.105 205.442 342.306 205.438H106.806Z" fill="#00BFA6"/>
<path d="M106.806 246.203C105.004 246.199 103.274 246.912 101.997 248.183C100.72 249.454 100 251.181 99.9966 252.983C99.9928 254.785 100.705 256.515 101.977 257.791C103.248 259.068 104.975 259.788 106.777 259.791H342.479C344.282 259.791 346.01 259.076 347.284 257.801C348.558 256.527 349.274 254.799 349.274 252.997C349.274 251.195 348.558 249.467 347.284 248.193C346.01 246.919 344.282 246.203 342.479 246.203H106.806Z" fill="#00BFA6"/>
<path d="M106.806 286.385C105.004 286.381 103.274 287.094 101.997 288.365C100.72 289.636 100 291.363 99.9966 293.165C99.9928 294.967 100.705 296.697 101.977 297.973C103.248 299.25 104.975 299.97 106.777 299.973H159.817C161.619 299.973 163.347 299.258 164.622 297.983C165.896 296.709 166.612 294.981 166.612 293.179C166.612 291.377 165.896 289.649 164.622 288.375C163.347 287.101 161.619 286.385 159.817 286.385H106.806Z" fill="#00BFA6"/>
<path d="M747.359 497.324H50V2H747.359V497.324ZM61.4634 485.861H735.895V13.4624H61.4634V485.861Z" fill="#E5E5E5"/>
<path d="M527.933 388.485C524.693 388.481 521.584 389.763 519.289 392.05C516.993 394.337 515.7 397.441 515.694 400.681C515.687 403.921 516.967 407.031 519.252 409.327C521.538 411.624 524.641 412.919 527.881 412.928H644.587C646.194 412.93 647.784 412.615 649.269 412.001C650.753 411.388 652.102 410.488 653.238 409.353C654.374 408.218 655.276 406.87 655.891 405.387C656.506 403.903 656.822 402.313 656.822 400.707C656.822 399.101 656.506 397.511 655.891 396.027C655.276 394.544 654.374 393.196 653.238 392.061C652.102 390.926 650.753 390.026 649.269 389.412C647.784 388.799 646.194 388.484 644.587 388.485H527.933Z" fill="#E4E4E4"/>
<path d="M527.933 240.485C524.693 240.48 521.584 241.762 519.289 244.049C516.993 246.336 515.7 249.44 515.694 252.68C515.687 255.92 516.967 259.03 519.252 261.326C521.538 263.623 524.641 264.918 527.881 264.927H644.587C646.194 264.929 647.784 264.614 649.269 264C650.753 263.387 652.102 262.487 653.238 261.352C654.374 260.217 655.276 258.869 655.891 257.386C656.506 255.902 656.822 254.312 656.822 252.706C656.822 251.1 656.506 249.51 655.891 248.026C655.276 246.543 654.374 245.195 653.238 244.06C652.102 242.925 650.753 242.025 649.269 241.411C647.784 240.798 646.194 240.483 644.587 240.485H527.933Z" fill="#E4E4E4"/>
<path d="M106.806 394.146C105.913 394.144 105.029 394.318 104.204 394.658C103.379 394.997 102.629 395.496 101.997 396.126C101.365 396.755 100.862 397.503 100.519 398.327C100.176 399.151 99.9985 400.034 99.9966 400.926C99.9947 401.818 100.169 402.702 100.508 403.527C100.848 404.352 101.347 405.102 101.977 405.734C102.606 406.366 103.354 406.869 104.178 407.212C105.002 407.555 105.885 407.732 106.777 407.734H342.479C344.282 407.734 346.01 407.019 347.284 405.744C348.558 404.47 349.274 402.742 349.274 400.94C349.274 399.138 348.558 397.41 347.284 396.136C346.01 394.862 344.282 394.146 342.479 394.146H106.806Z" fill="#E4E4E4"/>
<path d="M106.806 434.328C105.913 434.326 105.029 434.5 104.204 434.84C103.379 435.179 102.629 435.678 101.997 436.308C101.365 436.937 100.863 437.685 100.519 438.509C100.176 439.333 99.9985 440.216 99.9966 441.108C99.9947 442 100.169 442.884 100.508 443.709C100.848 444.534 101.347 445.284 101.977 445.916C102.606 446.548 103.354 447.051 104.178 447.394C105.002 447.737 105.885 447.915 106.777 447.916H159.817C161.619 447.916 163.347 447.201 164.622 445.926C165.896 444.652 166.612 442.924 166.612 441.122C166.612 439.32 165.896 437.592 164.622 436.318C163.347 435.044 161.619 434.328 159.817 434.328H106.806Z" fill="#E4E4E4"/>
<path d="M106.806 353.381C105.004 353.381 103.275 354.097 102.001 355.371C100.727 356.645 100.011 358.373 100.011 360.175C100.011 361.977 100.727 363.705 102.001 364.979C103.275 366.254 105.004 366.969 106.806 366.969H342.306C344.105 366.966 345.83 366.249 347.102 364.975C348.373 363.701 349.087 361.975 349.087 360.175C349.087 358.376 348.373 356.649 347.102 355.376C345.83 354.102 344.105 353.385 342.306 353.381H106.806Z" fill="#E4E4E4"/>
<path d="M106.806 57.4954C105.004 57.4954 103.275 58.2112 102.001 59.4853C100.727 60.7595 100.011 62.4876 100.011 64.2895C100.011 66.0914 100.727 67.8196 102.001 69.0937C103.275 70.3679 105.004 71.0837 106.806 71.0837H342.306C344.105 71.0803 345.83 70.363 347.102 69.0892C348.373 67.8154 349.087 66.0892 349.087 64.2895C349.087 62.4898 348.373 60.7637 347.102 59.4899C345.83 58.2161 344.105 57.4988 342.306 57.4954H106.806Z" fill="#E4E4E4"/>
<path d="M106.806 98.2602C105.913 98.2583 105.029 98.4322 104.204 98.7719C103.379 99.1116 102.629 99.6105 101.997 100.24C101.365 100.87 100.862 101.618 100.519 102.441C100.176 103.265 99.9985 104.148 99.9966 105.04C99.9947 105.932 100.169 106.816 100.508 107.641C100.848 108.466 101.347 109.216 101.977 109.848C102.606 110.481 103.354 110.983 104.178 111.326C105.002 111.669 105.885 111.847 106.777 111.849H342.479C343.372 111.849 344.255 111.673 345.08 111.331C345.904 110.99 346.653 110.489 347.284 109.859C347.915 109.228 348.416 108.479 348.757 107.654C349.098 106.83 349.274 105.947 349.274 105.054C349.274 104.162 349.098 103.279 348.757 102.454C348.416 101.63 347.915 100.881 347.284 100.25C346.653 99.6193 345.904 99.1188 345.08 98.7774C344.255 98.4359 343.372 98.2602 342.479 98.2602H106.806Z" fill="#E4E4E4"/>
<path d="M106.806 138.442C105.004 138.438 103.274 139.151 101.997 140.422C100.72 141.694 100 143.42 99.9966 145.222C99.9928 147.024 100.705 148.754 101.977 150.03C103.248 151.307 104.975 152.027 106.777 152.031H159.817C161.619 152.031 163.347 151.315 164.622 150.041C165.896 148.766 166.612 147.038 166.612 145.236C166.612 143.434 165.896 141.706 164.622 140.432C163.347 139.158 161.619 138.442 159.817 138.442H106.806Z" fill="#E4E4E4"/>
<path d="M527.933 92.5997C524.693 92.5952 521.584 93.8773 519.289 96.1642C516.993 98.451 515.7 101.555 515.694 104.795C515.687 108.035 516.967 111.145 519.252 113.441C521.538 115.738 524.641 117.033 527.881 117.042H644.587C646.194 117.044 647.784 116.729 649.269 116.115C650.753 115.502 652.102 114.602 653.238 113.467C654.374 112.332 655.276 110.984 655.891 109.501C656.506 108.017 656.822 106.427 656.822 104.821C656.822 103.215 656.506 101.625 655.891 100.141C655.276 98.6577 654.374 97.3099 653.238 96.1749C652.102 95.0399 650.753 94.1399 649.269 93.5265C647.784 92.913 646.194 92.5981 644.587 92.5997H527.933Z" fill="#E4E4E4"/>
<path d="M552.519 126.622C564.625 126.622 574.439 116.81 574.439 104.705C574.439 92.6003 564.625 82.7875 552.519 82.7875C540.413 82.7875 530.6 92.6003 530.6 104.705C530.6 116.81 540.413 126.622 552.519 126.622Z" fill="#CACACA"/>
<path d="M590.83 258.006C590.587 259.765 590.733 261.556 591.257 263.253C591.781 264.95 592.671 266.512 593.864 267.828C595.057 269.143 596.525 270.182 598.162 270.869C599.8 271.557 601.569 271.877 603.344 271.807L614.984 297.013L632.028 293.676L615.09 258.311C614.775 255.338 613.38 252.583 611.169 250.569C608.959 248.555 606.086 247.422 603.096 247.384C600.105 247.346 597.205 248.407 594.944 250.364C592.684 252.322 591.22 255.041 590.83 258.006V258.006Z" fill="#FFB6B6"/>
<path d="M708.746 353.391L661.254 329.901L627.742 273.029L604.317 284.359L634.717 350.059L711.513 394.387L708.746 353.391Z" fill="#3F3D56"/>
<path d="M601.527 689.595L586.598 689.594L579.494 646.553L601.529 646.554L601.527 689.595Z" fill="#FFB6B6"/>
<path d="M605.334 704.065L557.196 704.063V703.454C557.196 698.485 559.17 693.72 562.684 690.207C566.198 686.694 570.963 684.72 575.933 684.719H575.934L605.335 684.721L605.334 704.065Z" fill="#2F2E41"/>
<path d="M750.549 662.215L740.132 672.908L704.34 647.966L719.714 632.183L750.549 662.215Z" fill="#FFB6B6"/>
<path d="M763.573 669.584L729.985 704.065L729.549 703.64C725.989 700.173 723.952 695.434 723.887 690.466C723.821 685.498 725.732 680.707 729.199 677.147L729.2 677.146L749.714 656.086L763.573 669.584Z" fill="#2F2E41"/>
<path d="M619.984 433.44H609.658C582.815 462.771 562.325 497.332 549.474 534.956L537.139 571.07L581.102 663.111L608.535 663.6L577.181 565.883L608.77 523.996L610.362 608.198L712.035 661.486L732.383 631.428L649.649 586.193L663.739 514.572C663.739 514.572 692.087 490.935 675.579 453.982L619.984 433.44Z" fill="#2F2E41"/>
<path d="M755.883 339.709L712.975 320.918L665.748 341.844C665.748 341.844 652.374 349.45 660.899 368.932L609.658 433.44C609.658 433.44 609.753 433.467 674.15 453.982L732.25 402.821C741.072 395.053 747.844 385.23 751.966 374.223C756.088 363.215 757.433 351.361 755.883 339.709V339.709Z" fill="#3F3D56"/>
<path d="M748.682 320.363C765.201 320.363 778.591 306.974 778.591 290.457C778.591 273.94 765.201 260.551 748.682 260.551C732.164 260.551 718.773 273.94 718.773 290.457C718.773 306.974 732.164 320.363 748.682 320.363Z" fill="#FFB6B6"/>
<path d="M787.416 250.77C780.552 245.186 769.906 243.967 762.82 249.266C750.461 242.78 733.759 246.163 724.899 256.948C721.711 260.828 719.452 266.079 721.029 270.847C722.607 275.615 729.41 278.418 732.956 274.861L732.893 276.326C736.087 279.524 738.301 283.568 739.276 287.981C740.251 292.395 739.945 296.995 738.395 301.24C736.844 305.486 734.114 309.201 730.525 311.948C726.936 314.696 722.637 316.361 718.133 316.75C727.934 320.708 737.735 324.667 747.536 328.626C751.66 330.292 755.915 331.984 760.363 331.962C764.81 331.939 769.551 329.778 771.277 325.679C772.518 329.483 773.759 333.286 774.999 337.089C782.305 325.468 788.314 313.081 792.919 300.15C795.886 291.814 798.285 283.097 797.964 274.255C797.644 265.413 794.281 256.354 787.416 250.77Z" fill="#2F2E41"/>
<path d="M552.519 422.508C564.625 422.508 574.439 412.695 574.439 400.591C574.439 388.486 564.625 378.673 552.519 378.673C540.413 378.673 530.6 388.486 530.6 400.591C530.6 412.695 540.413 422.508 552.519 422.508Z" fill="#CACACA"/>
<path d="M620.713 274.623C632.819 274.623 642.632 264.811 642.632 252.706C642.632 240.601 632.819 230.788 620.713 230.788C608.607 230.788 598.793 240.601 598.793 252.706C598.793 264.811 608.607 274.623 620.713 274.623Z" fill="#00BFA6"/>
<path d="M621.273 245.829C621.03 247.589 621.176 249.38 621.701 251.077C622.225 252.774 623.115 254.335 624.308 255.651C625.501 256.967 626.968 258.005 628.606 258.693C630.244 259.38 632.012 259.701 633.787 259.631L645.427 284.836L662.471 281.499L645.533 246.135C645.218 243.161 643.823 240.406 641.613 238.392C639.402 236.378 636.53 235.245 633.539 235.207C630.549 235.17 627.649 236.23 625.388 238.188C623.127 240.146 621.663 242.864 621.273 245.829V245.829Z" fill="#FFB6B6"/>
<path d="M739.19 341.214L691.698 317.725L658.185 260.853L634.761 272.183L665.161 337.883L741.957 382.211L739.19 341.214Z" fill="#3F3D56"/>
<path d="M872.782 705H408.82C408.497 705 408.187 704.872 407.959 704.643C407.73 704.415 407.602 704.105 407.602 703.782C407.602 703.46 407.73 703.15 407.959 702.921C408.187 702.693 408.497 702.565 408.82 702.565H872.782C873.105 702.565 873.415 702.693 873.643 702.921C873.872 703.15 874 703.46 874 703.782C874 704.105 873.872 704.415 873.643 704.643C873.415 704.872 873.105 705 872.782 705Z" fill="#CACACA"/>
</g>
<defs>
<clipPath id="clip0">
<rect width="824" height="703" fill="white" transform="translate(50 2)"/>
</clipPath>
</defs>
</svg>
