<svg width="512" height="512" viewBox="0 0 512 512" fill="none" xmlns="http://www.w3.org/2000/svg">
<circle cx="256" cy="256" r="256" fill="#39027A"/>
<path d="M419 256C419 346.022 346.022 419 256 419C165.978 419 93 346.022 93 256C93 214.26 108.689 176.185 134.491 147.349V258.964H134.526C136.1 324.702 189.883 377.509 256 377.509C323.108 377.509 377.509 323.108 377.509 256C377.509 188.892 323.108 134.491 256 134.491C228.111 134.491 202.416 143.887 181.909 159.686V110.773C204.138 99.4096 229.321 93 256 93C346.022 93 419 165.978 419 256Z" fill="white"/>
<path d="M336.018 256C336.018 300.193 300.192 336.018 256 336.018C211.807 336.018 175.981 300.193 175.981 256C175.981 211.807 211.807 175.982 256 175.982C300.192 175.982 336.018 211.807 336.018 256Z" fill="#03C2A7"/>
</svg>
