<svg width="110" height="110" viewBox="0 0 110 110" fill="none" xmlns="http://www.w3.org/2000/svg">
<path d="M110 55C110 85.3757 85.3757 110 55 110C24.6243 110 0 85.3757 0 55C0 40.916 5.29374 28.0685 14 18.3386V56H14.012C14.5429 78.1817 32.6906 96 55 96C77.6437 96 96 77.6437 96 55C96 32.3563 77.6437 14 55 14C45.5896 14 36.9196 17.1704 30 22.5013V5.99707C37.5007 2.16276 45.9978 0 55 0C85.3757 0 110 24.6243 110 55Z" fill="#39027A"/>
<path d="M82 55C82 69.9117 69.9117 82 55 82C40.0883 82 28 69.9117 28 55C28 40.0883 40.0883 28 55 28C69.9117 28 82 40.0883 82 55Z" fill="#03C2A7"/>
</svg>
