<svg width="656" height="699" viewBox="0 0 656 699" fill="none" xmlns="http://www.w3.org/2000/svg">
<path d="M566.614 134.027C549.316 117.724 531.52 100.797 508.994 78.2773C506.629 76.0377 503.395 74.668 500.16 74.668H159.187C155.828 74.668 152.718 76.0377 150.354 78.2773C127.827 100.804 110.036 117.725 92.7338 134.027C75.3124 150.453 57.2644 167.5 34.6191 190.277C32.3795 192.642 31.0098 195.751 31.0098 199.111C31.0098 459.937 124.718 610.031 326.063 671.497C327.183 671.872 328.428 671.997 329.672 671.997C330.917 671.997 332.162 671.872 333.282 671.497C534.628 610.024 628.335 459.951 628.335 199.111C628.335 195.751 626.965 192.642 624.726 190.277C601.955 167.627 583.908 150.58 566.611 134.027H566.614ZM329.667 646.493C141.627 587.753 57.0138 451.107 55.8938 204.213C76.6751 183.557 93.6018 167.5 109.904 152.073C126.331 136.516 143.378 120.464 164.41 99.4333H495.063C516.094 120.34 533.016 136.392 549.568 152.073C565.871 167.505 582.798 183.557 603.579 204.213C602.329 451.107 517.71 587.747 329.672 646.493H329.667Z" fill="white"/>
<path d="M488.334 128.052C485.969 125.688 482.86 124.443 479.62 124.443H179.713C176.479 124.443 173.364 125.688 171 128.052C154.573 144.104 140.636 157.422 126.948 170.24C113.26 183.308 100.068 195.751 84.6358 210.808C82.1462 213.173 80.7765 216.532 80.9014 219.892C85.1306 440.158 160.672 563.238 325.555 618.985C326.8 619.485 328.169 619.605 329.539 619.605C330.909 619.605 332.279 619.355 333.524 618.985C498.537 563.11 573.95 440.038 578.177 219.892C578.302 216.407 576.932 213.173 574.443 210.808C559.011 195.751 545.943 183.308 532.131 170.24C518.699 157.298 504.761 144.104 488.333 128.052H488.334ZM329.667 594.106C178.214 541.34 111.014 430.466 105.92 224.746C119.608 211.428 131.556 200.106 143.999 188.282C156.692 176.209 169.759 163.891 184.692 149.328H474.399C489.331 163.891 502.399 176.334 515.092 188.282C527.535 200.104 539.608 211.427 553.171 224.746C548.322 430.452 481.119 541.332 329.678 594.106H329.667Z" fill="white"/>
<path d="M416.773 311.106H404.331V273.773C404.331 232.58 370.857 199.106 329.664 199.106C288.471 199.106 254.997 232.58 254.997 273.773V311.106H242.555C228.867 311.106 217.664 322.304 217.664 335.997V460.44C217.664 474.128 228.862 485.33 242.555 485.33H416.781C430.469 485.33 441.672 474.133 441.672 460.44L441.667 335.997C441.667 322.309 430.469 311.106 416.776 311.106H416.773ZM279.893 273.773C279.893 246.273 302.169 223.997 329.669 223.997C357.169 223.997 379.445 246.273 379.445 273.773V311.106H279.888L279.893 273.773ZM242.56 460.44V335.997H416.787V460.44H242.56Z" fill="white"/>
<path d="M329.666 373.333C322.823 373.333 317.224 378.932 317.224 385.776V410.667C317.224 417.511 322.823 423.109 329.666 423.109C336.51 423.109 342.109 417.511 342.109 410.667V385.776C342.109 378.932 336.51 373.333 329.666 373.333Z" fill="white"/>
</svg>
