<svg width="699" height="699" viewBox="0 0 699 699" fill="none" xmlns="http://www.w3.org/2000/svg">
<path d="M584.9 64.0007C588.152 64.0007 591.104 66.9576 591.109 70.2089V628.792C591.109 632.043 588.152 634.996 584.9 635H113.208C109.957 635 107.004 632.043 107 628.792V181.925C107 178.674 109.957 175.717 113.208 175.717H243.544V70.2082C243.544 66.9569 246.501 64 249.752 64L584.9 64.0007ZM578.692 76.4125H255.955V622.582H342.844V504.659C342.844 501.408 345.801 498.451 349.052 498.451H485.595C488.846 498.451 491.798 501.408 491.803 504.659V622.582H578.691L578.692 76.4125ZM547.66 101.236C550.911 101.236 553.864 104.193 553.868 107.444V169.509C553.868 172.761 550.911 175.717 547.66 175.717H485.595C482.344 175.717 479.391 172.761 479.387 169.509V107.444C479.387 104.193 482.344 101.236 485.595 101.236H547.66ZM448.354 101.236C451.605 101.236 454.558 104.193 454.562 107.444V169.509C454.562 172.761 451.605 175.717 448.354 175.717H386.289C383.038 175.717 380.085 172.761 380.081 169.509V107.444C380.081 104.193 383.038 101.236 386.289 101.236H448.354ZM349.048 101.236C352.299 101.236 355.252 104.193 355.256 107.444V169.509C355.256 172.761 352.299 175.717 349.048 175.717H286.983C283.732 175.717 280.779 172.761 280.775 169.509V107.444C280.775 104.193 283.732 101.236 286.983 101.236H349.048ZM541.449 113.648H491.796V163.301H541.449V113.648ZM442.143 113.648H392.49V163.301H442.143V113.648ZM342.837 113.648H293.184V163.301H342.837V113.648ZM243.531 188.125H119.402V622.578H243.531V188.125ZM547.649 200.536C550.9 200.536 553.853 203.493 553.857 206.745V268.809C553.857 272.061 550.9 275.018 547.649 275.018H485.584C482.333 275.018 479.38 272.061 479.376 268.809V206.745C479.376 203.493 482.333 200.536 485.584 200.536H547.649ZM448.343 200.536C451.594 200.536 454.547 203.493 454.551 206.745V268.809C454.551 272.061 451.594 275.018 448.343 275.018H386.278C383.027 275.018 380.074 272.061 380.07 268.809V206.745C380.07 203.493 383.027 200.536 386.278 200.536H448.343ZM349.037 200.536C352.288 200.536 355.241 203.493 355.245 206.745V268.809C355.245 272.061 352.288 275.018 349.037 275.018H286.972C283.721 275.018 280.768 272.061 280.764 268.809V206.745C280.764 203.493 283.721 200.536 286.972 200.536H349.037ZM541.438 212.948H491.785V262.601H541.438V212.948ZM442.132 212.948H392.479V262.601H442.132V212.948ZM342.826 212.948H293.173V262.601H342.826V212.948ZM212.49 212.948C215.741 212.948 218.694 215.905 218.698 219.157V281.221C218.698 284.473 215.741 287.43 212.49 287.43H150.425C147.174 287.43 144.221 284.473 144.217 281.221V219.157C144.217 215.905 147.174 212.948 150.425 212.948H212.49ZM206.282 225.36H156.629V275.013H206.282V225.36ZM547.638 299.837C550.889 299.837 553.842 302.794 553.846 306.045V368.11C553.846 371.361 550.889 374.314 547.638 374.318H485.573C482.322 374.318 479.369 371.361 479.365 368.11V306.045C479.365 302.794 482.322 299.837 485.573 299.837H547.638ZM448.332 299.837C451.584 299.837 454.536 302.794 454.54 306.045V368.11C454.54 371.361 451.584 374.314 448.332 374.318H386.267C383.016 374.318 380.064 371.361 380.059 368.11V306.045C380.059 302.794 383.016 299.837 386.267 299.837H448.332ZM349.026 299.837C352.278 299.837 355.23 302.794 355.235 306.045V368.11C355.235 371.361 352.278 374.314 349.026 374.318H286.962C283.71 374.318 280.758 371.361 280.753 368.11V306.045C280.753 302.794 283.71 299.837 286.962 299.837H349.026ZM541.427 312.249H491.774V361.902H541.427V312.249ZM442.121 312.249H392.468V361.902H442.121V312.249ZM342.815 312.249H293.163V361.902H342.815V312.249ZM212.479 312.249C215.731 312.249 218.683 315.206 218.688 318.457V380.522C218.688 383.773 215.731 386.726 212.479 386.73H150.415C147.163 386.73 144.211 383.773 144.206 380.522V318.457C144.206 315.206 147.163 312.249 150.415 312.249H212.479ZM206.271 324.66H156.618V374.313H206.271V324.66ZM547.627 399.137C550.879 399.137 553.831 402.094 553.836 405.345V467.41C553.836 470.661 550.879 473.614 547.627 473.618H485.563C482.311 473.618 479.359 470.661 479.354 467.41V405.345C479.354 402.094 482.311 399.137 485.563 399.137H547.627ZM448.322 399.137C451.573 399.137 454.525 402.094 454.53 405.345V467.41C454.53 470.661 451.573 473.614 448.322 473.618H386.257C383.006 473.618 380.053 470.661 380.049 467.41V405.345C380.049 402.094 383.006 399.137 386.257 399.137H448.322ZM349.016 399.137C352.267 399.137 355.22 402.094 355.224 405.345V467.41C355.224 470.661 352.267 473.614 349.016 473.618H286.951C283.7 473.618 280.747 470.661 280.743 467.41V405.345C280.743 402.094 283.7 399.137 286.951 399.137H349.016ZM541.417 411.549H491.764V461.202H541.417V411.549ZM442.111 411.549H392.458V461.202H442.111V411.549ZM342.805 411.549H293.152V461.202H342.805V411.549ZM212.469 411.549C215.72 411.549 218.673 414.506 218.677 417.757V479.822C218.677 483.073 215.72 486.026 212.469 486.03H150.404C147.153 486.03 144.2 483.073 144.196 479.822V417.757C144.196 414.506 147.153 411.549 150.404 411.549H212.469ZM206.261 423.961H156.608V473.614H206.261V423.961ZM479.346 510.849H423.489V622.566H479.346V510.849ZM411.072 510.849H355.216V622.566H411.072V510.849ZM212.465 510.849C215.716 510.849 218.669 513.806 218.673 517.057V579.122C218.673 582.373 215.716 585.326 212.465 585.33H150.4C147.149 585.33 144.196 582.373 144.192 579.122V517.057C144.192 513.806 147.149 510.849 150.4 510.849H212.465ZM206.257 523.261H156.604V572.914H206.257V523.261Z" fill="white"/>
</svg>
