<svg width="923" height="708" viewBox="0 0 923 708" fill="none" xmlns="http://www.w3.org/2000/svg">
<g clip-path="url(#clip0)">
<path d="M531.66 686.059C531.534 685.85 528.513 680.807 527.466 670.334C526.506 660.726 527.123 644.531 535.518 621.94C551.422 579.144 531.853 544.613 531.653 544.27L532.619 543.709C536.386 550.924 539.107 558.638 540.702 566.619C544.644 585.206 543.209 604.531 536.565 622.33C520.688 665.054 532.492 685.278 532.613 685.478L531.66 686.059Z" fill="#F2F2F2"/>
<path d="M525.441 541.757C529.447 541.757 532.694 538.508 532.694 534.501C532.694 530.493 529.447 527.244 525.441 527.244C521.435 527.244 518.188 530.493 518.188 534.501C518.188 538.508 521.435 541.757 525.441 541.757Z" fill="#F2F2F2"/>
<path d="M548.316 568.55C552.322 568.55 555.569 565.301 555.569 561.293C555.569 557.285 552.322 554.036 548.316 554.036C544.31 554.036 541.063 557.285 541.063 561.293C541.063 565.301 544.31 568.55 548.316 568.55Z" fill="#F2F2F2"/>
<path d="M532.694 586.412C536.7 586.412 539.947 583.163 539.947 579.155C539.947 575.148 536.7 571.899 532.694 571.899C528.688 571.899 525.44 575.148 525.44 579.155C525.44 583.163 528.688 586.412 532.694 586.412Z" fill="#F2F2F2"/>
<path d="M551.663 601.483C555.669 601.483 558.917 598.234 558.917 594.227C558.917 590.219 555.669 586.97 551.663 586.97C547.658 586.97 544.41 590.219 544.41 594.227C544.41 598.234 547.658 601.483 551.663 601.483Z" fill="#F2F2F2"/>
<path d="M527.114 624.927C531.12 624.927 534.368 621.678 534.368 617.67C534.368 613.662 531.12 610.413 527.114 610.413C523.109 610.413 519.861 613.662 519.861 617.67C519.861 621.678 523.109 624.927 527.114 624.927Z" fill="#F2F2F2"/>
<path d="M536.041 686.323C536.041 686.323 528.788 668.462 550.547 655.065L536.041 686.323Z" fill="#F2F2F2"/>
<path d="M527.122 686.002C527.122 686.002 523.821 667.008 498.273 667.17L527.122 686.002Z" fill="#F2F2F2"/>
<path d="M151.224 158.156C145.424 158.156 139.755 156.436 134.933 153.212C130.111 149.989 126.353 145.407 124.133 140.046C121.914 134.686 121.333 128.787 122.465 123.097C123.596 117.406 126.389 112.179 130.49 108.076C134.59 103.973 139.815 101.179 145.503 100.047C151.191 98.9154 157.087 99.4963 162.445 101.717C167.803 103.937 172.383 107.697 175.605 112.522C178.827 117.346 180.547 123.018 180.547 128.82C180.547 136.6 177.457 144.062 171.958 149.564C166.459 155.065 159.001 158.156 151.224 158.156V158.156ZM151.224 100.496C145.624 100.496 140.15 102.157 135.495 105.27C130.839 108.382 127.21 112.806 125.067 117.982C122.924 123.157 122.364 128.853 123.456 134.347C124.548 139.842 127.245 144.889 131.204 148.85C135.164 152.811 140.209 155.509 145.7 156.602C151.192 157.695 156.885 157.134 162.058 154.99C167.232 152.846 171.653 149.216 174.764 144.558C177.875 139.9 179.536 134.423 179.536 128.821C179.536 125.101 178.803 121.418 177.381 117.982C175.958 114.545 173.872 111.422 171.243 108.792C168.614 106.162 165.493 104.076 162.058 102.652C158.623 101.229 154.942 100.496 151.224 100.496V100.496Z" fill="#3F3D56"/>
<path d="M448.467 158.156C442.668 158.156 436.999 156.436 432.176 153.212C427.354 149.989 423.596 145.407 421.377 140.046C419.157 134.686 418.577 128.787 419.708 123.097C420.839 117.406 423.632 112.179 427.733 108.076C431.834 103.973 437.059 101.179 442.747 100.047C448.435 98.9154 454.331 99.4963 459.689 101.717C465.047 103.937 469.626 107.697 472.848 112.522C476.07 117.346 477.79 123.018 477.79 128.82C477.79 136.6 474.701 144.062 469.201 149.564C463.702 155.065 456.244 158.156 448.467 158.156V158.156ZM448.467 100.496C442.868 100.496 437.394 102.157 432.738 105.27C428.082 108.382 424.453 112.806 422.31 117.982C420.168 123.157 419.607 128.853 420.699 134.347C421.792 139.842 424.488 144.889 428.448 148.85C432.407 152.811 437.452 155.509 442.944 156.602C448.436 157.695 454.128 157.134 459.302 154.99C464.475 152.846 468.897 149.216 472.008 144.558C475.119 139.9 476.779 134.423 476.779 128.821C476.779 125.101 476.047 121.418 474.624 117.982C473.201 114.545 471.116 111.422 468.487 108.792C465.858 106.162 462.737 104.076 459.302 102.652C455.867 101.229 452.185 100.496 448.467 100.496V100.496Z" fill="#3F3D56"/>
<path d="M555.826 90.0685H45.0161C35.0721 90.0855 27.0136 100.045 27 112.338V355.983C27.0136 368.274 35.0721 378.23 45.0161 378.252H555.826C565.77 378.235 573.829 368.275 573.842 355.983V112.337C573.829 100.046 565.77 90.09 555.826 90.0673V90.0685ZM571.725 355.983C571.714 366.829 564.604 375.619 555.829 375.632H45.0161C36.2406 375.618 29.1329 366.829 29.1193 355.983V112.337C29.1295 101.49 36.2406 92.7006 45.0161 92.6882H555.826C564.602 92.7018 571.71 101.49 571.723 112.337L571.725 355.983Z" fill="#3F3D56"/>
<path d="M155.2 188.064H64.4391V251.626H155.2V188.064Z" fill="#F2F2F2"/>
<path d="M282.266 188.064H191.505V251.626H282.266V188.064Z" fill="#F2F2F2"/>
<path d="M409.332 188.064H318.571V251.626H409.332V188.064Z" fill="#F2F2F2"/>
<path d="M536.398 188.064H445.636V251.626H536.398V188.064Z" fill="#F2F2F2"/>
<path d="M155.2 281.137H64.4391V344.699H155.2V281.137Z" fill="#F2F2F2"/>
<path d="M282.266 281.137H191.505V344.699H282.266V281.137Z" fill="#F2F2F2"/>
<path d="M409.332 281.137H318.571V344.699H409.332V281.137Z" fill="#F2F2F2"/>
<path d="M536.398 281.137H445.636V344.699H536.398V281.137Z" fill="#F2F2F2"/>
<path d="M221.739 344.329L200.313 314.726L206.149 310.499L222.55 333.158L285.308 268.652L290.47 273.68L221.739 344.329Z" fill="#00BFA6"/>
<path d="M349.939 251.256L328.514 221.653L334.35 217.426L350.75 240.085L413.508 175.578L418.67 180.606L349.939 251.256Z" fill="#00BFA6"/>
<path d="M151.611 20H150.06V128.953H151.611V20Z" fill="#2F2E41"/>
<path d="M449.989 20H448.438V128.953H449.989V20Z" fill="#2F2E41"/>
<path d="M895.337 687.997H465.071C464.858 688.011 464.644 687.981 464.443 687.909C464.242 687.837 464.058 687.725 463.902 687.579C463.746 687.433 463.622 687.256 463.537 687.06C463.452 686.864 463.408 686.653 463.408 686.439C463.408 686.226 463.452 686.014 463.537 685.818C463.622 685.622 463.746 685.446 463.902 685.3C464.058 685.154 464.242 685.042 464.443 684.97C464.644 684.898 464.858 684.868 465.071 684.882H895.337C895.55 684.868 895.764 684.898 895.965 684.97C896.166 685.042 896.35 685.154 896.506 685.3C896.662 685.446 896.786 685.622 896.871 685.818C896.956 686.014 897 686.226 897 686.439C897 686.653 896.956 686.864 896.871 687.06C896.786 687.256 896.662 687.433 896.506 687.579C896.35 687.725 896.166 687.837 895.965 687.909C895.764 687.981 895.55 688.011 895.337 687.997V687.997Z" fill="#3F3D56"/>
<path d="M95.8073 251.256L74.382 221.653L80.2179 217.426L96.6185 240.085L159.377 175.578L164.539 180.606L95.8073 251.256Z" fill="#00BFA6"/>
<path d="M771.525 443.128C772.127 442.949 772.742 442.817 773.364 442.734L798.21 392.225L790.625 380.848L806.289 367.152L825.981 391.26L785.875 449.656C786.863 451.865 787.157 454.323 786.715 456.703C786.273 459.083 785.118 461.271 783.402 462.978C781.686 464.685 779.492 465.828 777.111 466.257C774.73 466.685 772.274 466.378 770.072 465.376C767.87 464.374 766.024 462.725 764.782 460.648C763.539 458.571 762.958 456.165 763.116 453.75C763.273 451.334 764.163 449.024 765.665 447.127C767.167 445.229 769.211 443.835 771.525 443.128V443.128Z" fill="#FFB8B8"/>
<path d="M813.937 374.138C813.598 374.494 813.21 374.8 812.784 375.046L787.364 389.789C786.193 390.468 784.799 390.654 783.491 390.306C782.183 389.957 781.066 389.103 780.387 387.931C780.316 387.809 780.25 387.683 780.19 387.555L767.823 361.423C767.297 360.324 767.184 359.071 767.504 357.895C767.824 356.719 768.556 355.697 769.567 355.016L785.324 344.292C786.308 343.623 787.495 343.318 788.679 343.431C789.864 343.543 790.972 344.066 791.811 344.909L813.836 367.021C814.774 367.962 815.309 369.231 815.327 370.559C815.345 371.888 814.845 373.171 813.933 374.137L813.937 374.138Z" fill="#CCCCCC"/>
<path d="M849.629 663.541L836.207 667.195L815.735 617.139L835.543 611.747L849.629 663.541Z" fill="#FFB8B8"/>
<path d="M825.581 665.961L851.464 658.915L855.897 675.216L813.717 686.698C812.541 682.373 813.13 677.759 815.355 673.869C817.58 669.979 821.258 667.133 825.58 665.957H825.58L825.581 665.961Z" fill="#2F2E41"/>
<path d="M734.894 673.787H720.984L714.366 620.113H734.894V673.787Z" fill="#FFB8B8"/>
<path d="M711.05 669.81H737.874V686.708H694.16C694.16 684.489 694.597 682.292 695.445 680.242C696.294 678.192 697.538 676.329 699.106 674.76C700.674 673.19 702.536 671.946 704.585 671.096C706.634 670.247 708.831 669.81 711.049 669.81H711.05Z" fill="#2F2E41"/>
<path d="M749.548 326.475C764.938 326.475 777.413 313.994 777.413 298.597C777.413 283.201 764.938 270.72 749.548 270.72C734.159 270.72 721.684 283.201 721.684 298.597C721.684 313.994 734.159 326.475 749.548 326.475Z" fill="#FFB8B8"/>
<path d="M734.042 635.518H715.035C713.735 635.517 712.484 635.021 711.536 634.131C710.588 633.241 710.014 632.023 709.93 630.725C704.267 540.646 707.579 476.031 720.356 427.378C720.412 427.165 720.481 426.956 720.563 426.752L721.584 424.206C721.96 423.256 722.614 422.441 723.459 421.869C724.305 421.296 725.304 420.991 726.325 420.995H765.411C766.148 420.994 766.876 421.153 767.545 421.461C768.214 421.769 768.809 422.218 769.288 422.778L774.596 428.975C774.7 429.096 774.797 429.219 774.89 429.349C798.828 462.748 820.283 528.045 845.13 615.811C845.497 617.087 845.352 618.455 844.725 619.625C844.098 620.795 843.039 621.673 841.775 622.073L821.353 628.613C820.181 628.983 818.914 628.919 817.785 628.433C816.655 627.947 815.737 627.072 815.198 625.967L762.19 515.973C761.82 515.204 761.212 514.575 760.456 514.18C759.7 513.784 758.837 513.642 757.994 513.775C757.152 513.908 756.374 514.309 755.777 514.919C755.18 515.529 754.796 516.315 754.68 517.16L739.101 631.101C738.93 632.323 738.324 633.443 737.395 634.254C736.466 635.065 735.275 635.514 734.042 635.518V635.518Z" fill="#2F2E41"/>
<path d="M772.454 429.429H772.294L724.814 427.926C723.593 427.892 722.425 427.42 721.524 426.597C720.622 425.773 720.046 424.652 719.902 423.439C713.889 374.699 730.39 361.641 737.766 358.287C738.383 358.009 738.917 357.576 739.317 357.03C739.717 356.485 739.969 355.845 740.049 355.174L740.688 350.066C740.797 349.164 741.145 348.307 741.696 347.585C753.262 332.597 769.053 327.796 777.434 326.271C778.764 326.032 780.135 326.331 781.245 327.103C782.355 327.876 783.113 329.057 783.352 330.388C783.367 330.472 783.38 330.556 783.391 330.641L784.347 337.977C784.445 338.676 784.724 339.338 785.156 339.896C809.275 371.441 782.406 418.018 776.775 427.034C776.315 427.766 775.678 428.369 774.923 428.788C774.167 429.207 773.318 429.428 772.454 429.429V429.429Z" fill="#CCCCCC"/>
<path d="M757.514 490.349L721.643 497.265L720.28 490.187L747.737 484.892L715.824 400.726L722.561 398.171L757.514 490.349Z" fill="#00BFA6"/>
<path d="M805.767 301.736C799.551 292.979 792.097 285.172 783.638 278.558C776.604 273.063 768.776 268.368 760.144 266.123C751.511 263.878 741.97 264.259 734.092 268.448C726.214 272.638 718.067 280.962 718.017 289.888C718.001 292.756 718.73 296.636 721.553 296.14L722.37 296.254L742.799 292.125L751.5 322.336C752.111 324.458 752.932 326.832 754.945 327.736C756.842 328.589 759.03 327.785 760.958 326.984C761.274 326.852 763.985 320.761 763.985 320.761C764.053 320.571 764.171 320.402 764.326 320.273C764.481 320.143 764.667 320.057 764.867 320.024C765.066 319.99 765.27 320.011 765.459 320.083C765.648 320.155 765.814 320.277 765.94 320.434L767.551 322.449C767.858 322.835 768.283 323.11 768.76 323.233C769.237 323.356 769.742 323.32 770.197 323.13L803.513 309.216C805.048 308.574 806.763 307.74 807.208 306.134C807.628 304.589 806.688 303.037 805.767 301.736Z" fill="#2F2E41"/>
<path d="M768.027 498.707C769.485 497.683 770.702 496.352 771.59 494.807C772.479 493.262 773.019 491.541 773.171 489.765C773.323 487.989 773.084 486.201 772.471 484.528C771.857 482.854 770.885 481.335 769.622 480.078L778.44 373.531L752.183 377.145L751.684 480.661C749.71 482.923 748.635 485.831 748.663 488.834C748.69 491.836 749.819 494.724 751.833 496.95C753.848 499.176 756.609 500.584 759.593 500.908C762.577 501.232 765.576 500.449 768.021 498.708L768.027 498.707Z" fill="#FFB8B8"/>
<path d="M780.156 388.873C779.665 388.873 779.176 388.802 778.704 388.663L750.516 380.368C749.873 380.179 749.273 379.865 748.751 379.444C748.23 379.023 747.796 378.503 747.475 377.914C747.154 377.325 746.952 376.679 746.88 376.012C746.809 375.345 746.87 374.67 747.059 374.027C747.099 373.891 747.144 373.757 747.195 373.625L757.627 346.663C758.062 345.524 758.892 344.58 759.965 344.002C761.039 343.424 762.284 343.252 763.473 343.517L782.097 347.567C783.259 347.82 784.297 348.471 785.03 349.408C785.764 350.344 786.148 351.508 786.115 352.698L785.248 383.903C785.212 385.231 784.66 386.493 783.71 387.42C782.759 388.348 781.485 388.869 780.156 388.872V388.873Z" fill="#CCCCCC"/>
</g>
<defs>
<clipPath id="clip0">
<rect width="870" height="668" fill="white" transform="translate(27 20)"/>
</clipPath>
</defs>
</svg>
