<svg width="512" height="512" viewBox="0 0 512 512" fill="none" xmlns="http://www.w3.org/2000/svg">
<path d="M246.4 480.946L245.828 468.084C245.769 468.053 245.709 468.021 245.65 467.99C239.52 464.773 232.495 470.596 234.453 477.235C236.295 483.482 237.532 490.217 240.904 495.685C242.897 498.861 245.578 501.548 248.75 503.547C251.922 505.546 255.503 506.805 259.228 507.232L267.015 512C268.084 506.043 267.848 499.925 266.324 494.067C264.801 488.21 262.026 482.753 258.19 478.071C256.012 475.466 253.515 473.146 250.757 471.165C248.892 476.083 246.4 480.946 246.4 480.946Z" fill="#03C2A7"/>
<path d="M176.677 350.417C161.684 334.955 139.957 326.087 117.067 326.087L116.184 326.09C101.107 326.095 86.2994 322.096 73.275 314.502L71.9197 313.712L73.0113 312.587C78.921 306.473 83.8556 299.487 87.6422 291.873C84.9529 294.38 81.7453 296.266 78.2465 297.396C74.7477 298.526 71.0432 298.874 67.3952 298.414C63.5438 297.954 59.8464 296.629 56.5803 294.537C53.3142 292.445 50.5643 289.641 48.5367 286.334C40.5364 273.354 31 254.935 31 240.904C31.0125 229.044 33.4957 217.317 38.2915 206.47C43.0873 195.623 50.0904 185.894 58.8545 177.903C64.4029 172.9 68.8347 166.784 71.8608 159.953C74.887 153.123 76.4396 145.731 76.4175 138.26L76.4131 137.197C76.4116 127.361 77.6135 117.562 79.9921 108.018L80.2337 107.055L81.2253 107.089C87.6196 107.307 94.0173 106.771 100.286 105.492C94.406 104.771 88.6534 103.241 83.1918 100.946L82.1251 100.514L82.4871 99.4212C107.442 83.9699 163.773 91.9714 196.469 17.1645C222.982 -43.4937 316.526 71.0108 316.526 137.197C316.526 143.951 309.842 152.875 314.845 157.339C368.932 205.593 331.613 236.578 319.847 267.757C317.055 275.154 323.108 283.275 323.108 291.279C323.108 292.637 323.074 294.038 323.005 295.445L322.901 297.607L321.098 296.407C317.53 294.07 314.223 291.358 311.233 288.316C314.335 295.454 315.797 303.197 315.511 310.974C315.225 318.752 313.199 326.366 309.582 333.257C303.914 343.955 298.43 351.614 293.284 356.02C276.797 370.129 255.543 377.407 233.868 376.365C212.194 375.324 191.735 366.042 176.677 350.417Z" fill="#E6E6E6"/>
<path d="M267.23 511.366C267.599 511.365 267.955 511.232 268.233 510.99C268.512 510.748 268.693 510.414 268.745 510.05C268.81 509.592 275.185 463.614 269.46 402.507C264.172 346.074 247.192 264.79 196.324 198.032C196.203 197.872 196.05 197.737 195.876 197.636C195.703 197.534 195.51 197.468 195.311 197.441C195.111 197.414 194.908 197.427 194.714 197.478C194.519 197.529 194.336 197.619 194.176 197.741C194.016 197.863 193.882 198.015 193.78 198.189C193.679 198.363 193.613 198.556 193.586 198.755C193.56 198.955 193.572 199.158 193.624 199.352C193.676 199.547 193.765 199.729 193.887 199.889C244.315 266.07 261.159 346.758 266.409 402.793C272.102 463.544 265.776 509.164 265.712 509.618C265.681 509.835 265.697 510.056 265.76 510.267C265.822 510.478 265.929 510.672 266.073 510.838C266.217 511.004 266.394 511.137 266.594 511.228C266.794 511.319 267.011 511.366 267.23 511.366Z" fill="#3F3D56"/>
<path d="M225.72 292.197C226.043 292.197 226.359 292.095 226.621 291.905C226.883 291.715 227.078 291.446 227.178 291.139C227.278 290.831 227.278 290.499 227.178 290.192C227.078 289.884 226.883 289.616 226.622 289.425C226.437 289.291 207.828 275.883 180.009 265.697C154.291 256.282 115.184 247.746 74.9246 260.559C74.7326 260.62 74.5545 260.718 74.4004 260.848C74.2464 260.977 74.1194 261.136 74.0267 261.315C73.9341 261.494 73.8776 261.689 73.8605 261.89C73.8434 262.09 73.866 262.292 73.9271 262.484C73.9882 262.676 74.0865 262.854 74.2164 263.008C74.3463 263.162 74.5053 263.289 74.6842 263.381C74.8631 263.473 75.0586 263.529 75.2592 263.546C75.4599 263.563 75.6619 263.54 75.8537 263.479C115.289 250.929 153.687 259.323 178.955 268.574C206.378 278.615 224.639 291.772 224.82 291.904C225.082 292.094 225.397 292.197 225.72 292.197Z" fill="#3F3D56"/>
<path d="M295.835 117.566C295.858 117.243 295.779 116.921 295.608 116.646C295.438 116.371 295.184 116.158 294.885 116.035C294.585 115.913 294.254 115.889 293.94 115.967C293.626 116.044 293.344 116.219 293.136 116.467C292.989 116.641 278.275 134.236 266.112 161.25C254.869 186.222 243.539 224.613 253.42 265.691C253.515 266.086 253.763 266.427 254.11 266.639C254.456 266.851 254.873 266.917 255.268 266.822C255.663 266.727 256.004 266.479 256.216 266.133C256.428 265.786 256.494 265.37 256.399 264.975C246.721 224.738 257.859 187.044 268.906 162.508C280.895 135.88 295.334 118.613 295.478 118.442C295.687 118.195 295.812 117.888 295.835 117.566Z" fill="#3F3D56"/>
<path d="M293.762 196.559C295.054 206.987 302.28 215.586 312.788 215.586C317.834 215.586 322.674 213.581 326.242 210.013C329.81 206.445 331.815 201.605 331.815 196.559C331.815 186.051 323.251 178.504 312.788 177.532C301.686 176.501 292.102 183.17 293.762 196.559Z" fill="#2F2E41"/>
<path d="M321.601 502.985L328.846 502.984L332.293 475.037L321.599 475.038L321.601 502.985Z" fill="#FFB6B6"/>
<path d="M321.346 510.544L343.627 510.543V510.261C343.627 507.961 342.713 505.755 341.087 504.129C339.46 502.503 337.254 501.589 334.954 501.589L330.884 498.501L323.29 501.589L321.345 501.589L321.346 510.544Z" fill="#2F2E41"/>
<path d="M293.061 502.985L300.306 502.984L303.753 475.037L293.059 475.038L293.061 502.985Z" fill="#FFB6B6"/>
<path d="M292.806 510.544L315.087 510.543V510.261C315.087 507.961 314.173 505.755 312.547 504.129C310.92 502.503 308.715 501.589 306.415 501.589L302.344 498.501L294.751 501.589L292.806 501.589L292.806 510.544Z" fill="#2F2E41"/>
<path d="M346.534 327.946L351.657 345.509L345.622 419.892C345.622 419.892 348.73 424.543 346.534 424.543C344.339 424.543 341.524 425.574 343.297 428.352C345.071 431.129 339.009 441.1 339.009 441.1L330.435 494.064L319.51 493.902C319.51 493.902 313.955 490.808 317.073 487.679C320.19 484.55 322.385 484.55 319.458 481.623C316.531 478.696 316.531 479.578 316.531 477.307C316.531 475.037 313.598 447.292 320.553 436.649L318.457 393.257L313.522 435.82L303.358 492.6L292.834 492.513C292.834 492.513 287.973 487.828 287.982 484.36C287.991 480.891 290.985 480.603 288.756 478.552C286.527 476.501 286.527 444.987 293.113 427.47C293.113 427.47 296.839 417.683 293.105 414.329C289.371 410.976 293.1 407.138 293.1 407.138C293.1 407.138 299.014 405.001 293.095 398.841C287.175 392.681 293.063 349.116 293.063 349.116C293.063 349.116 286.592 331.53 293.146 324.615C299.699 317.7 346.534 327.946 346.534 327.946Z" fill="#03C2A7"/>
<path d="M255.298 358.205L264.438 336.118L271.638 340.118L267.29 362.587C267.725 364.01 267.755 365.527 267.376 366.966C266.997 368.406 266.223 369.711 265.143 370.735C264.063 371.759 262.718 372.462 261.261 372.763C259.803 373.065 258.29 372.955 256.892 372.444C255.494 371.933 254.266 371.042 253.346 369.872C252.426 368.701 251.851 367.297 251.686 365.818C251.52 364.339 251.77 362.842 252.409 361.497C253.047 360.153 254.047 359.012 255.298 358.205Z" fill="#FFB6B6"/>
<path d="M408.664 183.546L394.757 202.988L388.65 197.46L397.977 176.562C397.875 175.077 398.19 173.593 398.885 172.276C399.581 170.96 400.629 169.864 401.914 169.112C403.198 168.359 404.667 167.979 406.155 168.016C407.643 168.052 409.092 168.502 410.338 169.317C411.584 170.131 412.578 171.277 413.209 172.626C413.839 173.974 414.081 175.472 413.907 176.95C413.733 178.428 413.15 179.829 412.224 180.994C411.298 182.16 410.065 183.043 408.664 183.546Z" fill="#FFB6B6"/>
<path d="M347.914 329.746C356.934 343.737 311.594 361.492 294.197 354.364C291.151 353.116 280.672 348.993 287.835 343.277C294.997 337.562 287.004 336.757 286.815 333.037C286.689 330.549 288.615 325.092 286.605 325.326C284.596 325.56 282.244 322.12 286.62 320.64C290.997 319.159 286.667 317.809 286.706 316.404C287.124 301.069 298.89 276.677 298.89 276.677L277.689 330.872C277.689 330.872 277.846 340.248 275.142 337.383C272.438 334.517 272.635 343.791 272.635 343.791C272.635 343.791 268.615 346.596 270.927 348.158C273.239 349.719 268.438 354.52 268.438 354.52L257.237 353.72C257.237 353.72 257.412 345.399 259.325 343.559C261.237 341.718 260.298 338.823 260.298 338.823C260.298 338.823 265.277 334.415 261.939 330.836C257.645 326.233 273.299 248.487 278.702 249.256C279.465 245.539 281.242 242.106 283.835 239.335C286.429 236.565 289.738 234.566 293.396 233.558L305.495 230.227L307.643 221.704H324.678L327.645 227.304L340.597 233.149C343.036 229.707 344.859 226.08 354.849 224.904C354.849 224.904 381.766 200.413 380.452 198.501C379.138 196.588 383.31 192.111 383.31 192.111C383.31 192.111 386.874 190.945 384.863 190.322C382.852 189.7 386.653 188.26 386.653 188.26C386.653 188.26 390.173 187.335 388.513 186.117C386.853 184.899 394.053 184.099 394.053 184.099L403.396 191.722L401.508 194.924C401.508 194.924 402.659 199.284 401.157 197.692C399.654 196.1 399.371 200.72 399.371 200.72C399.371 200.72 398.604 205.778 394.053 207.302C389.503 208.826 386.053 223.304 386.053 223.304C375.321 237.257 362.656 248.142 347.648 255.308C353.497 262.021 347.914 329.746 347.914 329.746Z" fill="#39027A"/>
<path d="M314.892 216.716C324.21 216.716 331.764 209.162 331.764 199.844C331.764 190.525 324.21 182.971 314.892 182.971C305.573 182.971 298.02 190.525 298.02 199.844C298.02 209.162 305.573 216.716 314.892 216.716Z" fill="#FFB6B6"/>
<path d="M297.42 201.682C297.955 205.348 301.079 210.463 300.348 210.463C299.616 210.463 294.413 195.349 299.616 194.364C303.39 193.649 304.233 194.276 307.761 192.746L307.263 193.215C309.597 194.912 312.847 193.866 315.51 192.761C318.181 191.663 321.423 190.617 323.765 192.307C325.236 193.368 325.858 195.212 326.773 196.778C327.688 198.352 329.378 199.837 331.12 199.354C332.517 198.967 333.322 197.4 333.315 195.952C333.308 194.503 331.421 193.124 332.056 191.824C333.939 187.972 332.246 185.346 328.141 183.533C326.648 183.306 325.155 183.074 323.663 182.838C324.445 181.754 325.393 180.801 326.473 180.013C326.017 178.844 325.228 177.834 324.204 177.108C323.011 176.398 321.533 176.449 320.15 176.522C317.062 176.683 313.976 176.844 310.893 177.005C308.61 177.122 306.246 177.261 304.204 178.308C301.658 179.618 299.989 182.172 298.774 184.77C296.052 190.609 296.484 195.308 297.42 201.682Z" fill="#2F2E41"/>
<path d="M167.219 436.49C167.525 434.388 165.323 432.327 162.301 431.887C159.278 431.448 156.58 432.796 156.274 434.898C155.968 437 158.171 439.061 161.193 439.501C164.215 439.941 166.913 438.593 167.219 436.49Z" fill="#E6E6E6"/>
<path d="M203.202 432.979C203.508 430.877 201.306 428.816 198.284 428.376C195.261 427.936 192.563 429.284 192.257 431.387C191.952 433.489 194.154 435.55 197.176 435.99C200.198 436.43 202.896 435.082 203.202 432.979Z" fill="#3F3D56"/>
<path d="M157.366 407.359C157.672 405.256 155.47 403.196 152.447 402.756C149.425 402.316 146.727 403.664 146.421 405.766C146.115 407.869 148.317 409.93 151.34 410.369C154.362 410.809 157.06 409.461 157.366 407.359Z" fill="#FF6584"/>
<path d="M141.73 395.426C141.744 393.496 140.668 391.923 139.325 391.913C137.982 391.903 136.882 393.459 136.867 395.389C136.853 397.32 137.929 398.893 139.272 398.903C140.615 398.913 141.715 397.356 141.73 395.426Z" fill="#E6E6E6"/>
<path d="M136.427 373.2C136.442 371.27 135.365 369.697 134.022 369.687C132.68 369.677 131.579 371.233 131.565 373.164C131.55 375.094 132.627 376.667 133.97 376.677C135.312 376.687 136.413 375.131 136.427 373.2Z" fill="#3F3D56"/>
<path d="M177.661 412.316C177.675 410.386 176.598 408.813 175.256 408.803C173.913 408.792 172.813 410.349 172.798 412.279C172.784 414.209 173.86 415.782 175.203 415.792C176.546 415.802 177.646 414.246 177.661 412.316Z" fill="#E6E6E6"/>
<path d="M160.272 420.998C160.286 419.068 159.21 417.495 157.867 417.485C156.524 417.475 155.424 419.031 155.409 420.961C155.395 422.891 156.471 424.464 157.814 424.474C159.157 424.485 160.257 422.928 160.272 420.998Z" fill="#FF6584"/>
<path d="M184.477 437.045C184.492 435.115 183.415 433.542 182.073 433.532C180.73 433.522 179.63 435.078 179.615 437.008C179.6 438.938 180.677 440.511 182.02 440.522C183.363 440.532 184.463 438.975 184.477 437.045Z" fill="#3F3D56"/>
<path d="M443.839 323.793C444.145 321.691 441.942 319.63 438.92 319.19C435.898 318.751 433.2 320.098 432.894 322.201C432.588 324.303 434.79 326.364 437.812 326.804C440.835 327.244 443.533 325.896 443.839 323.793Z" fill="#E6E6E6"/>
<path d="M479.822 320.282C480.128 318.18 477.926 316.119 474.904 315.679C471.881 315.239 469.183 316.587 468.877 318.69C468.571 320.792 470.774 322.853 473.796 323.293C476.818 323.733 479.516 322.385 479.822 320.282Z" fill="#3F3D56"/>
<path d="M433.984 294.662C434.29 292.559 432.088 290.498 429.066 290.059C426.044 289.619 423.346 290.967 423.04 293.069C422.734 295.172 424.936 297.233 427.958 297.672C430.98 298.112 433.678 296.764 433.984 294.662Z" fill="#FF6584"/>
<path d="M418.349 282.729C418.364 280.799 417.287 279.226 415.944 279.216C414.602 279.206 413.501 280.762 413.487 282.692C413.472 284.623 414.549 286.195 415.892 286.206C417.234 286.216 418.335 284.659 418.349 282.729Z" fill="#E6E6E6"/>
<path d="M413.047 260.503C413.062 258.573 411.985 257 410.642 256.99C409.3 256.98 408.199 258.536 408.185 260.467C408.17 262.397 409.247 263.97 410.589 263.98C411.932 263.99 413.032 262.434 413.047 260.503Z" fill="#3F3D56"/>
<path d="M454.28 299.62C454.294 297.689 453.218 296.117 451.875 296.106C450.532 296.096 449.432 297.653 449.418 299.583C449.403 301.513 450.48 303.086 451.822 303.096C453.165 303.106 454.265 301.55 454.28 299.62Z" fill="#E6E6E6"/>
<path d="M436.891 308.301C436.906 306.371 435.829 304.798 434.486 304.788C433.144 304.778 432.043 306.335 432.029 308.265C432.014 310.195 433.091 311.768 434.434 311.778C435.776 311.788 436.877 310.232 436.891 308.301Z" fill="#FF6584"/>
<path d="M461.097 324.348C461.112 322.418 460.035 320.845 458.693 320.835C457.35 320.825 456.25 322.381 456.235 324.311C456.22 326.241 457.297 327.814 458.64 327.825C459.982 327.835 461.083 326.278 461.097 324.348Z" fill="#3F3D56"/>
<path d="M309.919 115.231C310.225 113.128 308.023 111.068 305.001 110.628C301.979 110.188 299.281 111.536 298.975 113.638C298.669 115.741 300.871 117.802 303.893 118.242C306.915 118.681 309.614 117.333 309.919 115.231Z" fill="white"/>
<path d="M345.903 111.72C346.209 109.617 344.007 107.557 340.984 107.117C337.962 106.677 335.264 108.025 334.958 110.128C334.652 112.23 336.854 114.291 339.877 114.731C342.899 115.17 345.597 113.822 345.903 111.72Z" fill="#3F3D56"/>
<path d="M300.066 86.0993C300.372 83.9968 298.17 81.936 295.147 81.4963C292.125 81.0565 289.427 82.4044 289.121 84.5069C288.815 86.6093 291.017 88.6702 294.04 89.1099C297.062 89.5497 299.76 88.2017 300.066 86.0993Z" fill="#FF6584"/>
<path d="M284.43 74.1667C284.445 72.2365 283.368 70.6636 282.025 70.6535C280.683 70.6433 279.582 72.1998 279.568 74.1299C279.553 76.0601 280.63 77.633 281.972 77.6431C283.315 77.6533 284.415 76.0968 284.43 74.1667Z" fill="#E6E6E6"/>
<path d="M279.128 51.9411C279.142 50.011 278.066 48.438 276.723 48.4279C275.38 48.4177 274.28 49.9742 274.265 51.9043C274.251 53.8345 275.327 55.4074 276.67 55.4176C278.013 55.4277 279.113 53.8712 279.128 51.9411Z" fill="#3F3D56"/>
<path d="M320.361 91.0571C320.376 89.1269 319.299 87.554 317.956 87.5439C316.613 87.5337 315.513 89.0902 315.499 91.0203C315.484 92.9504 316.561 94.5234 317.903 94.5335C319.246 94.5437 320.346 92.9872 320.361 91.0571Z" fill="#E6E6E6"/>
<path d="M302.972 99.739C302.987 97.8088 301.91 96.2359 300.568 96.2258C299.225 96.2156 298.125 97.772 298.11 99.7022C298.095 101.632 299.172 103.205 300.515 103.215C301.857 103.226 302.958 101.669 302.972 99.739Z" fill="#FF6584"/>
<path d="M327.178 115.785C327.193 113.855 326.116 112.282 324.773 112.272C323.431 112.262 322.33 113.818 322.316 115.749C322.301 117.679 323.378 119.252 324.72 119.262C326.063 119.272 327.163 117.715 327.178 115.785Z" fill="#3F3D56"/>
</svg>
