<svg width="48" height="48" viewBox="0 0 48 48" fill="none" xmlns="http://www.w3.org/2000/svg">
<path d="M25.2153 9.85071V42.0202L43 37.1695V5L25.2153 9.85071Z" fill="#39027A"/>
<path d="M5 37.1696L22.7864 42.0195V9.85084L5 5.00098V37.1696Z" fill="#03C2A7"/>
<path d="M29.0709 13.8995L38.8435 11.2638C39.492 11.088 40.1584 11.4722 40.332 12.1199C40.5074 12.7668 40.1236 13.4335 39.4763 13.6085L29.7055 16.2446C29.5987 16.2734 29.4911 16.2873 29.3877 16.2873C28.8532 16.2873 28.3626 15.9302 28.2161 15.3885C28.0415 14.7408 28.4249 14.0744 29.0709 13.8995ZM29.0709 20.9953L38.8435 18.3622C39.492 18.1872 40.1584 18.5714 40.332 19.2187C40.5074 19.8664 40.1236 20.5323 39.4763 20.7073L29.7055 23.3404C29.5987 23.3688 29.4911 23.3827 29.3877 23.3827C28.8532 23.3827 28.3626 23.0257 28.2161 22.4839C28.0415 21.8366 28.4249 21.1703 29.0709 20.9953ZM29.0709 27.2837L38.8435 24.6485C39.492 24.4723 40.1584 24.8569 40.332 25.5046C40.5074 26.1514 40.1236 26.8178 39.4763 26.9931L29.7055 29.6292C29.5987 29.6581 29.4911 29.6708 29.3877 29.6708C28.8532 29.6708 28.3626 29.3149 28.2161 28.7731C28.0415 28.125 28.4249 27.4591 29.0709 27.2837ZM32.6855 35.0866L29.7118 35.9147C29.6042 35.9452 29.4949 35.9592 29.3856 35.9592C28.8553 35.9592 28.3664 35.6076 28.2165 35.0705C28.0369 34.4245 28.416 33.7552 29.0611 33.5747L32.0349 32.7474C32.677 32.567 33.3497 32.9444 33.5306 33.5904C33.7106 34.2377 33.3328 34.907 32.6855 35.0866ZM39.4725 33.282L37.4744 33.814C37.371 33.8412 37.266 33.8556 37.1626 33.8556C36.6246 33.8556 36.1349 33.4955 35.9892 32.9529C35.8164 32.3043 36.2019 31.6388 36.8504 31.466L38.8477 30.9348C39.492 30.7637 40.1609 31.1483 40.3337 31.796C40.5074 32.4441 40.1202 33.1092 39.4725 33.282Z" fill="#03C2A7"/>
<path d="M19.8 28.3766C19.6543 28.9209 19.1646 29.2801 18.6266 29.2801C18.5241 29.2801 18.4191 29.267 18.3157 29.2386L8.52997 26.6457C7.88058 26.4737 7.4951 25.8082 7.66624 25.1605C7.83737 24.512 8.50752 24.1274 9.1497 24.2977L18.9367 26.8914C19.5857 27.063 19.9716 27.728 19.8 28.3766ZM7.66624 18.7632C7.83737 18.1156 8.50201 17.7301 9.1514 17.9008L18.9384 20.4958C19.5861 20.6674 19.9716 21.3324 19.8004 21.9805C19.6547 22.5244 19.165 22.8841 18.627 22.8841C18.5245 22.8841 18.4195 22.8705 18.3153 22.843L8.52827 20.248C7.88058 20.076 7.49468 19.4118 7.66624 18.7632Z" fill="#39027A"/>
</svg>
