<svg width="48" height="48" viewBox="0 0 48 48" fill="none" xmlns="http://www.w3.org/2000/svg">
<path d="M30.4979 36.5797L6.29745 22.059L30.4979 7.53826L32.6791 11.1679L14.5266 22.059L32.6791 32.95L30.4979 36.5797Z" fill="#03C2A7"/>
<path d="M31.5882 17.8235C35.6816 17.8235 39 14.5052 39 10.4118C39 6.31836 35.6816 3 31.5882 3C27.4948 3 24.1765 6.31836 24.1765 10.4118C24.1765 14.5052 27.4948 17.8235 31.5882 17.8235Z" fill="#39027A"/>
<path d="M10.4118 29.4706C14.5052 29.4706 17.8235 26.1522 17.8235 22.0588C17.8235 17.9654 14.5052 14.6471 10.4118 14.6471C6.31836 14.6471 3 17.9654 3 22.0588C3 26.1522 6.31836 29.4706 10.4118 29.4706Z" fill="#39027A"/>
<path d="M31.5882 41.1176C35.6816 41.1176 39 37.7993 39 33.7059C39 29.6125 35.6816 26.2941 31.5882 26.2941C27.4948 26.2941 24.1765 29.6125 24.1765 33.7059C24.1765 37.7993 27.4948 41.1176 31.5882 41.1176Z" fill="#39027A"/>
</svg>
