<svg width="48" height="48" viewBox="0 0 48 48" fill="none" xmlns="http://www.w3.org/2000/svg">
<path d="M12.3448 34.3443C9.95176 34.3443 8 36.2876 8 38.6722C8 41.0567 9.95176 43 12.3448 43H15.5016C16.7999 43 17.954 42.423 18.7517 41.5234C18.7602 41.515 18.7771 41.515 18.7856 41.5065C18.8365 41.4556 18.8705 41.3792 18.9129 41.3283C19.0232 41.1925 19.1251 41.0567 19.2099 40.904C20.0161 39.699 20.3979 38.1121 20.3979 36.8986C20.3979 35.473 20.3979 20.1559 20.3979 20.1559C20.3979 20.105 20.3979 20.0625 20.3979 20.0116C20.3979 19.9692 20.3979 19.9183 20.3979 19.8758C20.4658 18.6708 21.3484 17.695 22.5279 17.4234C22.6722 17.3895 22.9862 17.3216 22.9862 17.3216L35.7066 14.9116C35.766 14.9031 35.8169 14.8946 35.8763 14.8861C35.9442 14.8776 36.0036 14.8776 36.0799 14.8776C37.1067 14.8776 37.8705 15.6838 37.8705 16.6766C37.8705 16.6766 37.8705 25.6548 37.8705 27.8272C37.8705 29.9911 38.1166 30.5342 34.4337 30.5342H32.728C30.3265 30.5342 28.3832 32.4774 28.3832 34.862C28.3832 37.2465 30.3265 39.1898 32.728 39.1898H35.8848C37.4292 39.1898 38.7785 38.3921 39.5507 37.1871C39.5507 37.1786 39.5592 37.1871 39.5677 37.1871C40.3314 36.1519 40.5775 34.5904 40.5775 32.4944C40.5775 30.3899 40.5775 6.79902 40.5775 6.79902C40.5775 5.80616 39.7374 5 38.7106 5C38.6512 5 38.5918 5.00849 38.5409 5.00849L38.2778 5.05092L19.8209 8.54712C18.6498 8.8611 17.5891 9.98124 17.5042 11.2117C17.5042 11.2202 17.5042 11.2202 17.5042 11.2287C17.5042 11.2372 17.5042 11.2372 17.5042 11.2456C17.5042 11.2456 17.5042 31.2894 17.5042 32.469C17.5042 33.6485 17.674 34.3528 13.4565 34.3528H12.3448V34.3443Z" fill="#03C2A7"/>
</svg>
