<svg width="48" height="48" viewBox="0 0 48 48" fill="none" xmlns="http://www.w3.org/2000/svg">
<path d="M24 5C13.5227 5 5 13.5238 5 24.0006C5 34.4774 13.5227 43 24 43C34.4768 43 43 34.4774 43 24.0006C43 13.5238 34.4769 5 24 5ZM24 40.003C15.1757 40.003 7.99692 32.8243 7.99692 24.0005C7.99692 15.1757 15.1757 7.99692 24 7.99692C32.8243 7.99692 40.0031 15.1757 40.0031 24.0005C40.0031 32.8243 32.8243 40.003 24 40.003Z" fill="#39027A"/>
<path d="M20.9955 20.2768C20.9955 19.0747 22.7536 18.8695 24.2786 18.8695C25.7159 18.8695 27.6799 19.5431 29.3221 20.3945L29.6439 17.0814C28.8226 16.6118 26.9174 16.0547 24.9822 15.9382L25.4512 12.5663H22.3141L22.7837 15.9382C18.7381 16.3188 17.4184 18.6641 17.4184 20.6286C17.4184 25.5832 26.6528 24.5288 26.6528 27.5766C26.6528 28.721 25.5689 29.1305 23.6627 29.1305C21.0833 29.1305 19.1476 28.2226 18.1515 27.2837L17.6526 31.0075C18.5916 31.5646 20.4962 32.0629 22.7837 32.1806L22.3141 35.4349H25.4512L24.9822 32.1507C29.7316 31.74 30.5818 29.2183 30.5818 27.5479C30.5819 21.6553 20.9955 23.1204 20.9955 20.2768Z" fill="#03C2A7"/>
</svg>
