<svg width="48" height="48" viewBox="0 0 48 48" fill="none" xmlns="http://www.w3.org/2000/svg">
<path d="M38.0949 25.9131C37.6767 25.9131 37.2394 25.7801 36.8212 25.685C35.9748 25.4958 35.1427 25.248 34.3306 24.9435C33.4487 24.6227 32.4792 24.6394 31.6088 24.9903C30.7383 25.3413 30.0285 26.0018 29.6158 26.8447L29.1975 27.7192C27.3511 26.6721 25.6454 25.3944 24.1214 23.9169C22.6439 22.3929 21.3662 20.6872 20.3191 18.8408L21.1936 18.4416C22.0365 18.0289 22.697 17.319 23.048 16.4486C23.399 15.5781 23.4156 14.6087 23.0948 13.7267C22.7928 12.9073 22.5451 12.069 22.3533 11.2171C22.2583 10.7989 22.1822 10.3616 22.1252 9.94337C21.8943 8.60423 21.1929 7.39152 20.1472 6.52363C19.1016 5.65574 17.7804 5.18972 16.4217 5.20947H10.6992C9.89545 5.20842 9.10058 5.37725 8.36667 5.70488C7.63276 6.03252 6.97638 6.51157 6.44057 7.11063C5.89364 7.72595 5.4864 8.45238 5.24684 9.24001C5.00727 10.0276 4.94104 10.8578 5.05272 11.6734C6.08617 19.5863 9.70147 26.9372 15.338 32.5862C20.987 38.2228 28.3379 41.8381 36.2508 42.8715C36.4976 42.8904 36.7455 42.8904 36.9923 42.8715C38.3942 42.8736 39.7478 42.3592 40.7946 41.4266C41.3937 40.8908 41.8727 40.2344 42.2003 39.5005C42.528 38.7666 42.6968 37.9718 42.6958 37.168V31.4645C42.6855 30.1509 42.2221 28.8811 41.3838 27.8696C40.5456 26.8582 39.3838 26.1671 38.0949 25.9131ZM39.0265 37.3201C39.0259 37.5854 38.9697 37.8477 38.8617 38.0899C38.7536 38.3322 38.5961 38.5492 38.3991 38.727C38.1908 38.9168 37.9428 39.058 37.6732 39.1402C37.4035 39.2224 37.119 39.2436 36.8402 39.2023C29.7456 38.2757 23.1523 35.0425 18.0757 30.0006C12.9948 24.9197 9.73344 18.3035 8.79801 11.1791C8.75671 10.9003 8.77793 10.6158 8.86013 10.3461C8.94234 10.0765 9.08347 9.82854 9.2733 9.62017C9.45319 9.42084 9.67327 9.26187 9.91903 9.15373C10.1648 9.0456 10.4307 8.99074 10.6992 8.99279H16.4027C16.8421 8.98205 17.2718 9.12394 17.6184 9.39431C17.965 9.66468 18.2072 10.0468 18.3038 10.4757C18.3038 10.989 18.4749 11.5213 18.589 12.0346C18.8087 13.0306 19.101 14.0091 19.4635 14.9624L16.8019 16.2172C16.3444 16.4272 15.9889 16.8101 15.8133 17.2819C15.6232 17.7447 15.6232 18.2639 15.8133 18.7267C18.5495 24.5876 23.2606 29.2987 29.1215 32.0349C29.5843 32.225 30.1035 32.225 30.5663 32.0349C31.0381 31.8593 31.421 31.5038 31.631 31.0463L32.8287 28.3847C33.8095 28.7423 34.813 29.0345 35.8326 29.2592C36.3269 29.3733 36.8592 29.4683 37.3725 29.5444C37.8014 29.6409 38.1835 29.8832 38.4539 30.2298C38.7243 30.5764 38.8662 31.0061 38.8554 31.4455L39.0265 37.3201Z" fill="#39027A"/>
<path d="M26.4789 5H27.8097C31.8402 5.00504 35.7038 6.60967 38.552 9.46142C41.4002 12.3132 43 16.1788 43 20.2093V21.5401C42.9572 22.0141 42.7381 22.4548 42.3861 22.7751C42.0341 23.0955 41.5748 23.2721 41.0988 23.2702H40.9467C40.4453 23.2267 39.9816 22.9861 39.6573 22.6012C39.333 22.2163 39.1745 21.7185 39.2167 21.2169V20.2093C39.2167 17.184 38.0149 14.2826 35.8757 12.1434C33.7364 10.0041 30.835 8.80233 27.8097 8.80233H26.8021C26.2979 8.84519 25.7973 8.68599 25.4104 8.35976C25.0236 8.03353 24.7822 7.56698 24.7393 7.06276C24.6965 6.55854 24.8557 6.05795 25.1819 5.67111C25.5081 5.28426 25.9747 5.04286 26.4789 5Z" fill="#03C2A7"/>
<path d="M32.1689 21.5536C31.8123 21.1971 31.612 20.7135 31.612 20.2093C31.612 19.2009 31.2114 18.2337 30.4984 17.5207C29.7853 16.8076 28.8181 16.407 27.8097 16.407C27.3055 16.407 26.8219 16.2067 26.4654 15.8501C26.1088 15.4936 25.9085 15.01 25.9085 14.5058C25.9085 14.0016 26.1088 13.518 26.4654 13.1615C26.8219 12.805 27.3055 12.6047 27.8097 12.6047C29.8266 12.6047 31.7609 13.4059 33.187 14.832C34.6132 16.2582 35.4144 18.1924 35.4144 20.2093C35.4144 20.7135 35.2141 21.1971 34.8575 21.5536C34.501 21.9102 34.0174 22.1105 33.5132 22.1105C33.009 22.1105 32.5254 21.9102 32.1689 21.5536Z" fill="#03C2A7"/>
</svg>
