<svg width="48" height="48" viewBox="0 0 48 48" fill="none" xmlns="http://www.w3.org/2000/svg">
<path d="M30.7882 18.4274L28.3182 9.22102C28.1861 8.79218 27.8922 8.4316 27.4989 8.21559C27.1056 7.99959 26.6437 7.94513 26.2109 8.06374C25.7693 8.18132 25.3923 8.4691 25.1625 8.86406C24.9326 9.25903 24.8686 9.72898 24.9845 10.171L27.2127 18.4274H20.7873L23.0155 10.1192C23.1171 9.68303 23.0453 9.22444 22.8153 8.84017C22.5853 8.4559 22.215 8.17599 21.7826 8.05948C21.3502 7.94297 20.8894 7.99897 20.4975 8.21567C20.1055 8.43238 19.8131 8.79284 19.6818 9.22102L17.2118 18.4274H5V21.7092L10.0782 40.8819H37.9218L43 22.1583V18.4274H30.7882ZM35.2791 37.4274H12.7209L8.55818 21.8819H39.4418L35.2791 37.4274Z" fill="#39027A"/>
<path d="M14.3646 23.7859C14.7322 23.5239 15.1687 23.3757 15.6199 23.36C15.9286 23.3493 16.2363 23.4008 16.5247 23.5116C16.813 23.6224 17.0761 23.7901 17.2982 24.0047C17.5203 24.2194 17.6969 24.4766 17.8175 24.761C17.9381 25.0454 18.0001 25.3511 17.9999 25.66C17.9996 26.1115 17.8665 26.5528 17.6171 26.9291C17.3678 27.3054 17.0132 27.6 16.5976 27.7762C16.1819 27.9524 15.7236 28.0024 15.2798 27.92C14.836 27.8375 14.4262 27.6263 14.1016 27.3125C13.777 26.9988 13.5518 26.5965 13.4543 26.1558C13.3567 25.715 13.391 25.2553 13.5529 24.8339C13.7147 24.4125 13.9971 24.048 14.3646 23.7859Z" fill="#03C2A7"/>
<path d="M34.0062 27.3264C33.5749 27.7577 32.9899 28 32.3799 28C31.7699 28 31.1849 27.7577 30.7536 27.3264C30.3222 26.895 30.0799 26.31 30.0799 25.7C30.0799 25.09 30.3222 24.505 30.7536 24.0737C31.1849 23.6424 31.7699 23.4 32.3799 23.4C32.9899 23.4 33.5749 23.6424 34.0062 24.0737C34.4376 24.505 34.6799 25.09 34.6799 25.7C34.6799 26.31 34.4376 26.895 34.0062 27.3264Z" fill="#03C2A7"/>
</svg>
